<?xml version="1.0" encoding="utf-8"?>
<!-- Generator: Adobe Illustrator 24.2.0, SVG Export Plug-In . SVG Version: 6.00 Build 0)  -->
<svg version="1.1" id="Layer_1" xmlns="http://www.w3.org/2000/svg" xmlns:xlink="http://www.w3.org/1999/xlink" x="0px" y="0px"
	 viewBox="0 0 332 331.6" enable-background="new 0 0 332 331.6" xml:space="preserve">
<g>
	<path fill="none" d="M156.6,201.9c-0.1,1.4,0.7,2,1.8,2.4c3.1,1,6.3,2,9.4,3c1.8,0.6,3.6,1,5.5,1c0.4,0,0.9,0.1,1.3,0.3
		c1.6,0.6,2.5-0.1,2.4-1.8c0.7-0.5,1.3-1,1.9-1.6c0.2-0.2,0.4-0.6,0.3-0.9c-0.1-1.1-0.5-2.1-1.5-2.6c-0.8-0.4-1.5-0.9-2.3-1.2
		c-1.9-0.7-3.9-1.3-5.9-1.8c-1.4-0.4-2.8-0.5-4.3-0.3c-1,0.1-2.1,0.1-3.1,0.1c-2.7-0.1-5.4-0.3-8.1,0.2c-1.1,0.2-1.8,0.7-1.8,1.4
		c0,0.8,0.5,1.3,1.7,1.5C154.7,201.7,155.6,201.8,156.6,201.9z"/>
	<path fill="none" d="M8.4,117.3c-0.2-0.4-0.4-0.8-0.5-1.2C7.8,116.6,7.8,117.1,8.4,117.3z"/>
	<path fill="none" d="M148.8,256.6c1.4,1.3,3,2.1,4.7,2.7c4.3,1.7,8.8,2.1,13.4,1.8c1-0.1,2-0.2,3-0.4c3.5-0.9,6.6-2.7,9.7-4.5
		c0.2-0.1,0.4-0.3,0.6-0.5c3.2-3.3,4.4-7.3,3.6-11.8c0-0.3-0.2-0.6-0.3-0.9c-0.7-1.2-1.4-2.4-2.2-3.7c0.4-0.1,0.8-0.3,1.1-0.4
		c-0.6-1.9-2.3-3.4-2.1-5.6c-4.7,0.3-9.4,0.5-14.2,0.8c0,0.3,0,0.5,0,0.7c0.5,2.2,0,4.4-0.3,6.6c-0.1,1-0.8,1.5-1.8,1.3
		c-0.9-0.1-1.2-0.6-1.2-1.7c0-0.6-0.1-1.3-0.2-1.9c-0.1-0.6-0.3-1.3-0.4-1.9c-0.2-1-0.3-2-0.4-2.9c-4.9-0.1-9.9-0.1-15-0.1
		c-0.7,2-1.3,3.9-1.9,5.7c-0.8,2.8-1.4,5.6-1.4,8.5c0,1.8,0.5,3.5,1.8,4.8C146.4,254.4,147.6,255.5,148.8,256.6z"/>
	<path d="M107.7,208.1c0.4-0.9,0.9-1.8,1.3-2.7c0.6-1.1,0-2-1.2-2.1c-0.9-0.1-1.7-0.1-2.6,0c-3.4,0.3-6.8,0.7-10.2,0.9
		c-2.1,0.2-4.2,0.1-6.3,0.1c-1.3,0.1-1.9,0.9-1.5,2.1c0.2,0.4,0.2,0.7,0,1.1c-0.4,0.8-0.1,1.5,0.5,2c0.7,0.6,1.4,0.9,2.3,0.9
		c2.2,0,4.4-0.1,6.6-0.2c1.2,0,2.5,0,3.8,0c0,0.4-0.1,0.8-0.1,1.2c-0.3,2.9,0,5.8,1.1,8.6c0.8,1.9,1.6,3.8,3,5.3
		c2.9,3,6.3,5.1,10.3,6.3c0.5,0.1,0.9,0.4,1.3,0.7c1,0.9,1.9,1.8,2.9,2.7c2.7,2.5,5.3,4.9,7.7,7.6c1.2,1.3,1.9,2.8,2.3,4.5
		c0.8,3,0.7,6,0.8,9c0,1.8-0.2,3.6-0.7,5.3c-0.8,2.8-1.8,5.6-2.6,8.5c-0.7,2.3-1.6,4.4-2.7,6.5c-2.6,5-6,9.5-9.6,13.9
		c-1.3,1.7-2.8,3-4.6,4.1c-0.1,0.1-0.3,0.2-0.4,0.3c-0.1,0.2-0.3,0.6-0.2,0.7c0.2,0.2,0.6,0.4,0.8,0.3c0.5-0.2,0.9-0.4,1.3-0.7
		c1.7-1.2,3.5-2.4,5.2-3.7c0.4-0.4,0.9-0.7,1.3-1.1c3.2-2.7,5.7-6,7.8-9.5c1.4-2.2,2.8-4.4,3.5-7c1.9-6.6,3.4-13.2,3.8-20.1
		c0.1-1.1,0.3-2.3,0.2-3.5c-0.2-1.9-0.3-3.9-1.2-5.8c-0.1-0.2-0.1-0.4-0.2-0.7c0.8,0.1,1.6,0.1,2.3,0.2c0.6,0,1-0.2,1.1-0.7
		c0-0.3-0.3-0.8-0.5-1.1c-0.1-0.2-0.4-0.2-0.6-0.3c-1.2-0.6-2.5-1.1-3.8-1.7c-0.7-0.4-1.5-0.8-2.1-1.3c-1.6-1.4-3.1-3-4.7-4.5
		c-0.4-0.4-0.6-0.8-0.4-1.5c6.1,1,12.3,1.4,18.6,1.5c-0.2,0.5-0.3,0.8-0.4,1.1c-1.4,3.5-2.5,7.1-2.9,10.9c-0.4,3.7,0.1,7.1,2.8,9.9
		c1.9,2.1,4,3.9,6.7,4.7c3.1,1,6.1,2.2,9.2,3.3c3.1,1.2,6.4,1.2,9.7,1.2c2.7,0,5.2-0.5,7.7-1.5c5.3-2.2,10.2-4.9,12.6-10.5
		c0-0.1,0-0.1,0.1-0.2c1.1-1,1.2-2.3,1.3-3.7c0.2-2,0.3-3.9,0.4-5.9c0.1-0.5,0.1-1,0.3-1.3c0.5-0.8,0.5-1.5,0.1-2.3
		c-0.1-0.2-0.2-0.5-0.2-0.7c0-1.9-0.6-3.7-1.2-5.4c-0.1-0.3,0-0.6-0.1-1c0.7,0,1.2,0,1.7,0c2-0.1,4-0.3,6-0.4
		c2.4-0.1,4.8-0.3,7.2-0.4c0.2,0,0.5,0.1,0.9,0.2c-0.9,1-1.7,1.9-2.5,2.9c-2.4,3-5.6,4.4-9.2,5.2c-0.5,0.1-1.1,0.2-1.5,0.5
		c-0.8,0.4-0.8,1.3-0.1,1.8c0.5,0.4,1.1,0.6,1.7,0.6c0.9,0.1,1.9-0.1,2.9-0.1c0,0.4,0,0.9,0,1.4c-0.2,4.5,0,9,1.1,13.4
		c1.7,7,3.8,13.9,7.9,20c0.5,0.7,0.8,1.4,1.2,2.1c-0.5,0.6-1,1.2-1.3,1.8c-0.4,0.6,0.1,1.4,0.7,1.2c1-0.3,2-0.9,2.9-1.4
		c0.1,0,0.1-0.1,0.1-0.1c0.3-0.4,0.6-0.9,1-1.3c1.6-1.6,3.3-3.2,4.9-4.8c0.3-0.3,0.8-0.6,0.8-1.2c-1-0.4-1.4-0.5-2.3,0.1
		c-1.3,0.8-2.6,1.8-3.8,2.8c-0.5,0.4-1,0.9-1.6,1.5c-0.3-0.6-0.6-1.1-0.8-1.6c-2.9-6.9-5.4-13.9-7-21.2c-0.9-4.6-0.8-9.3-0.8-13.7
		c1.1-0.8,2-1.6,2.9-2.3c1-0.8,2-1.5,2.9-2.3c1.5-1.3,2.4-3,2.1-5.1c0-0.1,0.1-0.2,0.2-0.4c0.6,0,1.3,0,1.9,0c1.5,0,2.9-0.2,4.4-0.9
		c4.4-2.3,8.6-4.9,12-8.7c0.7-0.7,1-1.3,0.5-2.1c0.3-0.5,0.7-0.9,0.9-1.4c0.6-1.2,1.4-2.5,1.7-3.8c0.5-1.9,0.6-3.7,0.8-5.6
		c0.1-0.6,0.1-1.2,0.2-2c0.7,0,1.1,0,1.8-0.1c2.2,0,4.4,0,6.6-0.1c1.8-0.1,3.4-0.4,4.1-2.5c0.4-1.4,0.5-2-0.8-2.7
		c-1.2-0.6-2.4-0.6-3.7-0.7c-3.1-0.1-6.2-0.3-9.3-0.5c-2-0.2-4-0.5-6-0.8c-0.5,1-0.3,1.9,0.4,2.7c0.4,0.5,0.6,1.1,0.6,1.7
		c0,1.6,0,3.2-0.4,4.8c-0.2,0.8-0.2,1.7-0.3,2.5c-0.1,1.2-0.9,3-2,3.9c-0.1-0.3-0.1-0.6-0.1-0.9c-0.2-3.2-0.8-6.4-1.8-9.4
		c-0.6-1.8-1.3-3.6-2-5.5c-2.2-6.2-5.7-11.6-10.9-15.9c-2.2-1.8-4.6-3.5-6.9-5.2c-2.7-2.1-5.6-3.7-8.5-5.3c-3.9-2-7.8-4.1-11.7-6.2
		c-0.6-0.3-0.9-0.7-1-1.4c-0.1-0.8-0.4-1.5-0.6-2.3c-0.3-1-0.7-2-0.9-3c-1.2-5.2-1.1-10.6-1.2-15.9c-0.1-2.8-0.1-5.6-0.2-8.4
		c-0.1-3.5-0.8-7.1-0.2-10.7c0-0.1,0.1-0.3,0-0.4c-0.1-0.2-0.3-0.5-0.5-0.5c-0.2-0.1-0.5,0.1-0.6,0.3c-0.1,0.3-0.2,0.7-0.2,1
		c-0.4,3.6-0.9,7.1-1.1,10.7c-0.2,3.8-0.3,7.5,0.2,11.3c0.2,1.2,0.4,2.4,0.5,3.6c0.1,2.2,0.1,4.5,0.3,6.7c0.2,3,0.1,6.1,1.7,8.8
		c0,1.1,0.8,1.8,1.6,2.4c3,2.2,6.1,4.1,9.6,5.3c0.8,0.3,1.5,0.6,2.2,1.1c3.3,2.2,6.7,4.4,10,6.7c4,2.6,7.5,5.7,10.1,9.8
		c0.3,0.4,0.6,0.7,0.8,1.1c0.3,0.3,0.5,0.7,0.7,1.1c0.9,2,1.8,4.1,2.7,6.1c2.1,4.6,3.3,9.4,3.8,14.5c0.2,1.5,0.2,3,0.3,4.3
		c-0.6,0.4-1,0.6-1.4,0.9c-0.6,0.4-1.1,1-1.8,1.3c-2.5,1-5,1.8-7.7,2.1c-2.3,0.3-4.7,0.5-7,0.8c-1.2,0.1-2.3,0.5-3.4,0.5
		c-7.1-0.2-14.2,0.4-21.3,0.6c-0.6,0-1.1,0.1-1.6,0.1c1.4-1,2.8-1.8,4.2-2.6c0.2-0.1,0.4-0.1,0.6-0.2c0.1,0,0.2,0,0.3,0
		c2.7-0.8,5-2.1,6.6-4.5c0.9-1.4,1.6-2.8,2.3-4.3c0.4-0.9,0.6-2,1.3-2.8c0.1-0.1,0.2-0.4,0.2-0.7c0.2-1.4,0.3-2.8,0.4-4.2
		c0.2-1.7-0.1-3.5-0.3-5.2c-0.2-1.6-0.9-2.8-1.9-3.9c-1.1-1.1-2.4-1.9-3.8-2.5c-1.9-0.8-3.9-1.4-5.9-2.1c-1-0.3-2.1-0.5-3.2-0.3
		c-0.3,0-0.6,0-0.9-0.1c-1.6-0.5-3.3-0.8-5-0.9c-3.7-0.2-7.4-0.2-11,0.6c-3.2,0.7-6.3,1.5-9.4,2.4c-1.2,0.3-2.4,0.8-3.6,1.4
		c-1.7,0.9-2.5,2.3-2.5,4.2c0,0.6-0.2,1.2-0.5,1.7c-1.5,2.7-1.5,5.6-0.8,8.4c0.6,2.7,1.9,5.3,3.3,7.8c2.2,3.8,5.4,6.4,9.9,7.3
		c0.6,0.1,1.2,0.2,1.6,0.8c-0.2,0.1-0.4,0.1-0.5,0.1c-9.2-0.1-18.4-0.2-27.6-0.3c-1.4,0-2.8,0-4.2,0c-2.6,0-5.1-0.5-7.4-1.6
		c-0.6-0.3-1-0.7-1-1.4c-0.1-1.1-0.2-2.2-0.3-3.3c-0.1-3,0-5.9,0.9-8.8c2.5-7.6,6-14.5,11.1-20.7c3.9-4.8,8.2-9,13.4-12.3
		c0.6-0.4,1.2-0.8,1.9-0.5c0.2-0.1,0.3-0.1,0.3-0.2c0.4-1.1,0.6-1.1,1.5-0.4c0.5,0.5,1.1,0.9,1.7,1.2c0.6,0.3,1.2-0.2,1.1-0.9
		c-0.1-0.4-0.3-0.7-0.4-1.1c0.9-0.2,1.7-0.3,2.5-0.5c2.3-0.8,4.5-1.8,6.6-3.1c0.8-0.5,1.4-1.2,2.1-1.8c0.5-0.4,0.9-0.8,1.3-1.3
		c0.3-0.2,0.7-0.6,0.6-0.9c-0.2-0.7,0.2-1.2,0.5-1.7c0.2-0.3,0.3-0.6,0.2-0.9c-0.1-0.3-0.4-0.4-0.6-0.6c0.4-0.8,0.7-1.5,1-2.2
		c0.6-1.7,0.8-3.3-0.2-4.9c-0.1-0.2-0.1-0.5-0.1-0.8c0-4.1-0.1-8.2,0-12.3c0-0.9,0.3-1.8,0.5-2.7c0.1-0.3,0.2-0.7,0.2-1.1
		c-0.2-2.1-0.4-4.2-0.6-6.3c0-0.3-0.1-0.8,0.1-1c0.7-0.6,0.5-1.3,0.2-2c-0.9-2.3-2.6-3.8-4.5-5.2c-0.3-0.3-0.8-0.3-1.2-0.4
		c0,0.1-0.1,0.2-0.2,0.3c0.4,1.8,2.3,2.6,3,3.9c-0.1,1.1-0.3,1.9-0.3,2.7c0,1.9,0,3.9,0.1,5.8c0.1,2.4,0.1,4.8,0.4,7.2
		c0.4,3.1,0.6,6.2,0.4,9.3c-0.1,2.2-0.5,4.4-1.7,6.3c-0.4,0.7-0.6,1.5,0,2.2c0.1,0.1,0,0.4,0,0.6c-0.1,0.9-0.2,1.8-0.3,2.9
		c-0.7,0.7-1.7,1.5-2.9,2c-1.5,0.7-3,1.4-4.5,2.1s-3.1,1.2-4.4,2.3c-0.6-0.4-1.1-0.7-1.6-0.9c-0.8-0.2-1.4,0.4-1.2,1.2
		c0.1,0.3,0.2,0.6,0.4,1c-0.8-0.1-1.6-0.1-2,0.7c-0.1,0.1-0.3,0.1-0.5,0.2c-3.6,1.5-6.6,3.8-9.5,6.3c-2.9,2.4-5.6,5.2-8,8.1
		c-0.2,0.4-0.5,0.6-0.8,0.9c-0.6,0.6-1.3,1.2-1.8,1.9c-3.3,4.2-5.8,8.9-7.6,13.9c-0.9,2.6-1.2,5.2-0.9,7.9c0.2,1.4,0.3,2.9,0.5,4.3
		c0,0.1,0,0.3-0.1,0.8c-0.9-1.7-2-3-1.9-4.7c0.1-2,0.4-4,0.7-6C107.2,209,107.5,208.5,107.7,208.1z M152.2,200.1
		c0-0.7,0.7-1.2,1.8-1.4c2.7-0.5,5.4-0.3,8.1-0.2c1,0,2.1,0,3.1-0.1c1.5-0.2,2.9-0.1,4.3,0.3c2,0.5,4,1.1,5.9,1.8
		c0.8,0.3,1.5,0.8,2.3,1.2c1,0.5,1.4,1.5,1.5,2.6c0.1,0.3-0.1,0.7-0.3,0.9c-0.6,0.6-1.2,1.1-1.9,1.6c0.1,1.7-0.8,2.4-2.4,1.8
		c-0.4-0.2-0.9-0.3-1.3-0.3c-1.9,0-3.7-0.4-5.5-1c-3.1-1-6.3-2-9.4-3c-1.1-0.4-1.9-1-1.8-2.4c-1-0.1-1.9-0.2-2.7-0.3
		C152.7,201.4,152.2,200.9,152.2,200.1z M144.9,239.9c0.6-1.8,1.2-3.7,1.9-5.7c5.1,0,10.1,0,15,0.1c0.1,0.9,0.2,1.9,0.4,2.9
		c0.1,0.6,0.3,1.3,0.4,1.9c0.1,0.6,0.2,1.3,0.2,1.9c0,1.1,0.3,1.6,1.2,1.7c1,0.2,1.7-0.3,1.8-1.3c0.3-2.2,0.8-4.4,0.3-6.6
		c0-0.2,0-0.4,0-0.7c4.8-0.3,9.5-0.5,14.2-0.8c-0.2,2.2,1.5,3.7,2.1,5.6c-0.3,0.1-0.7,0.3-1.1,0.4c0.8,1.3,1.5,2.5,2.2,3.7
		c0.1,0.3,0.3,0.6,0.3,0.9c0.8,4.5-0.4,8.5-3.6,11.8c-0.2,0.2-0.4,0.4-0.6,0.5c-3.1,1.8-6.2,3.6-9.7,4.5c-1,0.2-2,0.3-3,0.4
		c-4.6,0.3-9.1-0.1-13.4-1.8c-1.7-0.6-3.3-1.4-4.7-2.7c-1.2-1.1-2.4-2.2-3.5-3.4c-1.3-1.3-1.8-3-1.8-4.8
		C143.5,245.5,144.1,242.7,144.9,239.9z"/>
	<path d="M82.1,12c1.9,5.3,3.2,10.8,4.4,16.2c1,5.8,2.3,11.5,4.1,17.1c2.5,7.7,5.5,15.3,8.9,22.6c0.7,1.5,1.3,3.1,1.7,4.7
		c0.6,2.3,1.1,4.6,1.6,6.9c0.3,1.4,0.6,2.9,0.7,4.3c0.7,7.7,0.9,15.4,0.8,23.2c0,0.3,0.1,0.6,0.1,1.1c2.7-1.8,4-4.5,5.6-7
		c0.2,1,0.4,2,0.4,3c0.1,2.6,0.1,5.3,0.2,7.9c0,0.8,0.3,1.4,1.1,1.7c0.7,0.2,1.3-0.1,1.8-0.7c0.5-0.6,1-1.2,1.5-1.8
		c-0.2,2.2-0.9,4.2-1.6,6.1c1.7,1.1,3.3,2.2,4.9,3.2c0.4,0.2,0.9,0.3,1.4,0.3c9.1,0.2,18.3,0.4,27.4,0.6c1.7,0,3.3,0,5,0
		c0.8,0,1.4,0.2,1.9,0.9c0.7,0.9,1.5,1.9,2.4,2.7c0.6,0.5,1.2,1,1.4,1.9c0.1-0.7,0.1-1.4,0-2.1c-0.2-1.1-0.5-2.1-0.8-3.3
		c0.2,0,0.5,0,0.8,0c14-0.1,28-0.2,42-0.2c1.2,0,2.3-0.2,3-1.3c0-0.1,0.1-0.1,0.2-0.3c-0.2-0.4-0.4-0.7-0.3-1.1
		c-0.7-1.5-1.3-3-1.9-4.5c-0.2-0.6-0.3-1.2-0.2-1.8c0.1-1,0.7-1.2,1.4-0.5c0.8,0.8,1.5,1.7,2.2,2.6c0.5,0.5,0.9,1.1,1.4,1.8
		c0.3-0.6,0.5-1,0.7-1.5c0.5,1,0.8,1.8,1.3,2.7c0.1-0.3,0.2-0.3,0.2-0.4c-0.3-2.9-0.1-5.7,0.4-8.5c0.2-1,0.6-2,1.1-2.8
		c0.6-0.9,1.5-0.8,1.9,0.1c0.3,0.5,0.4,1,0.5,1.6c0.2,0.8,0.2,1.6,0.5,2.3c1.1,2.2,2.3,4.3,3.4,6.4c0.1,0.3,0.4,0.5,0.7,0.9
		c0.3-0.4,0.5-0.7,0.6-1c0.7-1.8,1.4-3.6,2.1-5.4c1.2-3.2,2.7-6.4,3.6-9.7c1.6-5.7,2.6-11.5,3.3-17.4c0.2-2.2,0.3-4.4,0.7-6.5
		c0.7-4.1,1.6-8.2,2.6-12.2c1.4-5.6,3.3-11,5.5-16.4c3-7.5,6.2-15.1,9.2-22.7c1.8-4.6,3.5-9.3,5.2-13.9c0.6-1.8,0.8-3.7,1-5.7h-11.2
		c-0.2,0.7-0.4,1.7-0.4,2.1c-1,5.2-2.3,10.3-3.9,15.3c-3.3,10.7-7.6,21.1-10.9,31.8c-2.5,8.1-5.2,16.1-7.2,24.3
		c-1.4,5.7-2.5,11.4-3.7,17.1c0,0.3-0.2,0.5-0.3,0.8c-0.5-0.5-0.8-1-1.2-1.4c-1.4-1.6-3.6-1.4-4.6,0.4c-1.1,2.1-2.5,4-3,6.4
		c0,0.1-0.1,0.2-0.3,0.5c-0.6-1.3-1.2-2.4-1.8-3.6c-0.8-1.4-1.9-2.1-3-2c-1.3,0.2-1.9,1-2.3,2.7c-0.8,3.1-0.6,6.2-0.6,9.4
		c0,0.5,0,0.9,0,1.4c-0.7-0.1-1.2-0.2-1.8-0.2c-1.1-0.1-2.2-0.6-3.4-0.2c-0.6,0.2-1.2,0.3-1.8,0.3c-3.4,0.2-6.7,0.3-10,0.5
		c-2.1,0.1-4.3,0.5-6.4,0.5c-8.2,0.1-16.4,0.2-24.6,0.3c-2.9,0-5.9-0.1-8.8,0.1c-4.8,0.3-9.6,0.2-14.4,0c-0.7,0-1.3,0-2.1,0
		c-0.1-2.5,0.6-5.1-2-6.6c0.5-2.6-0.7-4-3.4-4c-0.4-2-1.2-3.9-2.4-5.7c-0.2-0.3-0.2-0.7-0.4-1c-0.4-0.8-0.8-1.8-1.5-2.5
		c-1-0.9-1.5-1.9-1.2-3.2c0-0.1,0-0.2,0-0.3c-0.2-1.5,0.5-2.8,0.9-4.2c0.2-0.4,0.3-1,0.2-1.5c-0.2-1.2-0.4-2.4-0.7-3.6
		c-2.6-9-5.1-18-7.7-26.9c-1.6-5.4-3.4-10.7-5.9-15.7c-0.2-0.3-0.2-0.6-0.3-0.9c-0.2-1.1-0.3-2.1-0.6-3.2c-0.9-3.5-2-6.9-2.8-10.4
		c-1.2-5-2.3-10-3.4-15c-0.1-0.4,0-1.6-0.1-1.8H80.3c0.2,0.5,0.2,1.7,0.3,2.1C81.1,9.5,81.6,10.7,82.1,12z"/>
	<path d="M313.4,132.2c1.1-0.3,2.2-0.5,3.2-1.1c0.2-0.2,0.5-0.3,0.8-0.3s0.7,0.3,0.8,0.5c0.1,0.2,0,0.6-0.2,0.8
		c-0.2,0.3-0.5,0.4-0.8,0.6c-0.3,0.3-0.8,0.5-1,0.8c-1.8,2.5-3.1,5.4-4.1,8.3c-0.4,1.1,0.4,1.9,1.6,1.9c0.7,0,1.2-0.4,1.6-0.8
		c1.2-1.2,2.4-2.4,3.6-3.5c0.2-0.2,0.5-0.3,0.9-0.5c-0.8,1.5-1.4,2.6-2.1,3.8c-0.3,0.6-0.5,1.1-0.1,1.8c0.3-0.2,0.5-0.3,0.6-0.5
		c2.2-2.6,4.5-5.2,6.7-7.7v-25.4c0,0.1-0.1,0.1-0.1,0.2c-0.2-0.2-0.2-0.3-0.2-0.5c0.1-1.2,0.2-2.4,0.3-3.6V93.5
		c-1.8,4.1-3,8.4-3.8,12.8c-0.7,4.5-1.4,9.1-2.1,13.6c-0.4,2.8-0.3,2.9-2.2,5.1c-1.2,1.5-2.5,2.9-3.8,4.3c-0.1-0.1-0.2-0.2-0.3-0.3
		c0.2-0.8,0.4-1.5,0.6-2.3c0.3-1.5,0.9-2.9,1.9-4c0.4-0.5,0.8-1.1,1.2-1.7c0.4-0.5,0.5-1.1,0.1-1.6c-0.4-0.5-1.1-0.8-1.8-0.5
		c-0.4,0.2-0.8,0.5-1.2,0.8c-2.9,2.5-5.7,5-9,7c-3.7,2.2-7.6,3.8-11.9,4.2c-1.9,0.2-3.8,0.4-5.6-0.2c-1.8-0.6-3.6-1.2-5.4-1.9
		c-4.7-1.9-8.8-4.9-12.7-8.2c-3.4-2.8-5.5-6.2-6.9-10.2c-0.3-0.6-0.3-1.2-0.1-1.9c1-3.1,2.6-5.9,4.9-8.3c4.8-5,10-9.7,15.3-14.2
		c2.6-2.2,5.3-4.3,7.9-6.5c0.1-0.2,0.2-0.5,0.3-0.8c-0.3-0.1-0.6-0.4-0.9-0.3c-0.5,0.1-1,0.5-1.5,0.6c-2.2,0.6-4.3,1.7-6.2,3
		c-1.8,1.2-3.5,2.6-5.2,3.8c-0.4,0.3-1,0.5-1.5,0.7c-0.9,0.4-1.9,0.5-2.7,1c-3.7,2.3-6.9,5.2-9.5,8.7c-0.3,0.4-0.6,0.8-0.9,1.2
		c-0.1,0-0.1-0.1-0.2-0.1c1.2-2.7,2.3-5.4,4.3-7.7c3.7-4.2,7.3-8.3,11.8-11.6c1-0.7,1.9-1.6,3.1-1.9c0.8-0.2,1.2-0.7,1.2-1.5
		c0-0.5,0.1-0.8,0.5-1c2.8-2,5.4-4.3,8.9-5.2c0,0,0.2,0,0.2-0.1c0.2-0.2,0.5-0.5,0.5-0.8c0-0.3-0.4-0.7-0.6-0.7
		c-0.6,0-1.2,0-1.8,0.2c-4.7,1.2-8.7,3.6-12.5,6.5c-0.5,0.4-1,0.7-1.6,0.9c-4.5,1.7-8.5,4.1-11.5,7.9c-1.9,2.4-3.6,4.9-5.3,7.4
		c-0.2,0.3-0.4,0.6-0.8,1.1c-0.1-0.5-0.1-0.7-0.1-0.9c0.4-4.5,0.6-9,2.2-13.3c0.1-0.4,0.3-0.9,0.2-1.3c-0.1-0.3-0.4-0.7-0.7-0.8
		c-0.2,0-0.6,0.3-0.8,0.5c0.9-1.2,1.9-2.3,2.8-3.5c1.6-1.9,3.1-3.8,4.2-6c0.7-1.5,1.8-2.8,2.8-4.1c0.8-1.1,1.7-2.1,2.5-3.2
		c2.4-3.3,5.1-6.4,8.4-8.8c2.8-2.1,5.2-4.9,8.7-5.9c-0.5,0-1,0.1-1.5,0.3c-0.8,0.3-1.4,0.7-2.2,0.9c-3.4,0.8-6.4,2.6-9.1,4.7
		c-2.5,1.9-4.6,4.3-6.5,6.8c-1.6,2.1-3.3,4.2-4.9,6.3c1.2-4.9,1.5-9.9,3.8-14.4c0.6-1.2,1.1-2.4,1.8-3.5c1.7-2.5,3.9-4.6,6.4-6.3
		c1.7-1.2,3.4-2.2,5.1-3.3c1-0.7,2.2-1.1,3.5-1.2c0.3-0.1,0.6-0.2,1-0.3c-0.5-1-1.2-0.8-1.8-0.7c-1.4,0.2-2.7,0.4-4.1,0.7
		c-0.8,0.2-1.6,0.4-2.4,0.6c-0.3,0-0.6,0.1-0.9,0.2c0-0.2,0-0.3,0-0.4c0.1-0.2,0.2-0.4,0.3-0.5c3.4-5.3,7.3-10.1,13-13.1
		c0.5-0.3,1.1-0.5,1.3-1.2c-0.6-0.6-1.3-0.4-2-0.3c-1.5,0.2-2.9,0.8-4.2,1.7c-5,3.5-8.5,8.1-10.6,13.8c-0.5,1.3-1.3,2.1-2.7,2.9
		c3.5-10.1,9.3-18.6,16.6-26c-0.2-0.1-0.3-0.2-0.5-0.2c-2-0.6-3.9-1.2-5.9-1.7c-0.6,0.6-1.1,1.2-1.7,1.9c-5,6-9,12.5-11.7,19.8
		c-1.3,3.6-2.4,7.3-3.5,11c-3,9.5-5.3,19.2-6.7,29c-0.2,1.5-0.3,3.1-0.5,4.6c0.1,0,0.2,0,0.4,0.5c0.3-0.3,0.5-0.7,0.8-1
		c-0.1,0.1-0.1,0.4-0.2,0.6c-0.6,1.5-1.2,3-1.9,4.5c-0.8,1.6-1.6,3.2-1.9,5c-0.3,2.2-0.8,4.4-0.9,6.6c-0.2,5.5-0.2,10.9,0.5,16.3
		c0.3,1.6,0.5,3.3,1.6,4.4c0.8,0.8,1.3,1.8,1.8,2.8c1.4,2.7,2.9,5.4,5.7,7c0.2,0.1,0.4,0.3,0.6,0.5c3.1,2.6,6.1,5.3,9.6,7.3
		c0.8,0.5,1.6,0.8,2.1,1.7c0.1,0.2,0.6,0.4,0.9,0.5c1,0.5,2,1,3,1.4c1.5,0.7,3,1.4,4.6,1.9c2.8,0.9,5.6,0.9,8.5,0.8
		c0.4,0,0.9,0,1.4,0.1c2.4,0.6,4.6,0.3,6.7-0.9c1.6-0.9,3-2,4.5-3c0.2-0.2,0.5-0.4,1-0.7c-0.8,1.5-1.5,2.7-2.1,4
		c0,0.1,0.1,0.1,0.2,0.2c1.2-0.6,2.4-1.3,3.7-1.8C310,133.5,311.7,132.7,313.4,132.2z"/>
	<path d="M89.9,154.2c-0.8-2-2.2-3.6-4.3-4.3c-1.6-0.6-3.2-1-4.9-1.3c-1.6-0.3-3.2-0.4-4.8-0.5c-1.6-0.1-3.1,0.1-4.6,0.8
		c-3.2,1.4-5.6,3.5-7.7,6.2c-1.4,1.9-2.3,4.1-3.1,6.3c-0.4,1.3-1,2.5-1.1,3.8c-0.3,2.5-0.4,5.1-0.5,7.6c-0.1,1.3,0.3,2.4,0.9,3.4
		c0.7,1.2,1.4,2.3,2.1,3.5c0.4,0.6,0.8,1.2,1.3,1.8c1.7,2.1,4,3.4,6.2,4.8c0.5,0.3,1.1,0.5,1.7,0.6c3.1,0.5,6.2,0.9,9.2-0.2
		c0.2-0.1,0.4-0.1,0.6-0.1c2.2,0.1,3.9-0.8,5.7-1.8c1.3-0.7,2.2-1.7,2.8-2.9c0.5-1,1.2-2,1.8-3c1.9-3,1.9-3,1.9-6.6
		c0-0.5,0-1.1,0-1.7c0.2-3.9-0.3-7.9-1.5-11.9C91.1,157.2,90.5,155.7,89.9,154.2z"/>
	<path d="M241,177.9c2.6,4.1,6.2,6.9,11.2,7.3c1.8,0.2,3.8,0.3,5.6,0c2.9-0.4,5.5-1.6,7.8-3.3c3.3-2.5,5.9-5.5,6.8-9.6
		c0.4-1.8,0.4-3.7,0.6-5.6c0.1-2.8-0.5-5.5-1.6-8c-0.5-1.2-1-2.3-1.5-3.5c-1.5-3.4-4.1-5.6-7.6-6.8c-3-1-6-1-9.1-1
		c-2.1,0.1-4,0.6-5.7,1.7c-1.4,0.9-2.9,1.8-4.3,2.9c-2.7,2.1-4.7,4.8-5.3,8.3c-0.6,3.2-0.6,6.5-0.4,9.8c0.1,1,0.4,2.1,0.9,3.1
		C239.2,174.8,240.1,176.4,241,177.9z"/>
	<path d="M17.9,127.5c0.3,0.1,0.7,0.1,1.1,0.2c0.6,0.1,1.3,0.1,1.9,0.3c1.1,0.4,2.2,0.8,3.3,1.2c2.1,0.8,4.2,0.8,6.4,0.2
		c1.9-0.6,3.6-0.5,5.3,0.6c0.9,0.6,1.8,0.9,2.8,1.2c0.7,0.3,1.5,0.3,2.3,0.3c0.6,0,1.1-0.1,1.3-0.8c0.2-0.7-0.2-1-0.7-1.3
		c-0.7-0.4-1.4-0.7-2.1-1.1c-0.3-0.1-0.6-0.3-0.7-0.5c-0.4-0.7-0.7-1.3-1-2c-0.2-0.5-0.3-1-0.5-1.7c2.2,0.7,4.1,1.2,5.9,2.4
		c1.9,1.3,4,2.3,6,3.3c0.7,0.4,1.6,0.6,2.3,0.2c0.5-0.3,0.8-0.8,1.2-1.3c0.9,0,1.9,0,2.9-0.2c1.8-0.4,3.5-0.9,5.3-1.4
		c2.9-0.8,5.5-2.2,7.8-4.2c3.7-3.3,6.2-7.4,7.7-12c0.8-2.4,0.6-4.9,0-7.3c-0.2-0.9-1-1.4-1.8-1.4c-0.9,0-1.5,0.6-1.6,1.6
		c-0.1,0.7-0.1,1.5-0.2,2.2c-0.2,1.5-0.3,3-0.9,4.4c-0.6,1.4-1.4,2.8-2.1,4.2c-0.1,0.3-0.4,0.4-0.6,0.7c-0.1-0.5-0.1-1-0.2-1.4
		c-0.2-0.6-0.6-0.9-1.2-0.8c-0.6,0.1-0.7,0.5-0.7,1c0,0.8-0.4,1.4-0.9,2c-1.5,1.9-3.5,3.3-5.7,4.5c-0.3,0.1-0.6,0.2-1,0.4
		c0.1-0.4,0.2-0.7,0.3-1c0.3-1.5,0.7-3,1-4.5c0.3-1.4-0.3-2.7-0.6-4c-0.1-0.6-0.6-0.9-1.2-0.8c-0.6,0.1-0.8,0.6-0.7,1.2
		c0.1,0.3,0,0.7-0.1,1.1c-0.2,0.8-0.4,1.6-0.7,2.3c-0.7,2-1.4,3.9-2.1,5.9c-0.3,0.8-0.8,1.1-1.7,1.1c-1.8,0-3.6,0-5.4,0
		c-2.8,0-5.4-0.5-8-1.4c-2.7-0.9-5.1-2.3-7.3-4c-1.7,0.8-2.1,1.4-1.7,3.1c0.1,0.4,0.2,0.9,0.2,1.3c0,1.3-0.6,1.7-1.6,0.9
		c-0.9-0.7-1.6-1.6-2.4-2.4c-0.6-0.7-1.2-0.8-2-0.3c-0.9,0.7-1.2,2.2-0.5,3.3c0.3,0.5,0.6,0.9,1.1,1.5c-0.6-0.1-1-0.2-1.4-0.4
		c-3.5-0.8-6.9-2.1-10.2-3.4c-0.6-0.2-0.9-0.6-1.1-1.1c-0.9-2.2-2-4.5-2.7-6.8C9.4,108.3,8.2,104,7,99.8v53.2
		c0.9,0.2,1.7,0.5,2.6,0.7c1.2,0.3,2.3,0.3,3.4-0.1c0.9-0.4,1.9-0.8,2.8-1.3c0.6-0.3,0.6-1,0.2-1.5c-0.3-0.2-0.5-0.4-0.8-0.5
		c-1.3-0.8-2.7-1.5-4-2.3c-1-0.7-1.9-1.5-3-2.3c1.7-1.2,3.3-2.3,4.8-3.3c-1.4-0.9-2.7-1.5-3.8-2.4c-0.5-0.4-0.9-1.1-1.2-1.8
		c-0.3-0.6,0.1-1.2,0.7-1.3c1.2-0.2,2.4-0.5,3.6-0.5c3.1-0.1,6.2-0.1,9.3-0.1c0.4,0,0.8-0.1,1.2-0.1c-1.4-1.1-2.8-1.9-4.2-2.8
		c0,0,0.1-0.1,0.1-0.2c0.7,0.1,1.3,0.2,2,0.3c-0.8-1-1.7-1.8-2.6-2.6c-1.1-0.8-2.2-1.6-3.3-2.5c-0.6-0.5-1.1-1-1.2-2
		c0.6,0.1,1.1,0.1,1.6,0.2C16.1,126.8,17,127.2,17.9,127.5z M7.9,116.1c0.1,0.4,0.3,0.8,0.5,1.2C7.8,117.1,7.8,116.6,7.9,116.1z"/>
	<path d="M59.9,23.9c-0.6-0.7-1.3-1.2-2.1-1.6c-0.7-0.4-1.4-0.4-2,0.3c0.1,0.2,0.1,0.3,0.2,0.4c1.8,1.8,2.9,4,3.9,6.3
		c2,4.3,3.7,8.8,5,13.4c0,0.3,0.1,0.6,0.1,0.8c-0.9-0.8-1.7-1.6-2.6-2.4c-4.9-4.5-10.8-7.2-17.1-9.1c-2-0.6-4-0.5-6,0
		c-0.2,0.1-0.5,0.2-0.7,0.3c-0.4,0.3-0.4,0.8,0.1,1c0.4,0.2,0.9,0.2,1.3,0.3c1.3,0.2,2.6,0.1,3.8,0.5c2.4,0.7,4.7,1.5,7,2.5
		c4.3,1.8,8.2,4.3,11.4,7.6c1.6,1.7,3.2,3.4,4.4,5.4c0.8,1.2,0.9,3,1.2,4.5c0.6,2.8,1.1,5.5,1.7,8.2c-0.3-0.1-0.4-0.3-0.5-0.5
		c-1-1.8-2-3.6-3.1-5.3C63,52.2,59.2,48.8,55,45.8c-1.6-1.2-3.4-2.2-5.1-3.2c-1-0.6-2.1-0.8-3.5-0.7c1.1,1.4,2.3,2.3,3.6,3.1
		c4.9,3.2,9.2,7.1,12.5,11.8c1.6,2.1,3,4.2,4.4,6.4c0.6,0.9,1.2,1.9,1.6,2.9c0.4,0.8,0.7,1.5,1.8,1.3c0.5,2,0.9,3.8,1.3,5.5
		c0.4,1.7,0.8,3.3,1.1,4.9c0.2,1.1,0.2,2.2,0.4,3.3c0.1,0.6,0.4,0.8,1,0.8c0.5-0.1,0.8-0.4,0.8-1c0-0.4-0.1-0.8-0.1-1.2
		c-0.2-1.7-0.4-3.5-0.5-5.2c-0.1-1.5,0-3-0.2-4.5c-0.7-6.6-1.7-13.1-3.2-19.6c-1.5-6.9-3.5-13.7-6.7-20C63,28.1,61.7,25.8,59.9,23.9
		z"/>
	<path d="M274.7,304.2c2.8-0.3,5.2-2.1,8.1-2.1c0.2,0,0.5-0.3,0.5-0.5s-0.1-0.6-0.3-0.6c-0.5-0.1-1-0.2-1.5-0.2
		c-0.7,0-1.4,0.1-2.1,0.1c-1,0-1.9-0.1-2.9-0.1c-2.8,0.2-5.5,0.5-8.3,0.5c-5.2,0.1-10.3,0.1-15.4,0c-2.8-0.1-5.7-0.2-8.6-0.6
		c-3.9-0.6-7.8-1.3-11.7-2.1c-4.8-1-9.5-2.4-13.8-4.9c-0.4-0.2-0.8-0.4-1.2-0.5c-0.6-0.2-1.2-0.2-1.8,0.6c0.5,0.5,0.9,1.1,1.4,1.4
		c4.3,3.9,9.4,6,14.9,7.5c7.5,2,15.2,2.8,23,2.8c3.2,0,6.5-0.2,9.7-0.2C268.1,305.3,271.4,304.7,274.7,304.2z"/>
	<path d="M323.2,199.9c-2.1-0.8-4.2-1.5-6.3-2.3c-0.6-0.2-1.3-0.2-2-0.1c3.3,7.1,5.9,14.5,9.7,21.3c0.1,0,0.3,0,0.3-0.2v-18.1
		C324.2,200.3,323.7,200.1,323.2,199.9z"/>
	<path d="M324.9,200.2v-7c-2.2-0.3-4.3-0.7-6.7-1.1C320.8,194.5,323.1,197,324.9,200.2z"/>
	<path d="M73.3,94.8c0.1-1.2,0.1-2.1-0.5-3.1c-0.5-0.7-1-1.5-1.5-2.3c-0.4-0.8-1.1-1.4-1.9-1.9c-6.9-4-13.8-8.1-20.7-12.1
		c-2.2-1.3-4.5-2.4-7-3.2C41.1,72,40.5,72,39.9,72c-0.4,0.1-0.9,0.4-0.8,0.9c0,0.5,0.4,0.7,0.9,0.7c0.8-0.1,1.4,0.4,2,0.8
		c0.8,0.6,1.5,1.1,2.3,1.6c9.1,6.3,18.4,12.4,27.9,18.2C72.5,94.4,72.9,94.6,73.3,94.8z"/>
	<path d="M12.7,109.3c0.3,0,0.6,0,1,0c0,1.1,0,2,0,3s0.2,1.9,0.7,2.8c0.6,1.2,1.1,2.4,1.9,3.4c0.3,0.4,0.6,0.8,1.1,0.7
		c0.6-0.1,0.9-0.5,1-1.1c0.1-0.9,0.1-1.7-0.2-2.6c-0.4-1-0.6-2.1-0.6-3.1c-0.1-1.8,0-3.7,0-5.6c0-1.1,0.1-2.3,0-3.4
		c-0.1-1.5-1.4-2.4-2.8-1.8c-0.3,0.1-0.6,0.4-1.2,0.7c-0.1-2.4-0.1-4.6-0.2-6.8c0-0.7,0-1.4-0.1-2c-0.2-1.1-0.9-1.7-1.8-1.6
		c-0.8,0-1.4,0.6-1.5,1.6c-0.1,1.1-0.1,2.2-0.1,3.3c-0.1,3.5,0.1,7,0.6,10.5C10.8,108.7,11.3,109.2,12.7,109.3z"/>
	<path d="M33.7,86.7c0.4,0.1,0.8,0.1,1.2,0.2c0.8,0.2,1.6,0.3,2.4,0.6c2,0.7,3.9,1.6,5.9,2.3c6.4,2.3,12.9,4.5,19.4,6.8
		c0.8,0.3,1.6,0.6,2.5,0.8c0.9,0.2,1.6-0.2,1.8-0.8c0.2-0.8-0.2-1.3-0.7-1.6c-1.3-0.8-2.5-1.7-3.8-2.3c-4.1-2-8.4-3.1-12.7-4.5
		c-5.1-1.6-10.3-2.6-15.6-2.8c0,0-0.1,0-0.3,0.1c-0.4,0-0.8,0.1-0.8,0.6C33,86.3,33.4,86.6,33.7,86.7z"/>
	<path d="M310.4,174.3c-0.2-0.1-0.3-0.3-0.5-0.4c-0.3-0.2-0.7-0.5-1-0.1c-0.1,0.2-0.1,0.6,0,0.9c0.1,0.4,0.4,0.8,0.7,1.2
		c0.2,0.3,0.4,0.5,0.5,0.8c0.4,1.5,1.4,2.6,2.5,3.6c3.2,3,6.6,5.6,10.7,7.2c0.5,0.2,1.1,0.4,1.6,0.5v-5.9
		C319.6,180.5,314.8,177.8,310.4,174.3z"/>
	<path d="M289,92c-0.8,0.2-1.5,0.7-2.3,0.9c-2.7,0.7-5,2-7.3,3.5c-3.4,2.2-6.5,4.8-8.8,8.2c-0.5,0.8-0.9,1.7-1.1,2.6
		c-0.3,0.9,0.4,1.5,1.3,1.5c0.8,0,1.3-0.6,1.9-1c2.6-3.4,5.7-6.3,9.3-8.6c2.8-1.9,5.4-4.4,8.6-5.7c0.2-0.1,0.4-0.5,0.4-0.7
		c-0.1-0.3-0.4-0.7-0.6-0.8C289.9,91.8,289.4,91.9,289,92z"/>
	<path d="M324.6,239.7c-4.2,0-8.1-1.6-12.2-2c4.5,4.6,8.4,9.6,11.6,15.2c-0.2-0.6-0.3-1.2-0.5-1.9c0.5,0.4,0.8,0.6,1.3,1
		C324.7,247.8,324.7,243.8,324.6,239.7z"/>
	<path d="M77.5,320.9c0.6-0.2,1.1-0.6,0.9-1.4c0.3-0.1,0.5-0.1,0.7-0.2c0.4-0.2,0.8-0.5,0.6-1c-0.1-0.4-0.5-0.7-0.8-0.9
		c-0.2-0.2-0.5-0.1-0.8-0.1c-1.5,0.2-2.9,0.3-4.3,0.6c-3.5,0.7-6.6,2.3-9.5,4.1c-1.4,0.9-2.8,1.9-4.1,3c1.5,0.2,3,0.3,4.6,0.4
		c0.9-0.5,1.7-1,2.6-1.5c0.5-0.3,1.2-0.4,1.8-0.6C72,322.5,74.7,321.7,77.5,320.9z"/>
	<path d="M15.2,235.6c0.7-0.1,1.5,0.1,2.3,0.1c0.4,0,0.8,0.1,1.2,0.1c0.2,0,0.4-0.3,0.8-0.5c-0.9-0.8-1.7-1.4-2.5-2
		c-0.9-0.8-1.9-1.2-3-1.2c-2,0-3.4-1.1-4.9-2.3c0.8-0.7,1.8-0.8,2.7-1c1.5-0.3,2.9-0.7,4.4-1.1c0.4-0.1,0.9-0.4,1.3-0.6
		c0-0.1-0.1-0.2-0.1-0.3c-3.3,0-6.7,0-10.2,0c-0.1,0.5-0.1,1.1-0.2,1.6v6C9.7,235.2,12.3,235.7,15.2,235.6z"/>
	<path d="M47.9,102.3c1.6,0.2,3.2,0.4,4.7,1.1c0.9,0.4,1.9,0.8,2.9,1.1c3.8,1,7.7,2,11.5,3c0.4,0.1,0.9,0.2,1.3,0.2
		c0.7,0,1.4-0.4,1.6-0.9c0.3-0.7-0.1-1.2-0.6-1.6c-0.8-0.6-1.6-1.2-2.5-1.5c-3.9-1.5-8-2.3-12.2-2.3c-2.1,0-4.2,0.4-6.3,0
		c-0.3-0.1-0.7-0.1-1,0c-0.2,0-0.3,0.2-0.5,0.3c0.1,0.1,0.1,0.2,0.1,0.5C47.3,102.2,47.6,102.3,47.9,102.3z"/>
	<path d="M106.3,299.8c1.1-0.1,2.2-0.3,3.3-0.6c0.3,0,0.7-0.5,0.7-0.8s-0.3-0.7-0.6-0.9c-0.5-0.3-1-0.4-1.6-0.5
		c-2.1-0.3-4.3-0.4-6.5-0.1c-4.1,0.5-8,1.6-11.8,3.3c-0.3,0.1-0.7,0.3-0.8,0.6c-0.1,0.3-0.2,0.9-0.1,1.2c0.1,0.3,0.6,0.5,0.8,0.6
		c0.3,0,0.4,0,0.3-0.2c1.3-0.3,2.5-0.6,3.8-0.9c2.2-0.5,4.4-0.9,6.6-1.2C102.4,300.1,104.3,300,106.3,299.8z"/>
	<path d="M266.2,309.2c1.3,0.1,2.6,0.2,3.8,0.4c2.8,0.5,5.5,1.2,8.3,1.8c1.7,0.4,3.4,0.8,5.1,1c0.7,0.1,1.3,0,1.9,0.7
		c0.5-0.5,0.6-0.9,0.3-1.1c-1.2-1.2-2.5-2.3-4.1-2.8c-3.7-1.2-7.4-2.1-11.3-2.5c-1.6-0.2-3.1,0.2-4.7,0.4c-0.7,0.1-1.2,0.4-1.4,1.2
		C264.6,309.1,265.4,309.1,266.2,309.2z"/>
	<path d="M19.8,34.6c-0.2,0.4-0.3,0.8,0.1,1.1c0.5,0.3,0.9,0.1,1.2-0.2c0.1-0.2,0.2-0.3,0.4-0.5c1.3-1.2,2.6-2.5,3.9-3.7
		c1.2-1.1,2.4-2.1,3.6-3.1c1.9-1.6,3.8-3.2,5.7-4.8c1.2-1,2.5-1.9,3.7-2.9c0.7-0.6,1.3-1.3,2-1.9c-0.1-0.1-0.1-0.2-0.1-0.4
		c-0.3,0-0.6,0-0.9,0.1c-1.1,0.5-2.3,1-3.3,1.6c-5.6,3.3-10.2,7.8-14.8,12.3C20.6,32.8,20.3,33.8,19.8,34.6z"/>
	<path d="M45.3,19.9c-0.8,0.3-1.6,0.6-2.4,1c-3.3,1.6-6.3,3.6-9.2,5.8c-0.8,0.5-1.4,1.3-1.9,2.1c-0.4,0.6,0.1,1.2,0.8,1.1
		c0.5-0.1,1-0.3,1.4-0.6c4.4-2.8,8.8-5.7,13.2-8.5c0.2-0.1,0.4-0.3,0.7-0.6C47,19.5,46.1,19.7,45.3,19.9z"/>
	<path d="M275.7,314.5c-1.6,0.3-3.1,0.5-4.6,0.8c-0.5,0.1-1,0.4-1,1c0,0.6,0.5,0.9,1,1c1,0.2,2.1,0.4,3.1,0.5c1.5,0.2,3,0.4,4.5,0.6
		c1.3,0.2,2.6,0.7,4,0.2c0.2-0.1,0.5,0.1,0.7,0.1c0.3,0,0.8,0,0.9-0.2c0.1-0.2,0-0.7-0.2-0.9c-1.2-1-2.5-2.1-4.2-2.4
		C278.5,315,277.1,314.7,275.7,314.5z"/>
	<path d="M94.4,310.5c-0.9,0-1.7,0.1-2.6,0.2c-3.9,0.6-7.5,2.2-11.3,2.8c-0.5,0-1.1,0.2-1,0.8c0.1,0.6,0.8,0.3,1.2,0.3
		c1.2,0,2.4-0.1,3.6-0.1c0.9,0,1.7,0.2,2.6,0.3c2.5-0.1,4.8-0.8,7.3-1.6c0.3,0,0.6-0.2,0.8-0.4c0.5-0.3,0.9-0.7,0.7-1.4
		C95.5,310.8,95,310.5,94.4,310.5z"/>
	<path d="M318.7,173.7c0.2,1.3,1.2,1.6,2.2,1.8c1.3,0.3,2.7,0.4,4,0.1v-4.9c-0.7,0.3-1.4,0.6-2.2,0.9
		C321.2,172.1,320.1,173.1,318.7,173.7z"/>
	<path d="M215.7,278.7c-0.5,0.3-1.2,0.4-1.9,0.6c-2.6,1.4-4.6,3.3-6.6,5.4c-0.2,0.3-0.4,0.6-0.5,0.9c-0.3,1.2,0.5,2,1.6,1.7
		c0.5-0.2,0.9-0.4,1.3-0.7c1.2-1,2.4-2.1,3.6-3.1s2.5-2,3.7-3c0.3-0.2,0.6-0.5,0.6-0.7c-0.1-0.3-0.4-0.6-0.7-0.8
		C216.6,278.8,216.2,278.8,215.7,278.7z"/>
	<path d="M8.5,212.7c2.3-3.3,4.6-6.4,6.9-9.5c-0.6,0.1-1,0.4-1.4,0.7c-0.8,0.6-1.7,1.1-2.7,1.2c-0.4,0-0.8-0.1-1.1-0.3
		c-0.4-0.3-0.4-0.8-0.1-1.2c0.4-0.7,0.9-1.3,1.4-1.9c0.8-0.9,1.7-1.6,2.6-2.4v0c-1.6,1.2-3.6,1.4-5.6,1.8
		C8.5,205,8.5,208.8,8.5,212.7z"/>
	<polygon points="14.1,199.3 14.1,199.3 14.1,199.3 	"/>
	<path d="M14.1,199.3C14.1,199.2,14,199.1,14.1,199.3L14.1,199.3z"/>
	<path d="M296.3,18c-0.3-0.3-0.3-0.3-0.4-0.2c-0.1,0-0.3,0-0.4,0c-1.7,0.3-3.3,1.1-4.6,2.3c-1.7,1.5-3.3,2.9-4.9,4.4
		c-0.4,0.4-0.7,0.8-1,1.2c-0.3,0.4-0.5,0.9-0.1,1.4c0.4,0.4,0.9,0.6,1.5,0.3c0.5-0.2,0.9-0.6,1.3-0.9c2.1-1.9,4.1-3.7,6.1-5.6
		C294.7,20,295.4,19,296.3,18z"/>
	<path d="M317.2,232.9c-0.6,0-1.2,0.1-1.7,0.2c-0.5,0.2-0.8,0.5-0.7,1c0.1,0.4,0.4,0.7,0.7,0.9c0.4,0.2,1,0.2,1.4,0.4
		c2.1,1.1,4.4,1.2,6.7,1.2c0.4,0,0.7-0.1,1.2-0.2c0-1.5,0-3,0-4.6c-0.8,0.2-1.5,0.5-2.2,0.6C320.9,232.8,319,232.9,317.2,232.9z"/>
	<path d="M43.6,26.9c-0.3,0.3-0.8,0.6-0.8,0.9c-0.1,0.3,0.3,0.8,0.6,1c0.6,0.3,1.4,0.4,1.9,0.5c0.9-0.2,1.8-0.3,2.6-0.3
		c2.4-0.4,4.9-0.9,7.3-1.4c0.4-0.1,0.8-0.3,0.9-0.8c0.1-0.6-0.3-0.9-0.8-1c-1.2-0.2-2.4-0.4-3.6-0.3c-2.7,0.3-5.4,0.9-8,1.4H43.6z"
		/>
	<path d="M13,184.5c-1.5,1.3-2.9,2.6-4.4,3.9c-0.2,0.2-0.4,0.5-0.4,0.7c0,1.7,0.1,3.4,0.1,5.1c0.1,0,0.2,0,0.2,0
		c3-3.1,5.4-6.6,7.5-10.5C14.8,183.6,13.8,183.8,13,184.5z"/>
	<path d="M292.5,31.2c0.2-0.1,0.4-0.3,0.6-0.5c0.9-0.7,1.7-1.5,2.6-2.2c1.6-1.1,3.1-2.1,4.7-3.2c0.7-0.5,1.4-0.9,1.8-1.9
		c-0.8-1-1.7-0.6-2.6-0.3c-2.9,1.1-5.3,2.9-7.6,4.9c-0.6,0.5-0.9,1.2-1.3,1.8c-0.2,0.4-0.2,0.9,0.3,1.3
		C291.5,31.5,292,31.5,292.5,31.2z"/>
	<path d="M9.2,162.6c-0.7,0.8-1.4,1.6-2.2,2.4v4.3c1.8-3.1,3.6-6.1,5.5-9.4c-0.6,0.3-0.9,0.5-1.2,0.7
		C10.6,161.3,9.9,161.9,9.2,162.6z"/>
	<path d="M324.4,146.3c0.2,0.1,0.3,0.3,0.5,0.4v-1C324.7,145.9,324.6,146.1,324.4,146.3z"/>
	<path d="M98.2,306.7c-0.1-0.1-0.2-0.2-0.4-0.1c-1.8,0-3.5,0.8-5.3,1.1c-0.1,0-0.2,0-0.2,0.1c-0.1,0.3-0.2,0.6-0.3,0.9
		c0.3,0.1,0.5,0.2,0.8,0.2c0.9-0.2,1.9-0.3,2.8-0.5c0.7-0.2,1.4-0.4,2.1-0.7C98.2,307.6,98.5,307.3,98.2,306.7z"/>
</g>
<path fill="none" stroke="#000000" stroke-width="5" stroke-miterlimit="10" d="M324.9,264.3c0,33.8-27.2,61.2-60.9,61.2H67.9
	C34.3,325.5,7,298.1,7,264.3V67.2C7,33.4,34.3,6.1,67.9,6.1H264c33.6,0,60.9,27.4,60.9,61.2V264.3z"/>
</svg>
