<?xml version="1.0" encoding="UTF-8" standalone="no"?>
<!DOCTYPE svg PUBLIC "-//W3C//DTD SVG 1.1//EN" "http://www.w3.org/Graphics/SVG/1.1/DTD/svg11.dtd">
<svg viewBox="0 0 1800 1800" version="1.1" xmlns="http://www.w3.org/2000/svg">
	<path stroke-miterlimit="1.5" fill="#ebebeb" stroke="#000" stroke-width="4" d="m609.386 609.386c3.105-3.187 6.401-6.318 9.879-9.386-17.33-15.288-30.136-32.122-37.455-50 7.319-17.878 20.125-34.712 37.455-50-17.33-15.288-30.136-32.122-37.455-50 7.319-17.878 20.125-34.712 37.455-50-17.33-15.288-30.136-32.122-37.455-50 7.319-17.878 20.125-34.712 37.455-50-17.33-15.288-30.136-32.122-37.455-50 7.319-17.878 20.125-34.712 37.455-50-17.33-15.288-30.136-32.122-37.455-50 31.17-76.142 161.876-133.341 318.19-133.341 156.314 0 287.02 57.199 318.19 133.341-7.319 17.878-20.125 34.712-37.455 50 17.33 15.288 30.136 32.122 37.455 50-7.319 17.878-20.125 34.712-37.455 50 17.33 15.288 30.136 32.122 37.455 50-7.319 17.878-20.125 34.712-37.455 50 17.33 15.288 30.136 32.122 37.455 50-7.319 17.878-20.125 34.712-37.455 50 17.33 15.288 30.136 32.122 37.455 50-7.319 17.878-20.125 34.712-37.455 50 3.478 3.068 6.774 6.199 9.879 9.386 3.187 3.105 6.318 6.401 9.386 9.879 15.288-17.33 32.122-30.136 50-37.455 17.878 7.319 34.712 20.125 50 37.455 15.288-17.33 32.122-30.136 50-37.455l0.446 0.184c17.713 7.351 34.395 20.09 49.554 37.271 15.288-17.33 32.122-30.136 50-37.455 17.878 7.319 34.712 20.125 50 37.455 15.288-17.33 32.122-30.136 50-37.455 17.878 7.319 34.712 20.125 50 37.455 15.288-17.33 32.122-30.136 50-37.455 76.142 31.17 133.341 161.876 133.341 318.19 0 156.314-57.199 287.02-133.341 318.19-17.878-7.319-34.712-20.125-50-37.455-15.288 17.33-32.122 30.136-50 37.455-17.878-7.319-34.712-20.125-50-37.455-15.288 17.33-32.122 30.136-50 37.455-17.878-7.319-34.712-20.125-50-37.455-15.161 17.186-31.842 29.923-49.554 37.271l-0.446 0.184c-17.878-7.319-34.712-20.125-50-37.455-15.161 17.186-31.842 29.923-49.554 37.271l-0.446 0.184c-17.878-7.319-34.712-20.125-50-37.455-3.068 3.478-6.199 6.774-9.386 9.879-3.105 3.187-6.401 6.318-9.879 9.386 17.33 15.288 30.136 32.122 37.455 50-7.319 17.878-20.125 34.712-37.455 50 17.33 15.288 30.136 32.122 37.455 50l-0.184 0.446c-7.351 17.713-20.09 34.395-37.271 49.554 17.33 15.288 30.136 32.122 37.455 50-7.319 17.878-20.125 34.712-37.455 50 17.33 15.288 30.136 32.122 37.455 50-7.319 17.878-20.125 34.712-37.455 50 17.33 15.288 30.136 32.122 37.455 50-31.17 76.142-161.876 133.341-318.19 133.341-156.314 0-287.02-57.199-318.19-133.341 7.319-17.878 20.125-34.712 37.455-50-17.33-15.288-30.136-32.122-37.455-50 7.319-17.878 20.125-34.712 37.455-50-17.33-15.288-30.136-32.122-37.455-50 7.319-17.878 20.125-34.712 37.455-50-17.186-15.161-29.923-31.842-37.271-49.554l-0.184-0.446c7.319-17.878 20.125-34.712 37.455-50-17.186-15.161-29.923-31.842-37.271-49.554l-0.184-0.446c7.319-17.878 20.125-34.712 37.455-50-3.478-3.068-6.774-6.199-9.879-9.386-3.187-3.105-6.318-6.401-9.386-9.879-15.288 17.33-32.122 30.136-50 37.455-17.878-7.319-34.712-20.125-50-37.455-15.288 17.33-32.122 30.136-50 37.455-17.878-7.319-34.712-20.125-50-37.455-15.288 17.33-32.122 30.136-50 37.455-17.878-7.319-34.712-20.125-50-37.455-15.288 17.33-32.122 30.136-50 37.455-17.878-7.319-34.712-20.125-50-37.455-15.288 17.33-32.122 30.136-50 37.455-76.142-31.17-133.341-161.876-133.341-318.19 0-156.314 57.199-287.02 133.341-318.19 17.878 7.319 34.712 20.125 50 37.455 15.288-17.33 32.122-30.136 50-37.455 17.878 7.319 34.712 20.125 50 37.455 15.288-17.33 32.122-30.136 50-37.455 17.878 7.319 34.712 20.125 50 37.455 15.288-17.33 32.122-30.136 50-37.455 17.878 7.319 34.712 20.125 50 37.455 15.288-17.33 32.122-30.136 50-37.455 17.878 7.319 34.712 20.125 50 37.455 3.068-3.478 6.199-6.774 9.386-9.879zm306.016 78.976c-10.254-0.746-20.55-0.746-30.804 0l-5.094 32.439c-9.858 1.127-19.606 3.066-29.144 5.797l-17.12-28.02c-9.76 3.235-19.272 7.175-28.46 11.789l7.707 31.918c-8.676 4.814-16.939 10.336-24.707 16.509l-26.539-19.336c-7.779 6.724-15.059 14.004-21.783 21.783l19.336 26.539c-6.173 7.768-11.695 16.031-16.509 24.707l-31.918-7.707c-4.614 9.188-8.554 18.7-11.789 28.46l28.02 17.12c-2.731 9.538-4.67 19.286-5.797 29.144l-32.439 5.094c-0.746 10.254-0.746 20.55 0 30.804l32.439 5.094c1.127 9.858 3.066 19.606 5.797 29.144l-28.02 17.12c3.235 9.76 7.175 19.272 11.789 28.46l31.918-7.707c4.814 8.676 10.336 16.939 16.509 24.707l-19.336 26.539c6.724 7.779 14.004 15.059 21.783 21.783l26.539-19.336c7.768 6.173 16.031 11.695 24.707 16.509l-7.707 31.918c9.188 4.614 18.7 8.554 28.46 11.789l17.12-28.02c9.538 2.731 19.286 4.67 29.144 5.797l5.094 32.439c10.254 0.746 20.55 0.746 30.804 0l5.094-32.439c9.858-1.127 19.606-3.066 29.144-5.797l17.12 28.02c9.76-3.235 19.272-7.175 28.46-11.789l-7.707-31.918c8.676-4.814 16.939-10.336 24.707-16.509l26.539 19.336c7.779-6.724 15.059-14.004 21.783-21.783l-19.336-26.539c6.173-7.768 11.695-16.031 16.509-24.707l31.918 7.707c4.614-9.188 8.554-18.7 11.789-28.46l-28.02-17.12c2.731-9.538 4.67-19.286 5.797-29.144l32.439-5.094c0.746-10.254 0.746-20.55 0-30.804l-32.439-5.094c-1.127-9.858-3.066-19.606-5.797-29.144l28.02-17.12c-3.235-9.76-7.175-19.272-11.789-28.46l-31.918 7.707c-4.814-8.676-10.336-16.939-16.509-24.707l19.336-26.539c-6.724-7.779-14.004-15.059-21.783-21.783l-26.539 19.336c-7.768-6.173-16.031-11.695-24.707-16.509l7.707-31.918c-9.188-4.614-18.7-8.554-28.46-11.789l-17.12 28.02c-9.538-2.731-19.286-4.67-29.144-5.797z"/>
</svg>
