<?xml version="1.0" encoding="utf-8"?>
<!-- Generator: Adobe Illustrator 24.2.0, SVG Export Plug-In . SVG Version: 6.00 Build 0)  -->
<svg version="1.1" id="Layer_1" xmlns="http://www.w3.org/2000/svg" xmlns:xlink="http://www.w3.org/1999/xlink" x="0px" y="0px"
	 viewBox="0 0 332 331.6" enable-background="new 0 0 332 331.6" xml:space="preserve">
<g>
	<path fill="none" d="M198.9,246.8c-0.1-1.7-0.7-3.1-2.3-4.2c-7.2-4.9-14.4-9.9-21.1-15.5c-0.8-0.6-1.7-0.9-2.7-1c-0.3,2-0.9,4-1,6
		c-0.3,3.9-0.4,7.8-0.4,11.7c0,4,0.1,8.1,0.1,12.1c0,0.9-0.1,1.8-0.2,2.7c-0.2,0.9-0.4,1.7-1.2,2.4c-1-0.9-1.5-1.9-1.6-3.1
		c-0.2-1.5-0.2-2.9-0.3-4.4c-0.3-8.6-0.5-17.3,0-26c0-0.4,0-0.9,0-1.6c-1.9,0.5-3.6,0.9-5.3,1.4c-0.6,0.2-1.2,0.3-1.7,0.7
		c-3.5,2.3-7,4.5-10,7.5c-0.6,0.6-1,1.3-1.1,2.1c-0.3,2-0.6,4-1.1,5.9c-1.4,5.6-2.2,11.3-1.6,17c0.3,3.3,0.9,6.4,2.6,9.3
		c2.1,3.5,4.8,6.6,7.8,9.4c1.2,1.2,2.6,2.2,4.2,2.8c1.5,0.6,2.9,1.1,4.4,1.4c2,0.4,4,0.5,6.1,0.7c2.3,0.2,4.6,0,6.8-0.8
		c2.3-0.8,4.7-1.6,7-2.5c0.4-0.1,0.8-0.4,1.1-0.7c1.5-1.5,3-3,4.4-4.7c1.5-1.8,3-3.7,3.9-6c1.3-3.2,2.3-6.6,2.9-10
		c0.4-2.3,1-4.7,0.8-7.1C199.1,250.6,199.1,248.7,198.9,246.8z"/>
	<path fill="none" d="M176.9,158.5c0.2,0.1,0.4,0.4,0.3,0.5c-0.1,0.2-0.3,0.4-0.5,0.5c-0.4,0.2-0.8,0.2-1.3,0.3
		c0.7,0.9,1.4,1,2.1,1.1c1.7,0,3.5,0,5.2,0.1c3.5,0.1,6.6-1.2,9.6-2.8c0.5-0.3,1-0.6,1.3-1.1c0.8-1.2,1.5-2.5,2.3-3.9
		c-1.7-1.1-3.3-2.2-5.1-3.2c-1.4-0.7-2.8-1.4-4.3-1.8c-2.8-0.8-5.7-1.3-8.6-1.2c-3.5,0.1-7,0.3-10.4,0.3c-1.5,0-3-0.1-4.5-0.3
		c-1.9-0.2-3.7-0.5-5.6-0.7c-1.6-0.2-3.2-0.1-4.8,0.6c0.2,0.2,0.3,0.4,0.4,0.4c2,1.3,3.8,2.7,5.9,3.8c2.6,1.4,5.3,2.5,8,3.7
		c1.1,0.5,2.2,0.8,3.3,1.1C172.7,156.4,174.9,157.2,176.9,158.5z"/>
	<path fill="none" d="M316.5,46.2c-0.1-0.3-0.3-0.6-0.7-1.2c-0.2,1.6-0.4,3-0.6,4.3c0,0.2,0,0.4,0.1,0.5c1,1.9,2.1,3.7,3.3,5.9
		c0.2-0.7,0.3-1,0.5-1.4c0.4-1,0.3-2-0.2-3C318.1,49.7,317.4,47.9,316.5,46.2z"/>
	<path d="M322.9,52.6c0-0.1,0.1-0.3,0.1-0.4c-0.5-1.8-1-3.5-1.6-5.3c-0.2,0.7-0.5,1.4-0.7,2.1c-0.1-0.1-0.2-0.2-0.3-0.2
		c-1.2-2.5-2.5-5.1-3.7-7.6c-0.2-0.4-0.2-0.8-0.2-1.3c0.1-0.9,0.3-1.9,0.4-2.8c-0.3-0.6-0.7-1.2-1-1.8c-0.1,1-0.3,2.1-0.4,3.2
		c-0.3-0.5-0.5-0.7-0.6-0.9c-0.6-1-1.1-2.1-1.7-3.1c-1.7-3-3.5-6-6-8.5c-1-1.1-1.9-2.2-2.9-3.4c-1-1.2-2-2.5-3.1-3.7
		c-0.6-0.5-1.3-1-2-1.5c-0.1,0.4,0.2,0.7,0.3,1c1.6,3.2,3.6,6.2,5.8,8.9c1.2,1.4,2.3,2.8,3.3,4.4c2,3.4,3.9,6.9,5.8,10.3
		c0.2,0.3,0.4,0.7,0.4,1c-0.1,1.5-0.3,3-0.4,4.5c-0.2-0.1-0.3-0.2-0.4-0.2c-1-1.9-1.8-3.9-2.2-6c-0.2-1.2-0.4-2.3-0.7-3.5
		c-0.1-0.4-0.4-0.8-0.9-0.8c-0.5,0-0.8,0.4-0.9,0.8c-0.2,0.7-0.3,1.4-0.4,2c-0.4,2.7,0.4,5.3,1.5,7.7c1.8,3.9,3.9,7.6,6.4,11
		c0.5,0.7,0.6,1.4,0.4,2.3c-0.4,1.9-0.7,3.8-1.1,5.8c-0.1,0.3-0.1,0.6-0.1,0.9c0.1,0.3,0.3,0.8,0.6,0.9c0.2,0.1,0.7-0.2,0.9-0.5
		c0.3-0.3,0.5-0.7,0.6-1.1c0.6-1.3,1.1-2.7,1.7-4.2c1.2,1.2,2,2.5,2.6,3.9c0.2,0.5,0.4,0.9,1,0.8c0.5,0,0.9-0.7,0.8-1.3
		c-0.1-0.4-0.3-0.8-0.5-1.2c-0.8-1.5-1.6-3.1-2.5-4.6c-0.7-1.2-0.3-2.1,0.3-3.2c0.2,0.2,0.3,0.4,0.3,0.5c0.9,1.7,1.8,3.5,2.7,5.2
		c-0.1-2.1-0.4-4.3-0.8-6.3c-0.3-0.7-0.7-1.5-1-2.2C322.7,53.8,322.7,53.2,322.9,52.6z M319.2,54.3c-0.1,0.3-0.3,0.7-0.5,1.4
		c-1.2-2.1-2.3-4-3.3-5.9c-0.1-0.1-0.1-0.3-0.1-0.5c0.2-1.3,0.3-2.7,0.6-4.3c0.3,0.6,0.5,0.9,0.7,1.2c0.8,1.7,1.6,3.5,2.5,5.2
		C319.5,52.4,319.6,53.3,319.2,54.3z"/>
	<path d="M236.6,247.9c-1,1-2.2,1.2-3.5,1.1c-2.2-0.2-4.3-0.8-6.3-1.6c-7.9-2.9-15.5-6.7-23-10.4c-4.7-2.4-9.2-5.3-13.6-8.3
		c-4.9-3.4-9.5-7.1-13.4-11.8c-0.9-1.1-2-1.8-3.4-2c-0.8-0.1-1.7-0.4-2.5-0.6c-0.1-5.5-0.3-10.9-0.4-16.3c0.7-0.2,1.3-0.2,1.7-0.5
		c1-0.7,2.1-0.8,3.2-0.7c2,0.1,4-0.1,5.9-0.9c1-0.4,2.1-0.8,3.1-1.2c4.4-1.5,8.3-3.9,12-6.7c0.6-0.5,1.2-1,1.7-1.6
		c0.3-0.5,0.7-0.8,1.2-1.1c2.2-1.1,3.8-2.8,5.1-4.9c1-1.7,2-3.5,3-5.2c1.4-2.7,2.5-5.4,2.3-8.6c0-0.3,0.1-0.6,0.1-0.9
		c0.1-1.5,0.3-3,0.2-4.5c-0.5-4.8-2.3-9.2-4.7-13.3c-1-1.7-2.2-3.3-3.8-4.4c-3-2.2-6.5-3.7-10.4-3.8c-3.1-0.1-6.2-0.3-9.3-0.2
		c-3.5,0.2-6.9,0.9-10,2.6c-1,0.6-2.1,0.8-3.2,0.1c-0.9-0.5-1.8-0.9-2.8-1.1c-4-1.2-8.1-1.7-12.2-1.5c-2.4,0.1-4.8,0.5-7.3,0.7
		c-3.2,0.3-6,1.5-7.9,4.2c-1.3,1.8-2.7,3.5-3.7,5.5c-1.3,2.5-2.1,5.3-2.4,8.2c-0.3,2.9-0.2,5.9-0.3,8.9c0,0.7,0.1,1.4,0.2,2.1
		c0.7,3.8,2.1,7.4,4,10.7c0.4,0.7,1,1.5,1.6,2.1c2.1,2,4.1,4.1,6.3,6c4.7,4,10,7,15.9,8.6c1.4,0.4,2.8,0.8,4.3,0.7
		c0.9,0,1.7,0.1,2.7,0.1c0,0.5,0,0.9,0,1.3c0,5,0,9.9,0.1,14.9c0,0.6-0.3,0.9-0.8,1.2c-2.6,1.5-4.9,3.4-7.1,5.4
		c-1.3,1.2-2.7,2.4-4.1,3.6c-1.8,1.5-3.5,2.9-5.3,4.4c-1.6,1.3-3.2,2.6-4.9,3.9c-4.5,3.2-8.9,6.5-13.8,9.2
		c-4.9,2.7-9.7,5.5-14.7,8.2c-1,0.6-2.1,1.2-3.3,1.3c-1.8,0.1-3.6,0.2-5.3,0.3c-0.3,0-0.6,0-0.9-0.2c-1.9-1.2-3.8-2.4-4.9-4.6
		c-0.6-1.3-1.3-2.6-1.9-3.9c-2.1-4.6-3.3-9.5-4.1-14.5c-0.4-2.5-1-5.1-1.1-7.6c-0.1-4.2-0.2-8.5,0.6-12.6c0.7-3.8,1.2-7.7,3.4-11
		c0.3-0.5,0.5-1,0.7-1.5c1.5-2.9,3-5.8,4.6-8.6c0.3-0.6,0.8-1.1,1.3-1.6c1.3-1.4,2.9-2.5,3.5-4.4c0.2-0.6,0.5-1.2,0.7-1.8
		c-1.3-0.3-2.3-0.3-3.3,0.3c-0.4,0.3-0.9,0.4-1.4,0.6c-5.1,2.2-10.3,3.8-15.6,5.5c-1.6,0.5-3.2,1-4.8,1.5c0.6,1.2,2.5,2.7,3.8,2.8
		c2.1,0.3,4.2,0.7,6.3,0.3c0.2,0,0.3,0,0.6,0c-0.2,0.4-0.3,0.7-0.4,1c-1.6,3.6-3.4,7.1-4.9,10.7c-2,4.9-3.5,9.9-3.6,15.3
		c0,2-0.1,4.1-0.1,6.1c-0.1,4-0.1,7.9,0.5,11.8c1,6.5,3.8,12.2,7.9,17.2c0.4,0.5,0.8,1,1.1,1.6c2,3.2,5,5.2,8.6,6.4
		c3.5,1.1,7.1,0.8,10.6,0.1c0.4-0.1,0.8-0.2,1.1-0.4c1.8-1,3.7-2,5.6-2.8c0.8-0.3,1.5-0.7,2.2-1.1c5.7-3.2,11-7.1,16.3-11
		c0.4-0.3,0.7-0.5,1.3-1c-0.1,0.6-0.1,1-0.2,1.3c-1.4,5.2-1.6,10.6-1.4,15.9c0,0.7,0.1,1.4,0.2,2.1c0.4,3.1,1.5,6.1,2.6,9
		c1.7,4.3,3.7,8.3,6.8,11.8c0.3,0.3,0.4,0.7,0.7,1.1l0,0c0,0,0,0,0,0c0,0,0,0,0,0c0,0,0,0,0,0c0.8,0.8,1.5,1.6,2.3,2.3
		c3.4,3.1,7.5,4.9,11.7,6.7c0.4,0.2,0.9,0.2,1.4,0.3c3.2,0.7,6.4,0.7,9.6,0.5c3.2-0.1,6.1-1.1,9.1-2.2c0.9-0.3,1.7-0.9,2.7-0.8
		c0.4,0,0.8-0.2,1.1-0.4c2.2-1.4,4.4-2.9,6.1-5c2.1-2.5,4-5.2,5.5-8.1c3.5-6.7,5.6-13.7,5-21.3c-0.1-0.9-0.3-1.7-0.2-2.6
		c0.1-1.8,0-3.5-0.3-5.2c-0.1-0.4-0.1-0.8-0.1-1.3c0.5,0.3,0.9,0.5,1.3,0.8c3.9,2.4,7.8,4.7,12.1,6.4c0.4,0.2,0.8,0.4,1.3,0.7
		c5,2.7,10.4,3.6,16,3.1c2.6-0.2,5.1-1.2,7.4-2.5c3.5-1.9,6.3-4.7,8.9-7.6c2.7-3.1,5.2-6.3,6-10.5c0.7-3.2,1.7-6.3,2.2-9.5
		c0.4-2.1,0.2-4.3,0.2-6.5c0-6.2-0.6-12.2-2.1-18.2c-1.5-5.6-3.5-11-6.7-15.9c-0.1-0.2-0.2-0.4-0.4-0.6c0.4,0,0.6-0.1,0.9-0.1
		c2.2-0.1,4.4,0,6.6,0.4c0.9,0.2,1.7-0.1,2.5-0.5c0.2-0.1,0.4-0.5,0.4-0.6c-0.2-0.3,0-0.4,0.2-0.6c1-1.2,0.7-2-0.8-2.3
		c-6.4-1.5-12.8-3.2-18.9-5.8c-0.2-0.1-0.4-0.1-0.6-0.2c-0.2,0.8-0.4,1.4-0.5,2.1c0,0.6,0,1.3,0.3,1.9c0.5,1.1,1.2,2.1,1.9,3.1
		c3.7,4.9,6.3,10.3,7.6,16.3c0.3,1.4,0.5,2.7,0.9,4.1c1.3,3.9,1.7,8,1.5,12.1c-0.3,5-1.6,9.7-3.9,14.1c-0.4,0.7-0.9,1.4-1.3,2.1
		c-0.4,0.6-0.7,1.2-1.1,1.8C243.3,239.8,240.5,244.3,236.6,247.9z M167.1,154.9c-2.7-1.2-5.4-2.3-8-3.7c-2.1-1.1-3.9-2.5-5.9-3.8
		c-0.1-0.1-0.2-0.2-0.4-0.4c1.6-0.7,3.2-0.8,4.8-0.6c1.9,0.2,3.7,0.5,5.6,0.7c1.5,0.2,3,0.3,4.5,0.3c3.5,0,7-0.2,10.4-0.3
		c2.9-0.1,5.8,0.3,8.6,1.2c1.5,0.4,2.9,1.1,4.3,1.8c1.7,0.9,3.3,2.1,5.1,3.2c-0.8,1.3-1.5,2.6-2.3,3.9c-0.3,0.4-0.8,0.8-1.3,1.1
		c-3,1.7-6.1,2.9-9.6,2.8c-1.7-0.1-3.5,0-5.2-0.1c-0.7,0-1.5-0.1-2.1-1.1c0.5-0.1,1-0.2,1.3-0.3c0.2-0.1,0.4-0.3,0.5-0.5
		c0-0.1-0.2-0.4-0.3-0.5c-2-1.3-4.2-2.1-6.5-2.6C169.3,155.7,168.1,155.3,167.1,154.9z M198.4,259.5c-0.6,3.4-1.6,6.8-2.9,10
		c-0.9,2.3-2.4,4.2-3.9,6c-1.4,1.6-2.9,3.1-4.4,4.7c-0.3,0.3-0.7,0.6-1.1,0.7c-2.3,0.9-4.7,1.7-7,2.5c-2.2,0.8-4.5,1.1-6.8,0.8
		c-2-0.2-4.1-0.3-6.1-0.7c-1.5-0.3-3-0.9-4.4-1.4c-1.6-0.6-3-1.6-4.2-2.8c-2.9-2.9-5.6-5.9-7.8-9.4c-1.8-2.9-2.3-6.1-2.6-9.3
		c-0.6-5.8,0.2-11.4,1.6-17c0.5-1.9,0.8-3.9,1.1-5.9c0.1-0.9,0.5-1.5,1.1-2.1c3-3,6.5-5.2,10-7.5c0.5-0.3,1.1-0.5,1.7-0.7
		c1.7-0.5,3.4-0.9,5.3-1.4c0,0.8,0,1.2,0,1.6c-0.5,8.7-0.4,17.3,0,26c0.1,1.5,0.2,3,0.3,4.4c0.1,1.2,0.6,2.2,1.6,3.1
		c0.8-0.6,1.1-1.5,1.2-2.4c0.2-0.9,0.2-1.8,0.2-2.7c0-4-0.1-8.1-0.1-12.1c0-3.9,0.1-7.8,0.4-11.7c0.1-2,0.6-3.9,1-6
		c1.1,0.1,2,0.3,2.7,1c6.7,5.7,13.9,10.6,21.1,15.5c1.6,1.1,2.2,2.5,2.3,4.2c0.2,1.9,0.1,3.7,0.3,5.6
		C199.4,254.9,198.7,257.2,198.4,259.5z"/>
	<path d="M305.2,94.2c-1.7-6.6-3.7-13.1-6.3-19.5c-2.2-5.5-4.5-10.9-8-15.8c0,0,0-0.1,0.1-0.2c0.6,0,1.2,0,1.8,0
		c0.1-2.4-2-3.6-3.1-5.5c1.3,0,2.4,0.1,3.5,0c1.5-0.1,2.2-1.4,1.4-2.7c-0.2-0.4-0.5-0.8-0.9-1.1c-0.5-0.5-1-0.9-1.5-1.2
		c-4.8-3.4-9.8-6.4-15-9.2c-1.3-0.7-2.7-1.1-4.2-1.5c-0.8-0.2-1.6,0-2.4,0.1c-0.6,0.1-0.9,0.6-0.9,1.2c0,0.6,0.3,1.1,0.9,1.3
		c0.2,0.1,0.4,0.2,0.6,0.2c2.3,0.1,4.2,1.2,6,2.3c3.2,2,6.4,4,9.7,6c0.3,0.2,0.5,0.4,0.7,0.6c-2.9-0.1-5.6-0.7-7.7-2.8
		c-0.7-0.7-1.4-1.4-2.5-1.6c-1-0.2-1.8,0-2.5,0.9c0.8,0.6,1.5,1.2,2.2,1.8c-0.1,0.1-0.2,0.1-0.4,0.2c0.1,0.8,0.2,1.6,0.3,2.4
		c-0.5-0.1-1.1-0.2-1.6-0.2c-1.1,0-1.7,1-1.1,2c0.2,0.3,0.5,0.6,0.8,0.8c0.5,0.5,1.1,1,1.6,1.5c3,3.4,5.6,7.1,7.8,11.1
		c3.3,5.9,5.9,12.2,7.9,18.7c1.5,5,2.9,10,3.8,15.2c1.2,6.2,2,12.5,2.5,18.9c0.3,3.1,0.6,6.2,0.9,9.4c0.4,3.9,0.7,7.8,1.3,11.7
		c0.5,3.8,0.6,7.5,0.5,11.3c0,1.3-0.2,2.7-0.3,4c-0.5,4.7,0.1,9.3,1.3,13.8c1.2,4.6,3.2,8.9,5.8,12.9c1.9,2.9,4,5.7,7.3,7.3
		c0.1,0,0.1,0.1,0.3,0.4c-0.2,2.2-0.3,4.6-0.6,6.9c-0.4,2.7-1.1,5.4-1.5,8.1c-0.3,2-0.7,4-1.4,6c-0.1,0.3-0.2,0.6-0.2,0.9
		c0,0.6,0.3,1,0.8,1.2c0.5,0.2,1.1,0.1,1.4-0.5c0.3-0.5,0.5-1.1,0.7-1.7c0.4-1.2,0.7-2.4,1.2-3.6c1-2.2,1.6-4.5,2.3-6.8
		c0.2-0.6,0.4-1.2,0.6-2.1c0.3,1.1,0.4,1.8,0.7,2.6c0.5,1.2,0.3,2.3,0,3.5c-0.9,3.3-1.8,6.5-2.5,9.9c-0.5,2.2-0.5,4.6-1.6,6.7
		c-0.3,0.6,0,1.4,0.6,1.8c0.6,0.4,1.4,0.4,1.9-0.2c0.4-0.5,0.8-1.2,1-1.8c1-2.8,1.9-5.7,2.8-8.5c0.1-0.2,0.2-0.4,0.5-0.8
		c0.7,2.5,1.2,4.7,2.1,6.9c-0.1-4.8,0-9.7,0.3-14.4v-20.8c-0.2-0.1-0.4-0.3-0.5-0.4c-4.1-5.5-7.4-11.5-9.6-18
		c-2.4-7.1-3.5-14.5-4.1-22c-0.6-7.5-1.1-15.1-1.6-22.6C308.5,110.7,307.3,102.4,305.2,94.2z"/>
	<path d="M69.6,60.1c0.7,0.7,1.4,1.4,1.6,2.5c0.1,0.6,0.6,0.9,1.2,0.9c0.6,0,1.2-0.4,1.4-1c0.2-0.7,0.2-1.4-0.3-2
		c-0.3-0.4-0.6-0.8-0.9-1.1c-0.5-0.7-1-1.5-1.3-2.4c1,0.1,1.8,0.2,2.7,0.3c1.1,0,2.1-0.3,2.6-1.4c0.6-1.1,0.2-2.1-0.5-3
		c-0.6-0.7-1.2-1.3-1.8-1.9c-1.8-2-3.5-4.1-5.2-6.2c-0.2-0.3-0.5-0.6-0.6-1c-0.5-1.9-1.8-3.2-3-4.5c-0.7-0.8-1.8-0.9-2.7-0.3
		c-0.9,0.5-1.4,1.6-1.1,2.6c0.2,0.6,0.4,1.2,0.8,1.8c0.8,1.2,1.6,2.4,2.4,3.6c0.8,1.1,1.6,2.1,2.5,3.4c-0.6-0.2-0.9-0.3-1.3-0.4
		c-1.6-0.7-3.2-1.5-4.8-2.1c-0.7-0.3-1.6-0.4-2.4-0.4c-1.2,0-2.1,1.1-2.1,2.3c0,1,0.4,1.7,1.1,2.2c0.8,0.6,1.5,1.1,2.4,1.8
		c-0.9,1.2-1.8,2.3-2.6,3.5c-4.8,7.2-9.1,14.6-12.5,22.6c-2.6,6-5,12-6.7,18.4c-2,7.7-2.9,15.6-3.6,23.6c-0.7,8.4-1.3,16.8-2.2,25.2
		c-0.5,5.4-1.3,10.7-2,16c-0.2,1.2-0.5,2.3-1.1,3.3c-1.5,2.6-2.9,5.2-4.4,7.7c-2.8,4.8-5.9,9.4-9.7,13.4c-2.2,2.3-4.7,4.4-7.1,6.6
		c-0.3,0.3-0.8,0.6-0.8,1c-0.1,1.6,0,3.2,0,4.7c1.1-0.2,2.1-0.3,3-0.4c2.1-0.4,4.1-1,5.7-2.5c1.1-0.9,2.3-1.7,3.5-2.5
		c1.9-1.1,3.7-2.5,5.2-4.1c3-3.1,5.4-6.6,7.4-10.4c0.3-0.5,0.5-1.1,0.9-1.6c1.4-2,2.9-4,4.3-6.1c1.8-2.6,2.8-5.6,3.5-8.6
		c0.7-2.9,1-5.9,1.4-8.9c0.3-2.3,0.5-4.6,1-6.8c0.3-1.2,0.3-2.4,0.3-3.6c0-2.2-0.2-4.3-0.3-6.5c-0.3-7.6-0.6-15.2-0.2-22.8
		c0.2-3.3,0.3-6.6,0.9-9.9c1.4-7.4,3.6-14.6,7.2-21.3c4.3-8.1,8.7-16,14.1-23.5c0.8-1.1,1.2-1.3,2.4-0.8
		C68.7,59.4,69.2,59.7,69.6,60.1z"/>
	<path d="M75.8,120.6c0,1.8,0.4,3.6,1.1,5.3c0.9,2.3,2.3,4.1,4.1,5.8c1.9,1.8,4.1,3,6.7,3.4c1,0.2,2.1,0.1,3.1,0.2c0,0,0,0,0-0.1
		c0.7,0,1.5,0.1,2.2,0c1.9-0.2,3.7-0.4,5.3-1.5c0.4-0.3,0.9-0.4,1.3-0.6c5.2-2.2,8.7-5.8,10-11.3c0.4-1.9,0.5-3.9,0.7-5.8
		c0.4-3.7-1-6.9-2.6-10c-0.4-0.8-0.9-1.6-1.3-2.4c-0.7-1.4-1.7-2.7-3-3.5c-2.4-1.6-4.9-2.8-7.8-3.1c-2.7-0.2-5.4-0.4-7.9,0.8
		c-5.5,2.6-9,6.8-10.8,12.7C76.1,113.8,75.7,117.2,75.8,120.6z"/>
	<path d="M268.9,120.6c0.7-1.5,1.3-3.3,1.5-5c0.4-3.6,0-7.1-1.1-10.5c-1.4-4.3-4.4-7.2-8.1-9.5c-0.7-0.4-1.5-0.6-2.3-0.8
		c-0.7-0.2-1.4-0.3-2.2-0.4c-4.3-0.7-8.3-0.1-11.9,2.5c-1.5,1.1-2.9,2.3-4.3,3.6c-0.4,0.4-0.8,0.8-1,1.3c-2,3.7-4.1,7.4-3.5,11.9
		c0.1,1.3-0.1,2.8,0.2,4c1,3.8,2.1,7.6,5.1,10.4c0.2,0.2,0.4,0.4,0.6,0.7c0.8,1.2,2,1.8,3.2,2.3c1.6,0.7,3.3,0.6,5,0.8
		c5.1,0.6,9.5-1.3,13.5-4.1C266.1,126.1,267.6,123.4,268.9,120.6z"/>
	<path d="M11,52.6c0,0.2-0.1,0.3-0.2,0.5c-0.1,0.3-0.1,0.6-0.1,0.9c1.1,0.1,1.5,0.2,2.4-0.5c1.2-0.9,2.5-1.8,3.5-3
		c2.5-2.9,4.8-5.8,7.2-8.8c0.3-0.4,0.6-0.7,0.9-1.1c0.1,0.2,0.1,0.4,0,0.5c-2.4,5.2-4.8,10.4-7.2,15.6c-0.5,1.1-0.9,2.3-1.3,3.5
		c-0.5,1.6-0.7,3.3-1.7,4.8c0,0,0.1,0.1,0.2,0.2c1.6-2.5,3.4-4.7,4.7-7.4c2.8-6.2,6.2-12.1,9.6-17.9c0.2-0.4,0.5-0.7,0.7-1.1
		c0.1,0.6,0,1-0.2,1.5c-1.9,5.4-3.4,10.9-4.7,16.4c-0.7,3.1-1.6,6.1-3,9c-0.2,0.3-0.3,0.7-0.4,1.1c-0.3,1-0.1,1.4,0.9,1.8
		c0.2,0.1,0.3,0.1,0.5,0.1c0,0.4,0,0.7,0,1.1c0,2.5-0.1,5.1,0.5,7.5c0.1,0.6,0.1,1.1-0.1,1.6c-0.4,1-0.8,1.9-1,2.9
		c-0.2,0.8,0.1,1.4,0.7,1.6c0.7,0.2,1.2-0.1,1.5-0.9c0.3-0.7,0.5-1.4,0.8-2.1c1.8-4.1,3.7-8.2,5.5-12.4c2.1-4.9,4.2-9.7,6.3-14.6
		c0.4-0.8,0.6-1.7,0.7-2.6c0.2-0.7-0.2-1.3-0.7-1.5c-0.6-0.3-1.2,0-1.7,0.6c-0.2,0.2-0.3,0.5-0.5,0.8c-0.4,0.8-0.8,1.6-1.2,2.5
		c-2.7,6.3-5.4,12.6-8.1,19c-0.1,0.3-0.3,0.5-0.5,0.9c0-0.3-0.1-0.4-0.1-0.5c0.3-3.8,1-7.6,1.9-11.3c0.1-0.4,0.3-0.7,0.5-1.1
		c1.7-3.2,3.4-6.3,5-9.5c2.7-5.2,5.5-10.3,8.8-15.1c0.1-0.2,0.2-0.4,0.3-0.6c0.4-0.8,0.2-1.7-0.4-2.3c-0.6-0.6-1.6-0.8-2.4-0.3
		c-0.6,0.4-1.2,0.9-1.6,1.5c-0.9,1.3-1.8,2.7-2.7,4c-0.2,0.3-0.4,0.5-0.5,0.8c0-0.4,0.1-0.8,0.2-1.2c1.3-3.3,2.7-6.5,4-9.8
		c0.9-2.2,2.1-4.2,3.8-5.9c0.9-0.8,1.7-1.7,2.5-2.6c0.7-0.8,0.7-1.3-0.1-2c-0.2-0.1-0.3-0.3-0.5-0.4c0.5-0.9,0.9-1.7,1.5-2.7
		c-2.7,1.5-5,2.9-7.5,4.1c-2.2,1-3.9,2.5-5.5,4.3c-5.5,5.9-10.2,12.4-15.3,18.7C14.1,44.9,12,48.4,11,52.6z"/>
	<path d="M205,304.6c3.2,0.8,6.5,1.6,9.7,2.3c1.7,0.4,3.5,0.6,5.3,0.7c1.3,0.1,2.2-0.9,2.3-2c0.1-1.1-0.8-2.1-2-2.3
		c-0.2,0-0.3,0-0.5,0c-1.1-0.2-2.3-0.3-3.4-0.7c-5.2-1.7-10-4.1-14.3-7.3c-1.8-1.4-3.6-2.9-5.4-4.3c-1.2-0.9-2.2-1-2.9-0.3
		c-0.8,0.8-0.7,1.7,0.4,2.9c1.2,1.3,2.5,2.6,3.7,3.9c0.2,0.2,0.5,0.4,0.9,0.8c-0.5,0-0.8,0-1.1,0c-1.6,0.1-2.8,1.3-2.5,2.9
		c0.2,0.9,0.6,1.9,1.1,2.6c0.8,1,1.7,1.8,2.7,2.6c1.6,1.2,3.3,2.3,5,3.5c-0.3,1.7-0.2,2.5,0.7,4c1.3,2.3,3.1,4,5.1,5.7
		c1.7,1.4,3.5,2.6,5.6,3.2c1.1,0.3,2.2,0.6,3.2,1.4c0.5,0.4,1,0.4,1.6,0c0.5-0.4,0.7-0.9,0.6-1.5c-0.1-0.7-0.6-1.2-1.2-1.6
		c-0.6-0.3-1.2-0.5-1.7-0.9c-2.1-1.6-4.1-3.2-6.2-4.8c-0.5-0.4-0.9-0.8-1.3-1.2c0.1-0.1,0.1-0.2,0.2-0.2c0.5,0.3,1,0.6,1.5,0.9
		c1,0.6,2,1.3,3.1,2c0.5,0.3,1,0.2,1.4-0.1c0.5-0.3,0.6-0.9,0.4-1.4c-0.2-0.5-0.4-1-0.7-1.5c-1-1.6-2.3-2.8-3.8-3.9
		c-2.3-1.6-4.7-3.1-7.1-4.6c-0.3-0.2-0.5-0.4-0.8-0.6C204.7,304.5,204.9,304.5,205,304.6z"/>
	<path d="M293.5,237.7c0.5,0.8,1.3,1.1,2.1,1c0.8-0.2,1.4-0.9,1.5-1.8c0.1-0.6,0-1.2,0.1-1.8c0.7-5,0.7-10.1,0.7-15.1
		c0-3.9-0.8-7.6-2-11.3c-0.2-0.6-0.6-1.2-1-1.8c-0.5-0.6-1.1-0.8-1.9-0.6c-0.6,0.2-0.9,0.9-0.8,1.8c0.1,0.6,0.2,1.3,0.4,1.9
		c0.6,2.7,1.2,5.4,1.2,8.2c0,3.3,0,6.5,0,9.8c0,0.3-0.1,0.6-0.1,1.2c-1-1.2-1.8-2.4-2.8-3.4c-0.6-0.6-1.3-1.2-2-1.5
		c-1.1-0.5-2.2,0-2.8,1c-0.2,0.5-0.4,1.1-0.4,1.6c0,1.4,0,2.8,0.4,4.1c0.8,3.6,1.1,7.2,1.1,10.9c0,1.7,0,3.4,0.3,5.1
		c0.2,1.7,0.2,3.3-0.4,4.9c-0.3,0.7,0.1,1.4,0.7,1.8c0.6,0.3,1.4,0.2,1.8-0.5c0.4-0.6,0.6-1.2,0.8-1.9c0.3-1.5,0.5-3.1,0.8-4.6
		c0.1-0.8,0.2-1.6,0.2-2.3c0-3.9,0.2-7.9-0.6-11.8c0.9,1,1.5,2.2,2,3.3C292.9,236.4,293.2,237.1,293.5,237.7z"/>
	<path d="M261.7,7.4c-0.5,0.6-1.1,1.2-1.6,1.8c-0.5-1.6-0.8-1.6-2.2-1.1c-1.2,0.4-2.2,1.1-3,2c-0.2,0.2-0.5,0.5-0.6,0.6
		c-2.1-0.7-4-1.3-6-1.9c-1.7-0.6-3.4-1-5.2-0.6c-0.7,0.2-1.5,0.1-2.2,0.1c-2,0-4.1,0-6.1,0c-0.3,0-0.6,0-0.8,0c0,0.1,0,0.2,0,0.3
		c6.1,3.1,12.3,5.7,19.2,6.3c0.1,0.1,0.2,0.3,0.3,0.4c0.5,0.8,1.1,1.4,2.1,1.3c1.1-0.1,1.2-1,1.4-1.8c0.2-1.2,0.9-2,1.9-3.1
		c0,1.5,0.3,2.4,1.6,2.7c0.2,0.1,0.4,0.3,0.6,0.5c0.8,0.6,1.4,0.7,2.3,0.2c0.6-0.4,1.2-0.7,1.8-1.1c1.9-1.3,3.8-2.6,5.6-4
		c0.8-0.6,1.2-1.5,1-2.5c-0.9-0.6-1.8-0.7-2.7-0.4C268.5,7,268,7.1,268,7c-0.3-0.6-0.8-0.4-1.3-0.4c-1.1,0-2.2,0.1-3.3,0.1
		C262.7,6.6,262.2,6.9,261.7,7.4z"/>
	<path d="M8.3,228.5c0.5,0.3,1,0.2,1.4-0.2c0.3-0.3,0.4-0.8,0.5-1.2c0.4-1.3,0.8-2.6,1.2-3.8c1.4-3.8,2.9-7.6,4.4-11.4
		c1.3-3.3,2.5-6.6,3.8-9.8c0.4-1,0.7-2,0.6-3.1c-2.6,0-5.1,0-7.7,0c-0.3,1.7-0.5,3.3-0.8,4.9c-0.5,2.9-0.3,5.8-1.3,8.6
		c-0.1,0.2-0.1,0.4-0.1,0.6c0,0.3,0,0.6,0.2,0.7c0.6,0.5,0.4,1,0.2,1.5c-0.2,0.6-0.4,1.2-0.5,1.7c-0.9,3.4-1.8,6.7-2.7,10.1
		C7.4,227.8,7.8,228.2,8.3,228.5z"/>
	<path d="M18.6,215.7c-1.6,5.5-3.2,11-4.8,16.5c0,0.2-0.1,0.3-0.1,0.5c-0.1,0.4,0.1,0.9,0.5,0.9c0.3,0,0.7-0.2,0.8-0.4
		c0.2-0.3,0.3-0.7,0.4-1.1c1.8-5.6,3.6-11.1,5.5-16.7c0.1-0.3,0.2-0.6,0.4-1.1c0.5,2.4,0.9,4.6,1.4,6.8c0.6,2.5,1.6,5,1,7.7
		c-0.1,0.4,0.2,0.8,0.6,0.8c0.3,0,0.8-0.2,0.8-0.4c0.2-0.6,0.4-1.3,0.4-2c-0.1-2.4-0.3-4.8-0.4-7.2c-0.2-3.7-0.5-7.5-0.6-11.2
		c-0.1-3.4,0-6.9,0-10.3c0-0.4,0-0.8,0-1.4c-1.3,0.6-2.5,1.1-3.7,1.6c0,0.2-0.1,0.3-0.1,0.5c0,2.5,0,5,0,7.4c0,1.1,0,2.1-0.3,3.1
		C19.8,211.7,19.1,213.7,18.6,215.7z"/>
	<path d="M30.8,247.7c0.4-1.3,0.7-2.4,0.8-3.5c0.2-3.7,0.3-7.4,0.5-11.1c0.2-2.9,0.4-5.7,0.8-8.6c0.4-2.9,1.1-5.7,1.7-8.6
		c0.1-0.8,0.2-1.6,0.2-2.3c-0.1-0.9-0.6-1.2-1.5-0.8c-0.5,0.2-0.9,0.6-1.2,1c-0.4,0.6-0.8,1.2-1.1,1.9c-1.3,3.1-2,6.5-2.5,9.8
		c-0.5,3.9-0.4,7.7-0.3,11.6c0,2.4,0.2,4.9,0.8,7.2C29.2,245.6,29.9,246.6,30.8,247.7z"/>
	<path d="M278.9,243.9c-0.1,0.4-0.2,0.8-0.3,1.3c-0.7,4.4-1.4,8.8-2.1,13.3c-0.4,2.4-0.5,4.7-0.3,7.1c0,0.4,0.1,0.8,0.2,1.3
		c1.1-0.8,2.9-3.5,3.5-4.8c1.9-4.7,2.9-9.6,3.6-14.6c0.1-1,0.3-2,0.2-3c0-1.3-1-2.3-2.2-2.4C280.3,241.9,279.3,242.6,278.9,243.9z"
		/>
	<path d="M146.8,285.5c-0.3,0.4-0.6,0.9-0.9,1.3c-2.3,2.5-4.5,5.2-7,7.5c-2.1,2-4.4,3.8-6.6,5.7c-0.8,0.7-1.4,1.4-1.8,2.3
		c-0.2,0.5,0.1,0.9,0.6,0.8c0.7-0.1,1.4-0.3,2.1-0.5c2.1-0.6,3.9-1.7,5.6-3c3.8-3,6.9-6.7,10.1-10.3c1.2-1.4,1.8-2.9,1.2-4.7
		C148.5,283.7,147.9,283.9,146.8,285.5z"/>
	<path d="M313.3,300.3c-0.2-0.2-0.4-0.4-0.6-0.5c-1.5-1.1-2.9-2.2-4.4-3.3c-0.3-0.2-0.7-0.5-1.1-0.8c0,0.6-0.1,1-0.1,1.5
		c-0.1,2.4-0.1,4.9-0.3,7.3c-0.1,1.2-0.2,2.5-0.2,3.7C309,305.7,311.3,303.1,313.3,300.3z"/>
	<path d="M145.2,305.7c-0.3,0.8-0.5,1.6-1,2.2c-3.1,4.1-6.2,8.1-9.4,12.2c-0.6,0.7-1.4,1.3-2.1,1.9c-0.1,0.1-0.1,0.1-0.2,0.2
		c-0.4,0.5-0.5,1.1-0.1,1.6c0.4,0.5,0.9,0.7,1.5,0.4c0.5-0.3,1-0.6,1.4-1c0.6-0.5,1.1-1.1,1.8-1.5c2.1-1.4,3.8-3.2,5.5-5
		c1.9-2.1,3.7-4.4,5.1-6.9c0.6-1.1,1-2.2,1.1-3.5c0-1.2-0.5-1.9-1.4-2.1C146.3,304,145.6,304.5,145.2,305.7z"/>
	<path d="M150.5,297.1c0.1-0.3,0.2-0.6,0.3-0.9c0.2-0.9-0.1-1.8-0.8-2.1c-0.7-0.4-1.5-0.1-2.2,0.7c-1.6,1.9-3.2,3.7-4.7,5.6
		c-1.4,1.7-2.7,3.5-3.9,5.4c-0.8,1.2-1.5,2.5-1.5,4.2c0.9,0.3,1.5-0.1,2-0.5c3.8-3.2,6.8-7,9.8-10.9
		C150,298.1,150.2,297.6,150.5,297.1z"/>
	<path d="M41,264.5c0.6-0.1,1-0.4,1-1c0-0.6,0-1.1-0.1-1.7c-0.3-1.6-0.6-3.1-0.9-4.7c-0.4-3.1-0.8-6.3-1.2-9.4
		c-0.1-0.6-0.2-1.3-0.4-1.9c-0.2-1-0.7-1.4-1.5-1.4c-0.7,0-1.3,0.4-1.5,1.4c-0.2,1-0.3,2-0.4,3.2c0.3,1.6,0.6,3.4,0.9,5.2
		c0.6,3.2,2.4,6.1,2.7,9.5C39.8,264.2,40.5,264.6,41,264.5z"/>
	<path d="M315.3,264.9c-0.3-0.2-0.8-0.2-1.1-0.1c-0.2,0.1-0.4,0.6-0.3,0.9c0.1,0.5,0.3,0.9,0.5,1.3c2.2,4.9,5.1,9.5,8.2,13.8
		c0.3-1.2,0.7-2.5,0.9-3.7c-2.5-3.7-4.9-7.4-7.4-11.1C315.9,265.7,315.7,265.2,315.3,264.9z"/>
	<path d="M80.4,6.8c-0.7-0.1-1.2,0.2-1.6,0.8c-0.5,0.8-1,1.5-1.5,2.2c-1.1-0.5-2-1-3-1.4C73.2,8,72.5,8.2,72.2,9
		c-0.3,0.6,0,1.2,1,1.7c0.8,0.4,1.6,0.9,2.4,1.3c0.5,0.2,0.8,0.5,0.9,1.2c0.3,1.9,2.1,2.6,3.6,1.4c0.5-0.5,0.9-1.1,1.4-1.7
		c0.5-0.7,1-1.5,1.5-2.3c-0.1,0.4-0.2,0.8-0.3,1.3c-0.2,1,0.2,1.9,1,2.3c0.8,0.4,1.8,0.2,2.4-0.6c0.7-1,1.3-2,1.9-3.1
		c0.5-0.9,0.8-1.8,1.3-2.8c-1.7-0.1-3.1-0.3-4.5-0.4c-0.5,0.9-0.9,1.6-1.3,2.4c0.1-0.7,0.3-1.5,0.4-2.4C82.6,7,81.5,6.9,80.4,6.8z"
		/>
	<path d="M318.5,281.3c-0.3-0.6-0.7-1.1-1.5-1.4c0.8,3.3,1.6,6.5,2.4,9.8c0.7-1.6,1.4-3.2,2-4.8
		C320.3,283.9,319.2,282.8,318.5,281.3z"/>
	<path d="M31.4,312.4c0.3-4.3,0.6-8.5,0.8-12.9c-2.7,2.2-4.8,4.7-7.2,6.9C26.9,308.8,28.9,310.8,31.4,312.4z"/>
	<path d="M11.3,281.2c0.3,1.5,0.5,2.8,0.8,4.4c1.9-0.6,3.6-1.1,5.3-1.8c1.9-0.8,3.7-1.9,5.1-3.5c0.3-0.4,0.6-0.7,0.1-1.1
		C18.7,279.1,15.2,280.6,11.3,281.2z"/>
	<path d="M310.7,72.5c-0.1,1.3-0.3,2.6-0.1,3.9c0.4,3.2,1.8,5.9,3.9,8.3c1,1.2,1.9,2.4,2.3,4c0,0.2,0.3,0.4,0.5,0.7
		c0.7-0.8,0.5-1.6,0.1-2.2c-1-1.6-1.7-3.3-2.3-5.1c-0.1-0.4-0.3-0.8-0.5-1.2c-1.2-2.4-1.7-5-1.8-7.7c0-0.6-0.1-1.2-0.3-1.8
		c-0.1-0.3-0.3-0.6-0.5-0.9C311,71,310.8,71.7,310.7,72.5z"/>
	<path d="M27.5,80.5c-0.6,1.7-1.2,3.4-1.8,5.2c-0.3,0.9-0.6,1.9-0.8,2.9c-0.2,1.3-0.6,2.5-1.2,3.7c-0.2,0.5-0.5,1-0.6,1.6
		c-0.1,0.3,0,0.7,0.2,0.9c0.4,0.3,0.7,0,0.9-0.4c0.1-0.3,0.2-0.6,0.4-0.8c0.6-1.6,1.5-3,2.4-4.5c1.1-1.9,2-4,2.9-6
		c0.2-0.5,0.3-1.2,0.3-1.5c0-0.4,0-0.5,0-0.6c0-0.9-0.4-1.4-1.1-1.6C28.5,79.3,27.8,79.7,27.5,80.5z"/>
	<path d="M317.4,76.1c0.7,0.8,1.2,1.9,1.7,2.9c0.1,0.2,0.2,0.4,0.4,0.9c0.5-0.9,0.2-1.4-0.1-2c-0.3-0.7-0.7-1.4-1-2.1
		c-0.7-1.7-1.3-3.5-2.1-5.2c-1.2-2.5-2.6-5-2.9-7.9c-0.1-0.5-0.3-1-0.9-1.1c-0.5,0-0.9,0.4-1,1.2c0,0.2,0,0.3,0,0.5
		c-0.1,1.4,0.2,2.8,0.7,4.1C313.6,70.6,315.2,73.5,317.4,76.1z"/>
	<path d="M227.5,207.3c-0.2,0-0.3-0.1-0.8-0.2c-0.5,0.3-1.2,0.5-1.7,1c-2.2,1.9-4.4,3.8-6.5,5.8c-0.2,0.2-0.4,0.3-0.5,0.6
		c-0.1,0.4-0.3,0.9-0.2,1.2c0.1,0.3,0.6,0.5,1,0.6c0.3,0.1,0.7,0,1,0.1c0.9,0.1,1.5-0.3,1.4-1.1c-0.1-0.6,0.2-0.8,0.5-1.1
		c1-0.9,2-1.7,3.1-2.6c0.8-0.7,1.5-1.3,2.7-1.4c1-0.1,1.5-0.7,1.5-1.4C229,208,228.4,207.5,227.5,207.3z"/>
	<path d="M321.2,233c-0.5-0.3-1.2-0.5-1.7-0.5c-0.5,0-1,0.3-1.3,0.6c-0.4,0.4-0.2,1,0.2,1.4c0.4,0.4,0.8,0.8,1.2,1.1
		c1.7,1.3,3.3,2.5,5,3.8c0.1,0.1,0.3,0.2,0.4,0.3v-4.6C323.7,234.4,322.4,233.7,321.2,233z"/>
	<path d="M132.7,219.3c0.1,0.2,0.3,0.4,0.5,0.5c0.7,0.5,1.6,0.3,2-0.4c0.4-0.7,0.1-1.5-0.7-1.8c-0.7-0.2-1.1-0.7-1.5-1.1
		c-1.3-1.4-2.5-2.7-3.8-4.1c-0.5-0.5-1-0.9-1.9-0.9c0,0-0.1,0-0.3,0c-0.8,0.1-1.8,1.1-1.9,1.8c-0.1,1,0.7,1.3,1.4,1.5
		c1.8,0.6,3.1,1.8,4.5,2.8C131.7,218,132.5,218.4,132.7,219.3z"/>
	<path d="M308.1,286.3c0.2,1.1,4.2,7.2,7,11.3c0.3-0.4,0.5-0.8,0.8-1.2C313.5,293,311,289.6,308.1,286.3z"/>
	<path d="M25.8,296.8c-0.3-0.2-0.7-0.4-1-0.4c-0.5,0.2-0.9,0.5-1.2,0.9c-1,1.1-2,2.3-3,3.4c-0.1,0.1-0.2,0.3-0.3,0.4
		c0.6,0.7,1.2,1.3,2,2.2c0.8-2.2,1.9-4,3.5-5.5C26.1,297.5,26.2,297.1,25.8,296.8z"/>
	<path d="M208.2,217.3c0.4,1.1,1.7,1.6,2.6,1c0.4-0.3,0.8-0.7,1.1-1.1c0.5-0.6,0.7-1.3,0.3-2c-0.4-0.7-1-1.1-1.8-1.1
		C209,214.1,207.7,215.8,208.2,217.3z"/>
	<path d="M113.8,222.5c0.8,0.7,1.7,1.4,2.8,1.5c1.1,0,2-0.6,2.1-1.4c0.2-0.8-0.4-1.5-1.4-1.9c-1.1-0.4-2.1-0.2-3,0.2
		C113.6,221.2,113.3,222,113.8,222.5z"/>
	<path d="M125.2,226.8c-0.9,0.4-1.3,1.1-1.5,2c-0.1,0.6,0.3,1.1,0.9,1.2c0.3,0.1,0.6,0,0.8,0.1c0.3,0,0.4,0,0.6,0
		c0.7-0.1,1.2-0.4,1.4-1c0.2-0.7,0.1-1.3-0.4-1.8C126.5,226.8,125.9,226.5,125.2,226.8z"/>
	<path d="M225.5,226.1c0,0.9,0.7,1.5,1.6,1.5c1,0,2.2-1,2.1-1.9c0-0.8-0.7-1.3-1.8-1.3C226.4,224.5,225.5,225.2,225.5,226.1z"/>
	<path d="M233.1,185.6c-1.5,0.8-2,1.7-1.5,2.6c0.5,1,1.7,1.2,2.9,0.6C234,187.8,233.6,186.8,233.1,185.6z"/>
	<path d="M234.8,217.4c-0.4,0.6-0.1,1.3,0.6,1.4c0.9,0,2.5-1,2.9-2C237.2,216.1,235.4,216.4,234.8,217.4z"/>
	<path d="M124.9,191.9c-0.7,0-1.3,0.6-1.3,1.3c0,0.7,0.6,1.2,1.3,1.2c0.7,0,1.2-0.5,1.2-1.2C126.1,192.4,125.6,191.9,124.9,191.9z"
		/>
	<path d="M114.2,201c-0.6,0-1.1,0.6-1.1,1.2c0,0.7,0.6,1.2,1.2,1.2c0.7,0,1.2-0.6,1.2-1.3C115.4,201.4,114.9,200.9,114.2,201z"/>
	<path d="M324.9,225.8v-2c-0.1,0.3-0.2,0.6-0.2,0.9C324.5,225.2,324.6,225.5,324.9,225.8z"/>
	<path d="M123.1,203.7c0,0.7,0.4,1.1,1,1.1c0.6,0,0.9-0.4,0.9-1c0-0.6-0.5-1.3-1-1.3C123.5,202.5,123.1,203,123.1,203.7z"/>
	<path d="M111.5,212.6c0,0.5,0.5,1,1.1,1c0.6,0,1-0.4,1-1s-0.4-0.9-1.1-0.9C111.9,211.8,111.5,212.1,111.5,212.6z"/>
	<path d="M242.7,207.9c0,0.5,0.4,0.9,0.8,1c0.5,0,1-0.4,1-0.9c0-0.5-0.4-0.9-0.9-1C243.2,207,242.7,207.3,242.7,207.9z"/>
	<path d="M324.9,230.6v-1.2c-0.3,0-0.7,0-1.2,0.2C324.1,230.1,324.5,230.4,324.9,230.6z"/>
	<path d="M244.4,200.1c0.3-0.1,0.6-0.4,1-0.8c-0.5-0.3-0.8-0.6-1.1-0.7c-0.4-0.1-0.7,0.2-0.8,0.7C243.6,199.8,244,200.3,244.4,200.1
		z"/>
	<path d="M233.8,198.2c0.1-0.2,0.3-0.4,0.4-0.5c0-0.2-0.1-0.4-0.3-0.8c-0.3,0.6-0.5,0.8-0.5,1C233.3,197.9,233.6,198.1,233.8,198.2z
		"/>
</g>
<path fill="none" stroke="#000000" stroke-width="5" stroke-miterlimit="10" d="M324.9,264.3c0,33.8-27.2,61.2-60.9,61.2H67.9
	C34.3,325.5,7,298.1,7,264.3V67.2C7,33.4,34.3,6.1,67.9,6.1h196.1c33.6,0,60.9,27.4,60.9,61.2V264.3z"/>
</svg>
