<?xml version="1.0" encoding="utf-8"?>
<!-- Generator: Adobe Illustrator 24.2.0, SVG Export Plug-In . SVG Version: 6.00 Build 0)  -->
<svg version="1.1" id="Layer_1" xmlns="http://www.w3.org/2000/svg" xmlns:xlink="http://www.w3.org/1999/xlink" x="0px" y="0px"
	 viewBox="0 0 332 331.6" enable-background="new 0 0 332 331.6" xml:space="preserve">
<g>
	<path fill="none" d="M108.2,104.2c1.3-3.4,2.6-4.7,4.9-2.8c0.2-2.4-2.2-16-3-17.6C108,87.4,106.8,100.6,108.2,104.2z"/>
	<path fill="none" d="M117.3,84.5c0.2-1.8,0.2-3.6,0.8-5.3c0.6-1.6,0.6-3,0.1-4.5c-1.1-3.3-2-6.7-3.1-10c-0.4-1.1-1.1-2.1-1.7-3.2
		c-0.1,0-0.3,0.1-0.4,0.1c-0.9,8.3,1.6,16.1,4.3,23.9C117.2,85.2,117.2,84.9,117.3,84.5z"/>
	<path fill="none" d="M119.4,57.2c-0.4-1.1-0.9-2.1-1.1-3.3c-1-4.7-1.8-9.5-2.8-14.2c-0.4-2.1-1.2-4.1-1.8-6.1
		c-0.2,0-0.4,0.1-0.5,0.1c-1.8,8.1-0.2,16.1,0.2,24c4.2,1.9,4.9,6.1,6.7,9.5c-0.1-3-0.2-6.1-0.4-9.1
		C119.6,57.8,119.5,57.5,119.4,57.2z"/>
	<path fill="none" d="M114.9,107.8c-0.1,0-0.2,0-0.3,0c0.3,1.9,0.6,3.9,0.8,5.8c0.4-0.8,0.6-1.7,0.5-2.5c-0.1-0.7-0.5-1.4-0.7-2.1
		C115.1,108.6,115,108.2,114.9,107.8z"/>
	<path fill="none" d="M117,97.9c0.1,3.4,0.2,6.4,0.3,9.4c0.6-1.6,1.3-3.2,1.9-4.9c0.1-0.3,0.1-0.9-0.1-1.2
		C118.5,100.1,117.8,99.1,117,97.9z"/>
	<path fill="none" d="M122.4,41.7c0.4-3.2,0.8-6.3,1-9.5c0.2-3.2,0-6.5,0-9.8c-0.1,0-0.2,0-0.3,0c-0.1,0.4-0.2,0.7-0.3,1.1
		c-0.8,4.6-1.5,9.2-2.3,13.8c-0.5,2.8-0.8,5.6,0.5,8.5C121.6,44.3,122.2,43.1,122.4,41.7z"/>
	<path fill="none" d="M109.1,42.3c0-2.9-0.1-5.9,0.8-8.8c0.1-0.2,0-0.5,0-0.7c-1.3-4.1-2.7-8.3-4-12.4c-0.1-0.4-0.4-0.8-0.7-1.4
		c-0.7,8.5,1.6,16.2,3.8,24C109,42.8,109.1,42.5,109.1,42.3z"/>
	<path fill="none" d="M101.1,33.9c1.3,2.5,1.8,5.2,2.1,7.9c0.2,1.8,0.4,3.6,0.5,5.5c0.5-0.9,0.9-1.7,1.5-2.3c0.5-0.6,0.5-1,0.2-1.7
		c-2.1-5.6-3.7-11.4-4.1-17.4c-0.1-2-0.5-3.9-0.7-5.9c-0.1,0-0.3,0-0.4,0c-0.1,0.2-0.2,0.4-0.2,0.6c-1.2,3.3-1,6.7-1.3,10.1
		c0,0.2,0.2,0.4,0.3,0.6C99.8,32.1,100.6,32.9,101.1,33.9z"/>
	<path fill="none" d="M122,81.6c-0.1-0.4-0.5-0.6-0.7-1c-0.1,0.1-0.2,0.1-0.3,0.2c-0.7,5.2,0.1,10.3,1.3,15.5
		c0.6-0.9,1.1-1.7,1.6-2.3c0.7-0.8,0.7-1.5,0.5-2.5C123.6,88.2,122.9,84.9,122,81.6z"/>
	<path fill="none" d="M105.1,80.4c-0.5-2.7-0.9-5.3-1.3-8c-0.5-3.6-1-7.2-2.5-10.6c-0.3-0.6-0.6-1.2-1-1.9c-0.2,0.2-0.3,0.3-0.3,0.4
		c-0.1,0.3-0.3,0.6-0.4,1c-1.8,4.2-1.7,8.7-1.3,13.2c0.3,3.2,1.2,6.4,1.8,9.6c0,0.2,0.1,0.3,0.2,0.5c1.5,1.3,2.2,3.2,2.7,5
		c0.5,1.4,0.8,2.9,1.2,4.3c0.1-2.9,0.6-5.7,1.6-8.4c0.4-1.1,0.8-2.2-0.2-3.2C105.4,81.7,105.2,81,105.1,80.4z"/>
	<path fill="none" d="M100,56c0-2.6,0.1-5.1,0-7.5c-0.2-3.6-0.6-7.3-1-10.9c-0.1-1.2-0.7-2.4-1.1-3.8c-1.5,1.8-2,3.6-1.9,5.5
		c0,5.4,0.3,10.8,0.4,16.2c0,1.1,0.2,2.2,0.3,3.3C97.6,57.5,98.5,56.2,100,56z"/>
	<path fill="none" d="M110.3,107.4c-0.2,2.3-0.3,4.6-0.4,6.9c0,0.2,0.1,0.5,0.3,0.6c0.6,0.5,1.2,0.9,2,1.4c-0.5-3.2-1-6.2-1.5-9.5
		C110.4,107.1,110.3,107.2,110.3,107.4z"/>
	<path fill="none" d="M101.5,105.6c-0.8-4.2-1.5-8.5-2.3-12.7c-0.1-0.4-0.2-0.7-0.3-1.1c-0.3,0.5-0.4,0.9-0.5,1.3
		c-0.8,4.2-0.7,8.5-0.5,12.7c0.1,2.4,0.4,4.8,0.5,7.2c0.4-1.1,1.3-1.3,2.4-1.3c0.8,0,1.7,0,2.7,0c-0.1-0.5-0.1-0.9-0.3-1.2
		C102,109.1,101.9,107.3,101.5,105.6z"/>
	<path fill="none" d="M189.6,54c0.3-0.4,0.4-0.8,0.6-1.1c0.9-1.8,1.7-3.6,2.7-5.3c0.3-0.5,0.4-0.9,0.2-1.4c-0.7-2.3-1.4-4.6-2-7
		c-0.6-2.8,0.2-4.1,2.8-5c0-4.8,0-9.6,0-14.6c-0.2,0.4-0.4,0.6-0.4,0.9c-1.7,4-2.5,8.2-3.1,12.5c-0.2,1.5-0.4,3-0.6,4.6
		c-0.1,0.7-0.3,1.3-0.2,2c0.1,3.8,0.3,7.6,0.4,11.4C189.9,52,189.7,53,189.6,54z"/>
	<path fill="none" d="M178,61.6c0.1-0.2,0-0.4,0-0.6c-0.4-2.7-0.8-5.4-1.1-8.1c-0.6-5-1.4-9.9-3-14.6c-0.2-0.5-0.4-1-0.6-1.6
		c-0.1,0-0.2,0.1-0.3,0.1c-0.2,9.7,1.3,19.3,3.5,29C177.1,64.2,177.6,62.9,178,61.6z"/>
	<path fill="none" d="M179.5,43.4c0-0.7,0-1.3,0-2c-0.1,0-0.3,0-0.4,0c0.1,0.7,0.1,1.3,0.2,2C179.4,43.4,179.5,43.4,179.5,43.4z"/>
	<path fill="none" d="M171.8,32.6c0.4-0.3,1.1-0.1,1-0.9c-0.1-0.5,0.1-1.1-0.1-1.5c-0.7-1.2-0.5-2.5-0.4-3.8
		c0.2-3.1,0.4-6.2,0.5-9.2c0-0.4-0.3-0.9-0.5-1.3c-0.1,0-0.2,0.1-0.3,0.1c-3,6.4-3.8,12.7-2,17.9C170.4,33.5,171.1,33.1,171.8,32.6z
		"/>
	<path fill="none" d="M125.4,51.3c-0.1-2.2-0.4-4.3-0.6-6.4c-0.4,0.2-0.6,0.5-0.7,0.8c-0.4,1.4-0.9,2.7-1.2,4.1
		c-0.9,6-0.5,12,0.1,18c0.3,2.7,1,5.4,1.2,8.1c0.1,1.8,0.8,3.3,1.3,5c0.1,0,0.3,0,0.4,0c0.1-2.1,0.2-4.2,0.2-6.2
		c0-1.8-0.3-3.6-0.4-5.4C125.7,63.2,125.6,57.2,125.4,51.3z"/>
	<path fill="none" d="M179.6,23.4c0.1-0.5,0-1.1,0-1.7c0,0-0.1,0-0.1,0c-0.1,0.3-0.2,0.6-0.3,0.9c-1,3.3-1.8,6.7-2.9,10
		c-0.6,1.8,0.3,2.9,1,4.4C178.1,32.3,178.8,27.8,179.6,23.4z"/>
	<path fill="none" d="M107.2,47.8c-0.1,0-0.2,0-0.3,0c-1.7,4.8-2.9,9.7-1.1,14.8c1.4,4.1,2,8.5,2.6,12.8c0.2,1.4,0.4,2.8,0.6,4.1
		c0.9-0.2,1.7-0.3,2.6-0.5c0-0.3-0.1-0.7-0.2-1.1c-1.1-4.7-2-9.5-1.8-14.4c0-1.2,0.4-2.3,0.7-3.5c0.1-0.4,0.2-0.8,0.1-1.2
		c-0.7-2.6-1.4-5.1-2.1-7.7C107.8,50,107.5,48.9,107.2,47.8z"/>
	<path fill="none" d="M167.6,48.1c0,0.1,0.1,0.2,0.1,0.4c0.2-0.9,0.3-1.5,0.5-2c0.3-0.7,0.1-1.2-0.3-1.9c-0.4-0.7-0.7-1.5-0.8-2.3
		c-0.3-1.8-0.4-3.6-0.7-5.4c-0.6-3.3-1.3-6.6-1.9-9.9c-0.2,0-0.4,0-0.6,0c-0.2,0.4-0.5,0.8-0.5,1.2c0.1,2.3,0,4.8,0.5,7
		C165,39.6,166.4,43.8,167.6,48.1z"/>
	<path fill="none" d="M199.5,36.6c-0.6-4.3,0.9-8.5-1.3-12.4c0,0.4,0,0.9,0,1.4c0,2.9,0.1,5.8-0.1,8.6
		C198,35.4,198.5,35.9,199.5,36.6z"/>
	<path fill="none" d="M204.9,34.8c0.3-2.1,0.5-4.3,0.6-6.4c0.1-3,0-5.9,0-8.8c-1.7,5.5-2.6,11.3-1.7,17.3
		C204.2,36.2,204.8,35.6,204.9,34.8z"/>
	<path fill="none" d="M195,12.6c-0.6-0.3-1.2-0.6-1.9-0.9c0,0.5,0.1,1.1,0.1,1.7C193.9,13.1,194.5,12.8,195,12.6z"/>
	<path fill="none" d="M179.7,14.3c-0.5-1.3-1.1-2.8-1.6-4.3c-0.3,2.8-2,5.4-1.3,8.2C177.7,17,178.6,15.7,179.7,14.3z"/>
	<path fill="none" d="M193.4,74.2c0.1-0.1,0.2-0.3,0.2-0.5c0.1-1,0.1-2,0.1-2.9c0-0.3,0-0.6,0.1-0.9c0.8-4.4,1.2-8.8,0.9-13.3
		c-0.1-1.6-0.3-3.2-0.4-4.8c-0.1,0-0.2,0-0.3,0c-3.1,8.5-3.4,17.5-3.6,26.5C191.4,76.9,192.5,75.5,193.4,74.2z"/>
	<path fill="none" d="M186.8,50.6c-0.5-3.1-0.9-6.2-1.4-9.3c-0.5-3.1-1-6.3-1.6-9.4c-0.1,0-0.2,0-0.4,0c-0.5,7-0.5,14,0.1,21
		C184.7,52,185.8,51.3,186.8,50.6z"/>
	<path fill="none" d="M160.9,24.6c1-1.4,0.8-2.9,0.7-4.5c-0.2-3.9-0.5-7.8-0.8-11.8c-0.1-0.6-0.6-1.2-0.9-1.8
		c-0.1,0-0.2,0.1-0.3,0.1c-0.2,0.7-0.4,1.5-0.5,2.2c-0.1,3.8,0,7.6-0.3,11.4c-0.1,2.2,0.7,4,1.5,6.2
		C160.7,25.7,160.6,25.1,160.9,24.6z"/>
	<path fill="none" d="M70.8,29c-0.1,0-0.2,0-0.4,0c0,1.4,0,2.9,0,4.3c1,0.3,1.8,0.5,2.6,0.7C72.3,32.3,71.5,30.6,70.8,29z"/>
	<path fill="none" d="M78.8,30.2c0-0.2,0-0.5-0.2-0.7c-1.7-3.2-3.4-6.4-5.2-9.6c-0.7-1.2-1.6-2.2-2.4-3.4c-0.1,0-0.2,0.1-0.2,0.1
		c2,7.2,4.9,14.1,8.8,20.8C79.2,34.9,79,32.6,78.8,30.2z"/>
	<path fill="none" d="M82.5,84.8c0,0.7,0.3,0.9,1,0.7c0-0.1,0.1-0.2,0.1-0.3c0-0.4,0-0.8,0-1.2c-0.2-6.5,0.5-13,2.8-19.1
		c0.6-1.6,1.1-3.3,1.4-4.9c0.4-1.9,0.8-3.8,1-5.7c0.3-2.6,0.3-5.1,0.5-7.7c-0.1,0-0.2-0.1-0.4-0.1c-0.3,0.4-0.7,0.7-1,1.2
		c-1.5,2.9-3.3,5.7-4.4,8.7c-1.5,4.1-2.5,8.5-3.6,12.7c-0.1,0.3,0,0.8,0.1,1.1C81.4,75.1,82.2,79.9,82.5,84.8z"/>
	<path fill="none" d="M62.3,41.6c1.4,2.6,2.5,5.3,3.7,8c0.5,1.2,0.9,2.6,1.3,3.9c0.4-0.1,0.7-0.1,1.2-0.2c-0.1-0.5-0.2-0.9-0.4-1.3
		c-1-3.6-2.1-7.3-2-11.1c0.1-2.3-0.2-4.4-0.7-6.6c-1.2-5.7-2.5-11.4-4.9-16.8c-0.4-1-1-2-1.5-3c-0.1,0-0.3,0-0.4,0
		c-0.2,1.4-0.6,2.7-0.7,4.1c-0.2,5.3,0.5,10.4,1.6,15.6C60.3,36.6,61,39.1,62.3,41.6z"/>
	<path fill="none" d="M65.8,17c0.2-2.7,0.3-5.1,0.5-7.6c-0.7,0.7-1.3,1.2-1.7,1.9c-0.4,0.6-0.8,1.4-0.6,1.9
		C64.3,14.4,65.1,15.5,65.8,17z"/>
	<path fill="none" d="M77.6,86.8c-0.1-2.4-0.6-4.8-1-7.2c-1.1-7.4-3.3-14.5-7-21c-0.1-0.2-0.3-0.4-0.5-0.7
		c-1.5,8.3,2.5,25.1,7.6,32.3C77.1,88.9,77.7,87.8,77.6,86.8z"/>
	<path fill="none" d="M76.5,61.7c0.3,0.6,0.6,1.2,1.1,2c0.6-2.3,1.1-4.4,1.6-6.5c0.1-0.3,0-0.6,0-0.8c-1.7-5.4-3.5-10.7-6.2-15.6
		c-0.3-0.6-1-1.1-1.6-1.4c-0.8-0.4-1.3-0.1-1.3,0.8c0.2,6.4,1.3,12.7,4.6,18.3C75.3,59.5,75.9,60.6,76.5,61.7z"/>
	<path fill="none" d="M316.2,39.3c-0.9-1.2-2-0.6-2.7-0.2c-0.4,0.2-0.4,1.3-0.6,2c0.1,0,0.2,0.1,0.3,0.1
		C314.1,40.5,315.1,39.9,316.2,39.3z"/>
	<path fill="none" d="M83.7,42.1c0.2,1.1,0.4,2.2,0.5,3.3c0.1,0,0.2,0,0.3,0.1c0.4-0.7,1.1-1.4,1.1-2.1c0.1-2.1-0.1-4.3-0.2-6.4
		c-0.3-4-0.6-8-1-12c-0.2-1.4-0.7-2.8-1.9-4.1c-0.2,0.7-0.5,1.3-0.5,1.8c0,2.9-0.1,5.9,0.1,8.8C82.4,35.1,83.1,38.6,83.7,42.1z"/>
	<path fill="none" d="M89.4,39.1c-0.7,1-0.5,1.9-0.6,2.7c1.3,0.3,2.4,0.5,3.5,0.8c0.2-6.1,0.5-12.4,0.7-18.6c-0.1,0-0.2,0-0.3-0.1
		c-0.1,0.2-0.2,0.5-0.3,0.7c-1.2,3.7-1.9,7.6-2.2,11.4C90,37.1,90,38.3,89.4,39.1z"/>
	<path fill="none" d="M91.9,16.9c0.1-0.2,0-0.5,0-0.8c-0.4-1.4-0.8-2.8-1.3-4.1c-0.4-1.1-0.9-2.1-1.4-3.2c-0.1,0-0.2,0.1-0.3,0.1
		c-1.2,4-0.8,7.9,0.8,11.8C90.5,19.3,91.2,18.1,91.9,16.9z"/>
	<path fill="none" d="M93.1,60c-0.1-0.8-0.2-1.5-0.3-2.6C92.1,59.5,92.1,59.5,93.1,60z"/>
	<path fill="none" d="M86.5,102.9c-0.9-3.4-2.4-6.8-3.5-10.1c-0.3-0.7-0.8-1.2-1.5-1c-0.5,0.2-1,0.8-1.2,1.3c-0.2,0.8-0.1,1.6,0,2.4
		c0.2,1.2,0.5,2.4,0.8,3.6c1.6,6.5,2.8,13,5.7,19.1c0.8,1.7,1.6,3.1,3.5,3.6c0.4,0.1,0.7,0.3,1.2,0.6c-0.5-1.5-0.9-2.8-1.2-4.2
		C88.9,113,87.9,107.9,86.5,102.9z"/>
	<path fill="none" d="M79.6,122.9c-0.9-0.8-1.8-1.5-2.7-2.4C77.2,122.3,77.9,122.9,79.6,122.9z"/>
	<path fill="none" d="M68.6,102.3c0.1,0.5,0.1,0.8,0.2,1.1c1,2.4,2.1,4.9,3.1,7.3c0.6,1.6,1.7,2.5,3.3,3.1c1.1,0.4,2.1,1.1,3.2,1.6
		c0.8,0.4,1.5,0.8,2.3,1.2C77.5,111.3,74.7,105.5,68.6,102.3z"/>
	<path fill="none" d="M68.8,89c0.7,0.3,1.5,0.5,2.4,0.8c-3.6-7.5-6.1-15.1-6.8-23.3c-0.1,0.4-0.4,0.8-0.4,1.2
		c-0.2,2.1-0.5,4.2-0.6,6.3c0,0.7,0.2,1.5,0.4,2.1c1,2.6,2.2,5.2,3.2,7.8c0.6,1.5,0.9,3.1,1.4,4.7C68.5,88.7,68.7,89,68.8,89z"/>
	<path fill="none" d="M93.3,86.4c-0.6-5.8-1.3-11.6-2-17.5c-0.2-1.4-0.5-2.8-0.7-4.1c-1.8,4-2.7,8.1-3,12.3c-0.3,4-0.3,8-0.4,12
		c0,0.4,0.1,0.8,0.3,1.2c1.2,2.7,2.4,5.4,3.5,8.2c0.7,1.8,1.2,3.7,1.8,5.8c0-0.8,0-1.3,0-1.8c0.2-3.3,0.2-6.6,0.6-9.9
		c0.2-1.8,0.8-3.5,0.1-5.3C93.4,87.1,93.4,86.8,93.3,86.4z"/>
	<path fill="none" d="M57.5,62.4c0.3,1.8,0.5,3.6,1.9,5c0.9-2.4,1.8-4.8,4.9-5.1c0.1-1.4,0-2.8-0.5-4.1c-0.9-2.3-1.4-4.7-2.2-7
		c-1.5-4.7-3.8-8.9-6.7-12.9c-0.1,0-0.3,0-0.4,0.1c0.3,3.8,0.3,7.7,0.8,11.5C55.8,54.1,56.8,58.2,57.5,62.4z"/>
	<path fill="none" d="M115.3,10.6c-0.2,0-0.3,0-0.5-0.1c-0.3,1.5-0.9,3.1-1,4.6c-0.3,4.9,0.2,9.8-0.7,14.5c0.9,0.6,1.8,1.1,2.5,1.5
		C115.5,24.4,115.4,17.5,115.3,10.6z"/>
	<path fill="none" d="M50.3,62c-0.6-0.8-1.3-1.6-2-2.3c-0.1,0-0.2,0.1-0.3,0.1c-0.1,0.8-0.5,1.8-0.3,2.5c1,3.4,2,6.7,3.2,10
		c1.8,5,5.1,9.2,7.7,13.7c0.1,0.2,0.3,0.4,0.4,0.4c1.3,0.3,2.6,0.7,4.1,1c-0.9-2.2-1.6-4.2-2.4-6.1C57.7,74.5,54.6,67.9,50.3,62z"/>
	<path fill="none" d="M36.7,30.2c2.4,2.8,3.8,6.3,5.1,9.6c1.8,4.5,3.3,9.2,4.9,13.8c0.1,0.4,0.4,0.9,0.7,1c1.2,0.5,2.5,0.8,3.6,1.1
		c-0.5-3.7-0.9-7.6-1.4-11.5c-0.4-0.1-1.1-0.1-1.4-0.4c-1.1-1-2.3-1.9-3.1-3.1c-1.5-2.2-2.8-4.5-4.2-6.7c-1.4-2.3-2.8-4.7-4.2-7
		c-0.1,0-0.2,0.1-0.3,0.1c0,0.8,0,1.6,0,2.4C36.5,29.7,36.6,30,36.7,30.2z"/>
	<path fill="none" d="M44.2,67.9c-1.1-3.6-2.3-7.3-1.3-11.2c0.1-0.2,0-0.5-0.1-0.7c-2-5.8-4-11.7-6-17.5c-0.5-1.4-1.2-2.6-1.8-4
		c-0.1,0-0.2,0.1-0.3,0.1c0.3,3.1,0.4,6.1,0.8,9.2c1,7.5,3.1,14.7,5.9,21.7c2.4,6,5,12,7.5,17.9c0.1,0.3,0.4,0.8,0.7,0.9
		c0.9,0.3,1.8,0.4,2.9,0.6c-0.2-0.4-0.3-0.6-0.5-0.8C48.4,79.1,45.9,73.7,44.2,67.9z"/>
	<path fill="none" d="M52.4,32.8c-3.9-8.4-8.2-16.1-9.8-17.4c0.1,5.7,5.2,16.9,7.5,20.3C50.8,34.8,51.6,33.9,52.4,32.8z"/>
	<path fill="none" d="M39.8,23.1c-0.3-0.9-0.5-1.8-0.8-2.7c-0.1,0-0.3,0.1-0.4,0.1c0.3,0.9,0.5,1.8,0.8,2.7
		C39.6,23.2,39.7,23.1,39.8,23.1z"/>
	<path fill="none" d="M38.9,78.1c-2.8-3.9-5.4-7.9-8.2-11.8c-2.6-3.6-5.2-7.2-8.5-10.1c-0.4-0.3-0.8-0.6-1.2-0.9
		c-0.1,0.1-0.2,0.2-0.2,0.2c0.6,1.1,1.1,2.3,1.8,3.3c4,5.8,8.1,11.6,12.2,17.4c1.4,1.9,3,3.7,3.7,6.1c1.9,0.3,3.8,0.6,5.7,0.9
		C42,81.9,40.4,80.1,38.9,78.1z"/>
	<path fill="none" d="M24.4,70.6c-1.2-0.9-2.5-1.7-3.7-2.6c-2-1.7-4-3.4-5.9-5.2c-0.1,0-0.1,0.1-0.2,0.1c0.3,0.8,0.6,1.7,1,2.5
		c2.7,5.5,6.5,10.2,10.6,14.7c0.1,0.1,0.2,0.2,0.3,0.2c1.9,0.4,3.9,0.8,5.7,1.1c-2.3-3.4-4.6-6.7-7-10C25,71.1,24.7,70.8,24.4,70.6z
		"/>
	<path fill="none" d="M172.1,264.4c-0.9,1-1.8,2-2.7,3.2c1.2-0.9,2.2-1.6,3.2-2.4C172.4,264.8,172.2,264.5,172.1,264.4z"/>
	<path fill="none" d="M221,25.3c1,6.6,1.2,13.3-0.3,20c0.5,0,0.9,0.1,1.4,0.1c0-0.4,0-0.8,0-1.2c0.1-4,0.4-8.1,1.6-12
		c0.5-1.4,1-2.7,0.3-4.2c-0.1-0.2-0.1-0.5-0.1-0.7c-0.2-2.2-0.2-4.5-0.7-6.7c-0.4-2-1.2-3.8-1.9-5.9c-0.3,0.3-0.3,0.3-0.4,0.4
		c-0.5,2.3-1,4.6-1.4,6.9c0,0.2,0.2,0.4,0.2,0.5C220.2,23.4,220.8,24.3,221,25.3z"/>
	<path fill="none" d="M275.1,46.4c-1.5,4.8-2.6,9.6-3.8,14.4c-0.1,0.2,0,0.4,0,0.6c0.4,1.5,0.7,3.1,1.1,4.6c0.6-0.7,1.4-1.7,2.1-2.6
		c0.1-0.1,0.2-0.4,0.2-0.6c0.3-1.8,0.3-3.7,0.9-5.5c1.6-5.2,3.3-10.4,5-15.6c0.5-1.6,0.9-3.2,1.4-5c-0.3,0.2-0.4,0.3-0.5,0.3
		C278.4,39.5,276.2,42.7,275.1,46.4z"/>
	<path fill="none" d="M210.6,38.5c0.1-0.2,0.2-0.4,0.2-0.5c1.8-6.8,3.6-13.6,5.3-20.5c0.3-1.1,0.4-2.3,0.5-3.4c-0.1,0-0.2,0-0.3-0.1
		c-0.2,0.3-0.4,0.6-0.6,1c-1,2.4-2.2,4.8-2.9,7.3c-1.3,4.6-2.4,9.2-3.5,13.8c0,0.2,0,0.4,0.1,0.6C209.7,37.3,210.1,37.9,210.6,38.5z
		"/>
	<path fill="none" d="M214.8,73c0-1.4-0.5-2.7-0.8-4.1c-0.2,0-0.3,0-0.5,0c-0.8,1.8-1.5,3.5-2.3,5.3c-0.2,0.4-0.4,0.7-0.6,1.1
		c-0.2,0.4-0.5,0.7-0.5,1.1c-0.1,2.4-0.1,4.8-0.3,7.2c0,0.8,0.1,1.3,0.9,1.7c0.7,0.4,1.2,1.1,1.7,1.7c0.8,1,1.4,2.1,2.2,3.3
		c0-0.3,0-0.5,0-0.6c-0.6-3.5-0.6-7-0.2-10.5C214.6,77.1,214.8,75,214.8,73z"/>
	<path fill="none" d="M211.7,64.4c-0.2-0.7-0.5-1.4-0.7-2.1c-0.7-4.6-1.4-9.2-2.1-13.8c-0.3-2.1-0.8-4.2-1.2-6.2
		c-0.1,0-0.2,0-0.3,0.1c0.7,7.8,1.9,15.5,4,23.1C211.7,65,211.8,64.7,211.7,64.4z"/>
	<path fill="none" d="M238.2,80.6c-1.4-1.6-1.8-3.6-2.2-5.6c-1.4-7-3.5-13.8-6.7-20.2c-0.1-0.3-0.3-0.6-0.5-0.8
		c0,11.5,4.2,22.1,6.7,33.3c1-2,1.9-3.8,2.8-5.5C238.4,81.4,238.4,80.8,238.2,80.6z"/>
	<path fill="none" d="M227,76.8c-0.1-0.7-0.1-1.5-0.4-2.2c-0.1-0.4-0.6-0.7-1-1.1c-0.3,0.4-0.9,0.7-1,1.1c-0.2,0.8-0.2,1.7-0.2,2.5
		c0,4.6,0,9.2-0.1,13.8c0,1,0,1.9,1.3,2.2c0.5,0.1,1,0.7,1.4,1.2c1,1.4,2,2.8,3,4.2c0.2,0.3,0.4,0.6,0.6,0.8c0.1,0,0.1-0.1,0.2-0.1
		c-0.2-1.4-0.5-2.8-0.7-4.1C229.1,89.1,228.1,83,227,76.8z"/>
	<path fill="none" d="M217.6,46.9c0.2-2,0.1-4,0.2-6c0.1-4.1,0.2-8.2,0.2-12.3c0-0.1-0.1-0.2-0.2-0.4c-0.1,0.3-0.2,0.4-0.3,0.6
		c-1.3,4.3-2.2,8.7-2.4,13.2c-0.1,3-0.1,6-0.2,9.1c0,1-0.3,1.9-0.5,2.9c-0.1,0.6-0.3,1.1-0.3,1.7c0.1,2.7,0.2,5.4,0.4,8.1
		c0,0.3,0.2,0.6,0.4,0.9c0.1-0.1,0.2-0.1,0.3-0.2c0.5-4,1.1-8.1,1.6-12.1C217,50.7,217.4,48.8,217.6,46.9z"/>
	<path fill="none" d="M218,78.4c-0.2,0.6-0.2,1-0.4,1.4c-1.3,2-0.7,4.3-0.7,6.5c0,1.5,0.8,3,0.8,4.5c0.2,3.1,0.1,6.2,0.1,9.4
		c0,1.3-0.2,2.7-0.1,4c0.2,2.3,0.5,4.6,0.8,6.9c0.2,1.7,0.5,3.4,0.7,5.1c0.1,0,0.2,0,0.2-0.1c-0.1-0.5-0.2-1-0.2-1.4
		c-0.1-4.4-0.2-8.7-0.2-13.1c0-2.1,0.2-4.3,1.2-6.3c0.1-0.2,0.1-0.5,0.1-0.8c0-3.4,0.1-6.8,0-10.1C220.3,82.1,219,80.4,218,78.4z"/>
	<path fill="none" d="M225.4,68.3c-0.8-3.3-1.6-6.6-2.5-9.9c-0.5-2-1-4.1-1.5-6.1c-0.6,2.7-0.9,5.5-1.3,8.2
		c-0.6,4.1-1.2,8.3-1.8,12.4c0,0.3-0.1,0.7,0,0.9c0.9,1.1,1.9,2.1,2.9,3.1c0,0,0,0,0.1-0.1c0.1-0.2,0.1-0.5,0.2-0.7
		c0.5-1.9,0.6-4,2.6-5.2C224.8,70.5,225.7,69.6,225.4,68.3z"/>
	<path fill="none" d="M266.6,41.1c1.7-2.7,3.5-5.3,5.1-8.1c0.5-0.8,0.6-1.9,1-3.1c-2.6,1.4-8.2,8.6-9.2,11.4c0.5,0.8,1,1.4,1.4,2.1
		C265.6,42.7,266.1,41.9,266.6,41.1z"/>
	<path fill="none" d="M275.7,29c0.1-0.1,0.2-0.1,0.3-0.2c0.9-2.4,1.8-4.8,2.7-7.3c-0.1,0-0.2-0.1-0.3-0.1c-0.4,0.4-0.7,0.9-1.1,1.2
		c-1.1,0.9-2.1,1.9-3.3,2.5c-0.9,0.4-1.4,1-2.1,1.9C273.8,26.5,275.2,26.7,275.7,29z"/>
	<path fill="none" d="M267.4,60.1c0.4-1.8,0.7-3.7,1.1-5.5c0.3-1.6,0.7-3.1,1.1-4.7c-1.5,1.7-2.8,3.4-4,5.2
		c-0.1,0.2-0.2,0.4-0.2,0.6c-0.2,2.2-0.4,4.4-0.6,6.7c0.7-0.4,1.3-0.7,1.8-1.1C266.9,61,267.3,60.5,267.4,60.1z"/>
	<path fill="none" d="M267.4,27.8c-0.1-0.1-0.1-0.1-0.2-0.2c-2,1.9-3.9,3.8-5.9,5.7c-0.1,0.1-0.2,0.2-0.2,0.4c0,1.4,0,2.8,0,4.4
		c1.7-2.3,3.3-4.5,4.9-6.6c-0.6-0.6-0.4-1.1,0.1-1.8C266.7,29.1,267,28.4,267.4,27.8z"/>
	<path fill="none" d="M231.1,28.5c0,0.1,0,0.2,0,0.3c0.1,2,0,4,0.3,6c0.6,3.8,2.4,7.2,4.3,10.5c0.6,1,1.2,2,2,3.2
		c0.1-1.9,0.2-3.5,0.2-5c0-0.3-0.1-0.5-0.2-0.8c-0.6-1.3-1.4-2.5-1.9-3.9c-1.9-5.3-3.8-10.5-6.5-15.4c-0.4-0.7-0.8-1.4-1.2-2
		c-0.1,0-0.3,0-0.4,0c-0.2,1.3-0.3,2.6-0.5,4.1C230,25.3,230.9,26.1,231.1,28.5z"/>
	<path fill="none" d="M247.2,46.9c0-1.3-0.1-2.5-0.2-3.7c-0.2-4.7-0.2-9.3-0.5-14c-0.1-2-0.5-4.1-0.7-6.1c-0.2,0-0.4,0-0.6,0
		c-0.2,1.3-0.5,2.7-0.5,4c-0.1,2.9,0.2,5.9,0,8.8c-0.2,3,0.2,5.8,1.6,8.5C246.6,45.2,246.8,46.1,247.2,46.9z"/>
	<path fill="none" d="M224.9,50c0.9-0.6,1.8-1.2,2.9-2c0-5.5,0-11.3,0-17c-0.5,0.9-0.9,1.8-1.1,2.8c-0.5,3.4-1,6.8-1.5,10.2
		c-0.2,1.3-0.2,2.5-1.3,3.4C224.3,48.3,224.6,49.2,224.9,50z"/>
	<path fill="none" d="M271.3,44.4c1.1-2.2,2.3-4.4,3.3-6.5c-3.9,3-6.5,7.3-9.3,11.5c0.3,0,0.3-0.1,0.4-0.2c1.5-1.7,2.8-3.7,5.2-4.4
		C271.1,44.8,271.2,44.6,271.3,44.4z"/>
	<path fill="none" d="M265.2,24.6c2.6-2.2,5.3-4.2,8.6-5.4c0.7-0.2,1.3-0.6,1.9-1.1c1.1-1,2.2-2.2,3.3-3.3c0.5-0.5,0.9-1,1.3-1.6
		c-0.1-0.1-0.2-0.2-0.3-0.4c-0.5,0.2-1,0.4-1.5,0.7c-0.4,0.2-0.7,0.4-1.1,0.5c-0.7,0.1-1.4,0-2,0.3c-1.6,0.6-3.2,1.3-4.8,2.1
		c-4,1.9-7.6,4.5-11,7.1c0.4,1.8,0.8,3.5,1.2,5.3C262.3,27.3,263.7,25.9,265.2,24.6z"/>
	<path fill="none" d="M212.4,101.6c-0.4-3.6-0.9-7.3-2.3-10.7c-0.3-0.7-0.7-1.4-1-2.1c-0.1,0-0.2,0-0.3,0c-0.1,0.8-0.4,1.7-0.4,2.5
		c-0.2,5.7,0.8,11.2,1.5,16.8c0.4,2.8,2,4.5,3.9,6.3c0-0.5,0.1-1,0-1.5C213.3,109.1,212.8,105.4,212.4,101.6z"/>
	<path fill="none" d="M293.5,84.6c2.7,0.3,3.4,0.2,3.7-1.1c-1.3,0.3-2.6,0.5-3.8,0.8C293.4,84.4,293.4,84.5,293.5,84.6z"/>
	<path fill="none" d="M288.7,74c-3.1,2.4-6.2,4.9-9.3,7.3c-0.1,0.1-0.2,0.3-0.3,0.4c-0.6,1-1.1,2-1.7,2.9c1.4,0.7,4.1,0,5.1-1.2
		c1.9-2.5,3.8-5,5.8-7.5c0.7-0.9,1.4-1.8,2.1-2.7c0-0.1-0.1-0.1-0.1-0.2C289.8,73.3,289.2,73.6,288.7,74z"/>
	<path fill="none" d="M157.4,41c0.2,0.6,0.4,1.4,0.2,2c-0.3,1,0,1.6,0.2,2.2c0.9-0.4,1.7-1,2.5-1c0.8,0,1.7,0.5,2.7,0.9
		c-0.7-1.8-1.3-3.6-2-5.3c-0.5-1.3-1.4-2.4-1.8-3.7c-0.9-2.6-1.6-5.2-2.4-7.8c-0.7-2.1-1.5-4.2-2.3-6.4c-0.1,0-0.2,0-0.2,0
		c0,0.2-0.1,0.3-0.1,0.5c0.2,3.3,0,6.6,0.6,9.7C155.3,35.1,156.5,38,157.4,41z"/>
	<path fill="none" d="M292.8,81.9c2,0.2,3.7,0.4,6,0.6c1.9-1.8,4.2-3.9,6.4-6c-0.1-0.1-0.1-0.2-0.2-0.3
		C300.7,77.5,296.8,79.6,292.8,81.9z"/>
	<path fill="none" d="M309,84.9c1.1,0.1,2,0.2,2.9,0.1c0.4,0,1-0.2,1.2-0.5c2.3-3,4.5-5.9,6.7-9c0.6-0.8,1-1.7,1.5-2.5
		C316.6,76.5,312.8,80.5,309,84.9z"/>
	<path fill="none" d="M312.4,67.4c-5.4,0.8-9.4,3.4-13.1,7c3.4-1.1,6.6-2.8,10.4-2.1C310.5,70.8,311.4,69.2,312.4,67.4z"/>
	<path fill="none" d="M173.3,273.3c-0.9-2.6,1.7-3.4,2.7-5c-0.2,0-0.4,0.1-0.6,0.2c-0.8,0.7-1.5,1.5-2.3,2.1
		c-0.9,0.7-1.8,1.3-2.8,1.8c-0.2,0.1-0.6,0-1,0c0-0.3,0-0.7,0.1-1c0.1-0.3,0.3-0.5,0.6-1c-0.8,0.5-1.3,0.8-1.9,1
		c-0.4,0.2-1,0.1-1.5,0.1c0-0.5,0.1-1,0.1-1.4c0,0-0.1-0.1-0.1-0.1c-1.5,1.1-1.5,1.1-1,2.9C168.2,273,170.7,273.1,173.3,273.3z"/>
	<path fill="none" d="M178.4,269.5c-1.2-0.3-1.5,0.7-2.2,1.1C177.4,271.1,177.8,270.2,178.4,269.5z"/>
	<path fill="none" d="M283.1,61.7c-0.1-0.1-0.2-0.1-0.3-0.2c-1.1,0.7-2.2,1.4-3.3,2.2c-3.8,2.9-6.3,6.9-8.1,11.2
		c-1.6,3.8-3.1,7.6-4.7,11.4c-0.1,0.1-0.1,0.3-0.2,0.6c1.7-0.3,3.3-0.6,4.8-0.9c0.2-0.1,0.5-0.4,0.6-0.6c1-1.9,2-3.9,3.1-5.8
		c2.8-5,5.3-10.1,7.3-15.5C282.7,63.3,282.9,62.5,283.1,61.7z"/>
	<path fill="none" d="M259.4,68.4c0.5-5.1,1.1-10.2,1.6-15.3c0.2-1.8,0-3.6,0-5.5c-1.8,1.9-4,8.4-5.3,14.8c-0.6,2.9-1,14.2-0.7,15.6
		c1.4-2.9,2.8-5.9,4.2-8.9C259.4,68.9,259.4,68.6,259.4,68.4z"/>
	<path fill="none" d="M248.9,73.7c-0.9-4.9-1.8-10.1-2.9-15.3c-1.1-5.1-2.5-10.2-4.2-15.1c-0.7,11.1,0.3,22,3,32.6
		C246.3,75.1,247.6,74.4,248.9,73.7z"/>
	<path fill="none" d="M240,22.5c-0.9-3.8-1.7-7.7-2.6-11.6c-2,4.6,0.7,22.9,3.9,26.4c0.1-0.2,0.1-0.4,0.1-0.6c0-3.2,0-6.4,0-9.6
		c0-0.3-0.1-0.5-0.2-0.8C240.8,25,240.3,23.8,240,22.5z"/>
	<path fill="none" d="M238.1,57.5c0-0.3-0.1-0.6-0.3-0.9c-1.1-2-2.2-4.1-3.3-6.1c-1-1.9-2.1-3.8-3.2-5.9c-0.2,1.9-0.5,3.5-0.6,5.2
		c0,0.3,0.1,0.6,0.3,0.8c3.7,5.7,6.6,11.8,8,18.4c0.6,3,1.1,6,1.7,9.1c0.4-0.5,0.8-1.1,0.7-1.6C239.6,70.4,238.6,64,238.1,57.5z"/>
	<path fill="none" d="M246.2,116.3c-1.5,1.1-2.3,2.6-2.6,4.4c-0.3,1.9-0.7,3.8-1.1,5.7c0.1,0.1,0.2,0.1,0.4,0.2c2-2.7,4-5.6,6.2-8.2
		c1.4-1.6,1-3.3,0.9-5.2C248.6,114.3,247.4,115.4,246.2,116.3z"/>
	<path fill="none" d="M257.4,43.3c-0.2-2.9-0.1-5.9-0.1-8.8c0-1.2-0.2-2.5-0.3-3.7c-0.1,0-0.3,0-0.4,0c-1.3,9.1-2.6,18.2-4,27.3
		c0.1,0,0.1,0,0.2,0c0.1-0.3,0.2-0.7,0.3-1c1-2.9,1.9-5.9,3.2-8.8C256.9,46.7,257.5,45.2,257.4,43.3z"/>
	<path fill="none" d="M237.1,95.7c-0.4,1.4-0.7,2.9-0.6,4.2c0.4,3.8,0.6,7.6,0.3,11.4c-0.1,1.4,0.4,2.5,0.8,3.8
		c1-0.8,1.5-1.6,1.4-2.9c-0.3-8.3,0.3-16.6,1.1-24.9c-0.1,0-0.2-0.1-0.3-0.1C238.9,89.9,237.9,92.8,237.1,95.7z"/>
	<path fill="none" d="M267.7,65.1c-0.1,0-0.2,0.1-0.3,0.1c-0.2,0.2-0.5,0.4-0.7,0.7c-3.1,3.1-5.1,7-6.7,11
		c-1.5,3.8-2.6,7.8-3.9,11.7c-0.2,0.5-0.3,1.1-0.5,1.8c1.7-0.4,2.8-1.1,3.3-2.8c0.3-1.2,1-2.2,1.5-3.3c2.2-4.3,4.5-8.7,5.9-13.4
		c0.6-1.9,1-3.8,1.5-5.6C267.9,65.2,267.8,65.2,267.7,65.1z"/>
	<path fill="none" d="M258.8,10.6c0-0.5-0.4-0.9-0.6-1.4c-0.4,0.3-1,0.4-1.2,0.8c-0.7,1.4-1.4,2.8-2,4.2c-1.5,3.9-3,7.9-4.5,11.9
		c-0.1,0.3-0.1,0.8-0.1,1.1c0.2,3.4,0.5,6.7,0.8,10.2c0.4-1.5,0.9-2.9,1.3-4.3c1.9-6.6,3.9-13.2,5.8-19.8
		C258.5,12.5,258.7,11.5,258.8,10.6z"/>
	<path fill="none" d="M249.2,78.4c-0.2,0.1-0.3,0.1-0.4,0.2c-0.2,0.2-0.4,0.3-0.5,0.5c-2.2,2.4-3,5.4-3.6,8.4
		c-0.5,2.8-0.7,5.7-0.9,8.5c-0.3,4.1-0.4,8.1-0.6,12.4c0.4-0.2,0.5-0.3,0.6-0.3c1.9-1.5,3.9-3,5.8-4.6c0.3-0.2,0.5-0.7,0.5-1.1
		c0.7-6.6,1-13.2,0.4-19.9C250.4,81.2,250.2,79.7,249.2,78.4z"/>
	<path fill="none" d="M145.1,110.8c0,0.2,0,0.4,0.1,0.5c0.8,1.1,1.6,2.2,2.5,3.5c-0.8-2.8-1.5-5.3-2.2-7.7
		C145.4,108.2,145.3,109.5,145.1,110.8z"/>
	<path fill="none" d="M187.8,103.7c-0.1,0-0.1,0-0.2,0c-0.6,2.9-1.1,5.9-2,8.8c-0.9,2.8,0.8,4.7,1.6,6.9c0.2-0.3,0.3-0.6,0.3-0.8
		c0.1-1.1,0-2.2,0.3-3.2c0.9-2.7,0.6-5.5,0.3-8.2C188.1,106,187.9,104.9,187.8,103.7z"/>
	<path fill="none" d="M186,55.8c-3.4,2.7-7.5,13.5-6.7,17.5c0.9-0.7,1.9-1.5,2.8-2.3c0.2-0.2,0.4-0.5,0.4-0.8
		c0.8-2.6,1.6-5.2,2.3-7.9c0.6-2.1,1-4.3,1.5-6.4C186.2,55.9,186.1,55.8,186,55.8z"/>
	<path fill="none" d="M128.2,45.1c0.3,1.7,0.6,3.3,1,5c0.1,0,0.2,0,0.3,0c1-6,2.1-11.9,3-17.9c0.2-1.2,0-2.5,0-3.7
		c-0.3,0.2-0.5,0.5-0.6,0.8c-1.2,3.4-2.5,6.8-3.7,10.1c-0.6,1.6-1,3.2-0.2,4.9C128.1,44.6,128.1,44.9,128.2,45.1z"/>
	<path fill="none" d="M132.1,95.8c-0.9,1.2-1,2.3-0.4,3.6c1,2.4,1.8,4.8,2.6,7.2c-0.2-4.6-0.4-9.2-0.6-13.9
		C133.2,93.7,132.8,94.9,132.1,95.8z"/>
	<path fill="none" d="M182.1,76c-2.1,5.5-1.9,11.2-1.1,16.9C181.9,87.3,182.7,81.7,182.1,76z"/>
	<path fill="none" d="M130.1,60.1c0,2,0,4.1,0,6.4c1-1.4,1.8-2.6,2.6-3.8c0.1-0.1,0.1-0.3,0.1-0.5c0.3-1.5,0.6-3,1-4.4
		c1.1-3.8,2.4-7.6,3.5-11.5c0.7-2.6,0.6-5.4,0.3-8.2c-0.7,0.8-1.5,1.6-1.8,2.5c-1.2,3.2-2.2,6.4-3.2,9.7c-1,3.1-0.9,6.4-2.5,9.3
		C130,59.8,130.1,60,130.1,60.1z"/>
	<path fill="none" d="M182.9,97.6c-2.8,3.7-4.8,7.8-6.4,12c-0.7,1.8-1.4,3.5-1.3,5.5c0,0.7-0.3,1.6-0.7,2.2
		c-0.3,0.4-1.1,0.5-1.8,0.8c0.8,1.5,1.6,3.1,2.6,4.9c0.1-0.4,0.2-0.5,0.2-0.5c0-0.9,0.1-1.8,0.1-2.6c0-1.1,0.5-1.8,1.3-2
		c0.9-0.1,1.6,0.4,2,1.4c0.2,0.6,0.3,1.3,0.5,2.1c0.8-2,1.6-3.9,1.4-5.9c0-0.6-0.1-1.2,0.1-1.8c0.7-3.9,1.6-7.8,2.3-11.7
		c0.3-1.6,0.3-3.2,0.4-4.8C183.1,97.3,183,97.5,182.9,97.6z"/>
	<path fill="none" d="M196.2,79c0.7-1.5,1.1-3.1,1.7-4.9c-0.3,0.1-0.4,0.2-0.5,0.2c-0.5,0.6-1,1.2-1.6,1.9c-3.2,4-5.4,8.6-7.9,12.9
		c-0.1,0.2-0.2,0.6-0.1,0.8c0.6,2.4,1.3,4.7,2,7.1c0.1,0,0.2,0,0.3,0c0.3-0.9,0.7-1.7,0.9-2.7c0.6-3,1-5.9,1.7-8.9
		c0.4-1.6,1-3.1,1.8-4.6C194.9,80.2,195.9,79.8,196.2,79z"/>
	<path fill="none" d="M148.2,68.9c0,0.2,0.2,0.4,0.3,0.6c0.6,0.9,1.4,1.8,1.8,2.8c1,2.6,1.7,5.3,2.6,7.9c0.1,0.2,0.2,0.5,0.3,0.9
		c0.3-1.8,0.5-3.4,0.7-5c0.1-0.5-0.1-1-0.2-1.5c-0.5-2.3-1.1-4.5-1.5-6.8c-1-5.7-1.8-11.5-2.8-17.2c-0.3-1.9-0.9-3.7-1.4-5.8
		c-1.1,1.1-1.6,2.2-1.6,3.4c0,3.3,0,6.7,0.3,10C147,61.7,147.7,65.3,148.2,68.9z"/>
	<path fill="none" d="M140.1,30.8c0.4-1.9,1.2-3.7,1.3-5.6c0.2-2.8-0.1-5.5-0.3-8.3c0-0.8-0.3-1.6-0.5-2.5c-0.1,0-0.2,0-0.3,0
		c-0.3,0.6-0.7,1.3-0.8,1.9c-0.6,2.9-1.2,5.8-1.7,8.7c-0.2,1.2-0.2,2.5-0.5,3.7c-0.2,0.8-0.8,1.6-0.9,2.4c-0.2,1.5-0.2,3-0.3,4.4
		c1-0.2,2-0.4,3.2-0.7C139.5,33.5,139.8,32.1,140.1,30.8z"/>
	<path fill="none" d="M141.8,50c0.3,0.5,0.5,1.1,0.7,1.6c0.3,0.8,0.5,1.6,0.8,2.4c0.4-2.9,0.2-5.8-1.7-8.2
		C140.9,48,140.9,48.3,141.8,50z"/>
	<path fill="none" d="M145.2,40.5c0-1.9,0.2-3.9,0.2-5.8c0-2.4-0.1-4.8-0.1-7.3c0-0.5,0-1.1,0-1.6c-0.2,0.2-0.3,0.3-0.4,0.5
		c-1.5,4.6-2.3,9.3-2.7,14.1c0,0.3,0,0.7,0.1,0.9c0.8,1.1,1.6,2.1,2.4,3.1c0.1,0,0.2,0,0.3,0c0.1-0.6,0.2-1.3,0.3-1.9
		C145.3,41.9,145.2,41.2,145.2,40.5z"/>
	<path fill="none" d="M148.8,24.9c-0.1,0.6,0,1.2,0.1,1.8c1.3-0.4,1.6-1.2,1.6-2.3c0-1.1,0.1-2.2,0.2-3.3c0.2-2,1.3-3.9,0.4-6
		c-0.1-0.3-0.1-0.7-0.2-1c-0.6-2.6-1.2-5.2-1.8-7.9c-0.3,0.3-0.5,0.5-0.5,0.8c-0.1,2.7-0.4,5.3-0.3,8
		C148.4,18.4,149.4,21.6,148.8,24.9z"/>
	<path fill="none" d="M148.4,77.5c-0.3-1.5-0.8-2.9-1.1-4.3c-0.2,0-0.3,0-0.5,0c-0.2,1.6-0.5,3.2-0.6,4.8c-0.1,5.7,0.5,11.4,1.3,17
		c0.3,2.2,0.7,4.4,1,6.6c0.1,0,0.1,0,0.2,0c0-0.2,0.1-0.4,0.1-0.5c0.6-2.2,1-4.5,1.8-6.6c0.6-1.7,0.9-3.1,0.4-5
		C149.9,85.6,149.2,81.5,148.4,77.5z"/>
	<path fill="none" d="M177.4,97.6c0-0.1,0.1-0.1,0.1-0.2c-0.2-0.7-0.5-1.5-0.7-2.2c-0.1-0.2-0.1-0.3-0.1-0.5
		c-0.8-4.3-1.5-8.6-2.3-12.8c-0.4-2.1-1.1-4.2-1.6-6.4c-0.7,8.5,1.1,16.7,2.9,25C176.2,99.5,176.8,98.5,177.4,97.6z"/>
	<path fill="none" d="M141.6,67.5c-0.3,1.1-1.4,1.6-1.5,2.9c-0.1,1.5-0.5,2.9-0.7,4.3c-0.2,1.2-0.5,2.3-0.8,3.5
		c3,0.3,3.1,2.9,4.1,5.2c0-2.2,0-4.1,0-6c0-2,0.4-3.8,1.3-5.6c0.1-0.2,0.3-0.5,0.2-0.7c-0.3-1.8-0.6-3.6-1.7-5.3
		C142.1,66.5,141.8,67,141.6,67.5z"/>
	<path fill="none" d="M141.1,107.6c0.1-0.1,0-0.3,0-0.5c-0.3-4-0.5-8-0.9-12c-0.3-3.1-0.8-6.2-1.2-9.3c-0.1,0-0.2,0-0.3,0
		c-0.1,0.9-0.4,1.8-0.4,2.7c0.1,5.6,0.3,11.2,0.5,16.7c0.1,3.2,0.2,6.4,0.1,9.6c0,1.5,0.6,2.3,1.5,3c0.5-1,1-1.9,1.5-2.9
		c0.3-0.5,0.7-1.1,0.6-1.6c-0.2-1.2-0.6-2.4-1.2-3.5C141.1,109.1,139.9,108.6,141.1,107.6z"/>
	<path fill="none" d="M158.4,87.3c-0.9,1.4-1.8,2.7-2.6,4.2c-3.4,6.4-4,13.5-4.4,20.6c-0.1,0.9,0.5,1.6,1.3,2.2
		c-0.3-1.1-0.7-2-0.8-2.9c-0.1-0.5,0.3-1.2,0.7-1.5c0.4-0.2,1.2-0.1,1.6,0.2c0.6,0.4,1.1,1.1,1.9,1.9c-0.1-0.6,0-1-0.1-1.3
		c-0.9-1.5-0.8-3.1-0.5-4.6c0.6-3.4,1.4-6.9,2.1-10.3c0.6-3,1.2-6,1.9-9c-0.1,0-0.2-0.1-0.3-0.1C158.8,86.9,158.5,87.1,158.4,87.3z"
		/>
	<path fill="none" d="M175.7,72.4c-2.5-5.8-3.9-11.8-4.9-18c-1.4,5.1-0.4,10.2-1.2,15.5C173,67.7,174.1,70.5,175.7,72.4z"/>
	<path fill="none" d="M166.6,94.6c-0.8-3.3-1.7-6.5-2.6-9.7c-0.1-0.4-0.4-0.8-0.6-1.2c-0.1,0-0.2,0-0.3,0c-0.1,0.6-0.3,1.1-0.3,1.7
		c-0.2,2.4-0.3,4.9-0.5,7.3c0,0.3-0.1,0.7,0,0.9c1.1,2.6,1.2,5.4,1.6,8.1c0.4,2.6,0.8,5.1,1.2,7.9c0.3-0.5,0.4-0.8,0.6-1
		c0.5-0.5,1.1-0.5,1.5,0.1c0.6,0.9,1.1,1.9,1.7,2.8c0.4,0.7,0.8,1.4,1.3,2c0.2,0,0.3-0.1,0.5-0.1c-0.1-1-0.1-2-0.4-3
		C169.1,105.2,167.9,99.9,166.6,94.6z"/>
	<path fill="none" d="M163.2,66c0.2,2.9,0.3,5.9,0.3,8.8c0,1.6-0.3,3.2-0.5,4.9c2.2-0.3,3.3,1.1,4.5,2.9c0-0.5,0-0.7-0.1-0.9
		c-0.6-4.7-1.3-9.3-1.9-14c-0.8-5.7-1.7-11.3-3.6-16.7c-0.4-1.1-0.8-2.1-1.2-3.2c-0.4,0.5-0.6,0.9-0.6,1.4
		c-0.5,4.4-0.2,8.8,0.4,13.1c0,0.2,0.2,0.5,0.4,0.5C162.6,63.2,163,64.6,163.2,66z"/>
	<path fill="none" d="M135.8,62.9c-1.2,1.7-2.4,3.4-3.4,5.3c-2.9,5.6-3.9,11.7-4.2,17.9c-0.1,1.2-0.2,2.5-0.3,3.6
		c1,0.1,1.7,0.2,2.8,0.3c1.9-6,3.8-12.1,5.6-18.3c1-3.4,1.3-6.9,1.5-10.7C137,61.7,136.3,62.2,135.8,62.9z"/>
	<path fill="none" d="M156.4,84c1.1-0.8,2.2-1.4,3.3-2.2c0.3-4.9,0.6-9.8,0.9-14.8c-0.1,0-0.3,0-0.4,0
		C157.7,72.4,157.1,78.2,156.4,84z"/>
	<path fill="none" d="M294.7,51.6c-3.6,1.3-6.6,3.4-9.3,5.8c0.8,0.9,1.5,1.6,2.3,2.5c2.3-2.6,4.8-5.3,7.2-8
		C294.8,51.8,294.8,51.7,294.7,51.6z"/>
	<path fill="none" d="M152.1,36.6c-0.4-1.9-0.9-3.7-1.3-5.5c-0.1,0-0.2,0-0.3,0c-0.6,3.1-1.2,6.2-1.7,9.3c-0.3,1.7-0.2,1.8,1.4,2.5
		C150.5,40.6,149.6,38.1,152.1,36.6z"/>
	<path fill="none" d="M205.6,61.5c-0.2,0-0.3,0-0.5,0c-2.5,9.1-2.3,18.3-0.7,27.6c0.1,0,0.2,0,0.3,0c0.4-0.9,0.9-1.9,1.3-2.8
		c0.1-0.3,0.2-0.6,0.2-0.9c0-5.9,0-11.7-0.1-17.6C206.1,65.6,205.8,63.6,205.6,61.5z"/>
	<path fill="none" d="M321,49.5c-3,2.5-5.9,5-9.1,7.6c0.5,2.1-0.8,4-2,5.9c3.9-4.4,8.5-8.1,11.3-13.3
		C321.2,49.6,321.1,49.6,321,49.5z"/>
	<path fill="none" d="M290.5,66.9c-2.1,1.6-4.1,3.4-6,5.1c-0.7,0.6-1.1,1.5-1.6,2.2c0.1,0.1,0.2,0.1,0.3,0.2c0.4-0.3,0.9-0.7,1.3-1
		c2.7-2.1,5.5-4,8.9-4.9c1.3-0.4,2.6-0.6,3.5,0.9c3.6-3.5,7.9-5.9,10.8-10c0-0.1-0.1-0.2-0.1-0.3c-0.4,0-0.9-0.1-1.3,0
		C300.5,60.9,295.2,63.2,290.5,66.9z"/>
	<path fill="none" d="M200.4,80.4c0-0.9,0-1.7,0-2.5C200.2,78.8,199.1,79.5,200.4,80.4z"/>
	<path fill="none" d="M140.5,63.5c0.5-0.4,1-0.8,1.6-1.2c-0.8-2.8-1.7-5.6-2.6-8.5c-0.8,2-1.5,3.8-2.2,5.7
		C140.6,59,139.9,61.8,140.5,63.5z"/>
	<path fill="none" d="M155.4,63.1c0.2,1.5,0.4,3,0.5,4.7c0.7-1.1,1.3-2.1,1.9-3.1c0.1-0.2,0.1-0.6,0-0.9c-0.3-1.6-0.8-3.3-1-4.9
		c-0.4-3.1-0.6-6.2-1.1-9.2c-0.4-2.3-1.2-4.5-1.8-6.7c-0.1,0-0.1,0-0.2,0.1c-0.3,1.4-0.4,2.9-0.8,4.2c-0.4,1.1-0.4,2.1-0.1,3.2
		C154.2,54.6,154.9,58.8,155.4,63.1z"/>
	<path fill="none" d="M203.3,53.5c-0.8-4.4-2.9-8.3-4.9-12.2c-0.6-1.1-1.4-2.2-2.2-3.2c-0.3-0.4-0.9-0.7-1.3-1
		c-0.1,0.1-0.2,0.2-0.3,0.2c1.5,7.9,5.3,15,8.3,22.6c0.4-0.7,1-1.3,1-1.9C203.8,56.6,203.6,55.1,203.3,53.5z"/>
	<path fill="none" d="M196.7,86.1c-0.7,4.1-1.4,8.3-2.1,12.4c-0.3,1.8-0.9,3.6,0.1,5.4c0.1,0.1,0,0.3,0,0.5c0.3,3,0.6,5.9,0.9,8.9
		c0.4,0.1,0.8,0.2,1.2,0.4c1.1-9.7,3.4-19.4,0.5-29.1C197.1,85.1,196.8,85.6,196.7,86.1z"/>
	<path fill="none" d="M280.5,56.5c1-0.8,2.4-1.2,2.7-2.8c0.1-0.6,0.7-1.1,1.2-1.6c0.8-0.8,1.7-1.4,2.6-2.2c3.9-3.2,7.8-6.4,11.7-9.7
		c0.8-0.7,1.4-1.6,2-2.4c-0.5-0.1-0.8,0-1.1,0.2c-2.4,1.2-4.8,2.4-7.2,3.6c-1.2,0.6-2.4,1.2-2.5,2.8c0,0.2-0.1,0.3-0.2,0.5
		c-1.3,1.8-2.6,3.8-4.1,5.5c-0.7,0.9-1.9,1.3-2.9,2c-0.3,0.2-0.7,0.4-0.8,0.7C281.4,54.3,281,55.4,280.5,56.5z"/>
	<path fill="none" d="M292.7,36.5c0.3-1.2,0.5-2.4,0.8-3.8c-1.6,2.1-3.2,4.2-4.8,6.2c1.2-0.5,2.3-1.1,3.4-1.8
		C292.4,37,292.6,36.7,292.7,36.5z"/>
	<path fill="none" d="M286.5,35.4c2.5-3.3,4.8-6.3,7.1-9.4c-0.1-0.1-0.2-0.2-0.3-0.3c-3.2,2-6.3,3.9-9.7,6
		C285.8,32,286.4,33.4,286.5,35.4z"/>
	<path fill="none" d="M294.2,58.6c-0.9,1-1.9,2-3,3.1c3-1.4,5.8-2.7,8.6-4.1c0.3-0.1,0.5-0.4,0.7-0.7c0.9-1.6,1.7-3.4,2.8-4.9
		c1.1-1.7,2.5-3.3,3.7-5c1.3-1.7,2-3.7,2.3-5.9c-3,4.3-7.3,7.4-10.1,11.8C297.9,55,295.9,56.7,294.2,58.6z"/>
	<path fill="none" d="M286,44.9c-0.1-0.1-0.1-0.2-0.2-0.3c-0.5,0.2-1.2,0.3-1.4,0.7c-0.4,0.9-0.6,1.9-0.9,2.9c0.1,0,0.1,0,0.2,0.1
		C284.5,47.2,285.2,46.1,286,44.9z"/>
	<path fill="none" d="M296.4,47.5c1.2,0.3,1.9,0.1,2.5-0.8c0.3-0.5,0.7-0.9,1.1-1.3c3.5-4.3,6.9-8.7,9.7-13.5
		c0.3-0.6,0.6-1.1,0.9-1.7c-0.1-0.1-0.2-0.2-0.3-0.2c-2,1.4-3.9,2.9-5.6,4.1c0.1,1.3,0.3,2.4,0.1,3.3c-0.1,0.8-0.5,1.7-1,2.4
		c-1.5,1.9-3.1,3.7-4.8,5.5C298.2,46,297.3,46.6,296.4,47.5z"/>
	<path d="M320.4,86.9c1.1-1.8,2.1-3.3,3.1-4.8c0.5-0.7,1-1.5,1.5-2.2v-4c-0.3,0.1-0.6,0.4-0.9,0.7c-0.6,0.7-1.3,1.4-2.1,2
		c0.8-1.3,1.6-2.5,2.3-3.8c0.3-0.5,0.5-1,0.7-1.4v-6.2c0-0.6,0-1.1,0-1.7c-0.4,0-0.7,0-1.1,0.2c-1.5,0.6-2.9,1.5-4.3,2.4
		c-0.8,0.5-1.6,1.2-2.5,1.9c0.7-2.5,0.9-4.7-1.1-6.4c2.1-2.4,4.3-4.7,6.3-7.2c0.5-0.6,1-1.3,1.4-1.9c-0.7-3.3-1.7-6.5-2.9-9.6
		c0,0-0.1,0-0.1,0c-0.2,0.1-0.5,0.2-0.7,0.3c-2.1,1.1-4.3,2-6.2,3.4c-2.1,1.6-3.8,3.7-5.6,5.7c-0.6,0.6-1.1,1-2,1
		c2.9-4.5,6.4-8.6,10.8-11.6c0.8-0.6,1.7-1.2,2.5-1.8c-1.2-2.7-2.6-5.2-4.2-7.7c-0.9,0.1-1.7,0.2-2.6,0.2c0.3-0.8,0.7-1.7,1.1-2.5
		c-2.4-3.5-5.2-6.7-8.3-9.6c-0.3,0.7-0.6,1.4-1,2.1c-0.8,1.6-1.6,3.1-2.3,4.7c-0.3,0.6-0.3,1.3-0.3,1.9c0,1.3-0.7,2.3-2,2.6
		c-0.8,0.2-1.6,0.5-2.7,0.9c2.2-4.6,4.8-8.8,7.8-12.8c-1.2-1.1-2.4-2.1-3.7-3.1c-0.5,1-1.1,2-1.6,3c-2.2-2.4-4.4-1.3-6.8-0.5
		c0.2-0.5,0.3-0.9,0.6-1c1.8-1,2.8-2.7,3.9-4.3c-1.7-1.1-3.4-2.1-5.1-3c-0.2,0.7-0.5,1.3-0.8,1.9c-1.5,3.1-3.1,6.1-4.6,9.2
		c-0.1,0.2-0.2,0.3-0.3,0.4c-2.1,1.3-4.2,2.5-6.5,3.9c2.5-6.3,5.6-11.9,10.3-16.4c-1.6-0.8-3.3-1.5-5-2.1c-0.5,1-0.9,1.8-1.1,2.1
		c-0.8-0.9-1.5-1.7-2.2-2.5c0.1-0.2,0.2-0.4,0.4-0.6c-1.1-0.3-2.2-0.7-3.3-0.9c-0.1,0.1-0.1,0.2-0.2,0.4c-0.6,1.2-1.4,1.6-2.6,1.7
		c0.6-0.8,1.2-1.5,1.8-2.3c-1-0.2-2.1-0.5-3.2-0.7c-4.8,4.8-10.5,8.4-16,12.4c0.5-1.7,1.1-3.4,1.6-5.1c0.1-0.2,0.3-0.4,0.5-0.5
		c4-2.6,8.1-4.9,12.4-7c-2.5-0.4-5-0.6-7.6-0.7c-0.1,0.2-0.1,0.4-0.2,0.5c-0.1,0.3-0.3,0.6-0.5,0.7c-0.8,0.5-1.6,1-2.6,1.4
		c0.5-0.9,0.9-1.8,1.2-2.7H254c-0.2,0.8-0.3,1.5-0.5,2.2c-0.4,1.3-1,2.6-1.5,3.9c-0.1,0-0.2,0-0.3,0c0-0.4,0-0.9,0-1.3
		c0-1.6,0-3.2-0.2-4.8h-3.8c0.3,4.5,0.3,10.6-0.2,13.8c-0.5-0.3-0.9-0.4-1.3-0.7c-0.2-0.2-0.5-0.5-0.5-0.7
		c-0.1-4.1-0.2-8.2,0.3-12.3h-2.4c-0.2,1.5-0.3,3-0.4,4.6c-0.2,2.5,0,5-0.2,7.6c-0.7-2.6-1.3-5.1-2-7.7c-0.5-1.5-1.2-3-1.8-4.5h-6.4
		c1.2,1.3,2,3.5,1.7,4.9c-0.8,3.8-0.5,7.7-0.1,11.5c0,0.3,0.1,0.7,0.1,1c-1.3-1.7-2.7-3.4-2.6-5.8c0.1-3.9,0.2-7.8,0.3-11.7
		c0,0,0,0,0-0.1h-7.3c0.2,1.3,0.5,2.5,0.7,3.8c0.4,2.1,1.1,4,2.5,5.7c0.4,0.5,0.3,1.4,0.4,2.2c-0.6,0.2-1.1,0.4-1.6,0.5
		c-1.4-2.9-1.7-6.4-5.1-8c-0.2-1.5-0.2-2.9,0-4.3h-4.4c-0.1,0.4-0.1,0.8-0.2,1.1c0,0.2-0.1,0.5-0.2,0.6c-0.7,0.6-1.5,1.1-2.3,1.7
		c0-1.2,0-2.3,0-3.5h-4.4c0,1.5,0,3,0,4.6c0,1.8-0.2,3.6,0.6,5.3c0.2,0.4-0.2,1.1-0.3,1.6c-0.1,0-0.2,0-0.3,0
		c-0.1-0.7-0.2-1.5-0.4-2.1c-0.3-0.9-0.7-1.7-1.1-2.6c-0.2-0.5-0.5-1.1-0.5-1.7c-0.1-1.7-0.2-3.4-0.3-5h-8.8
		c1.2,1.8,2.2,3.8,3.1,5.8c0.9,2,1.2,3.8,0,5.7c-0.6,0.9-0.7,2-1.2,3.3c-0.4-1.7-1-3-1-4.6c0-1.8-0.7-3.7-1.1-5.5
		c-0.3-1.5-0.7-3.1-1-4.6h-4.2c0,0.4,0,0.8,0.1,1.3c-0.5-0.4-0.8-0.8-1-1.3h-4.6c0.2,0.7,0.3,1.3,0.4,2c0.6,3.1,1.1,6.2,1.6,9.3
		c0,0.2,0,0.5-0.1,0.7c-0.7,2.2-1.5,4.3-2.3,6.4c0,0.1-0.1,0.2-0.4,0.3c-0.2-6.3-0.4-12.5-0.6-18.8h-4c0,1.1,0,2.2,0,3.3
		c0,0.4,0,0.7-0.2,1.2c-0.3-0.9-0.6-1.8-0.8-2.7c-0.1-0.6-0.2-1.2-0.4-1.8h-6.6c-0.3,1.2-0.5,2.3-0.9,3.5c-0.1-1.2-0.2-2.3-0.3-3.5
		h-4c0.2,1.6,0.3,3.3,0.5,4.9c0,0.4,0.1,0.9-0.1,1.2c-1.1,2.4-2.2,4.7-3.4,7.2c0-4.5-0.4-9,0.9-13.3H145c-0.1,1.4-0.2,2.8-0.3,4.2
		c-0.1,0-0.2,0-0.3,0c-0.1-0.4-0.2-0.8-0.3-1.2c-0.1-1-0.3-2-0.4-3h-4c0.2,1.5,0.4,2.9,0.5,4.4c-0.6,0.4-1.3,0.8-2.1,1.2
		c-0.3-1.9-0.5-3.7-0.7-5.6h-4.3c0.7,2.2,1,4.4,1,6.7c-0.1,2.7-0.3,5.4-0.5,8.1c0,0.3-0.3,0.7-0.5,0.8c-1.5,0.2-2.2,1.3-2.9,2.4
		c-0.3,0.5-0.6,0.9-0.8,1.4c-0.5-6.6,0.1-13.1,1.8-19.4h-5.4c0.3,1.6,0.7,3.1,0.9,4.7c0.2,1-0.2,2.1-0.3,3.1
		c-0.2,1.8-0.4,3.5-0.5,5.4c-1.3-2-2.3-4-2.3-6.4c0-2.3-0.2-4.5-0.1-6.7H120c-0.1,2.9,0.1,5.7,0.2,8.6c0,0.4,0.1,0.9,0.3,1.2
		c0.5,1,0.2,1.7-0.4,2.7c-0.2-2.2-0.3-4.3-0.5-6.4c-0.2-1.6-0.4-3.2-0.7-4.8c-0.1-0.5-0.3-0.9-0.5-1.4h-5.2c0,0-0.1,0.1-0.1,0.1
		c-2.3,3.1-3.1,6.6-3.2,10.3c0,1.1,0,2.2-0.2,3.4c-0.8-1.4-1.6-2.8-2.3-4.3c-0.1-0.2,0-0.6,0.1-0.8c0.7-3,1.5-5.9,2.4-8.8h-8
		c0,2.9,0,5.7,0,8.6c-2-0.5-3,0.6-3.6,2.1c-0.5,1.2-1,2.4-1.4,3.6c-0.1,0-0.2,0-0.3-0.1c0.1-1.1,0.3-2.3,0.4-3.4
		c0.1-1.9,0.2-3.9,0.3-5.8c0-1.7,0.2-3.4,0.5-5h-3.2c-0.2,0.8-0.4,1.6-0.6,2.3c-0.6-0.7-1.1-1.5-1.5-2.3h-9.7c0,2.3-0.1,4.5-0.2,6.8
		c-0.1-0.3-0.3-0.7-0.4-1c-0.6-2-1.3-3.9-2-5.8h-4.3c0.9,2.6,1.9,5.2,2.8,7.8c0.5,1.4,1.3,2.6,2.1,3.9c0.3,0.5,0.5,0.8,0,1.3
		c-0.6,0.7-1,1.5-1.7,2.6c-0.3-1-0.6-2-1-2.9c-0.3-0.9-0.5-1.7-0.9-2.6c-1.5-3.3-3-6.6-3.9-10.1h-5.1c-3,0-5.9,0.2-8.8,0.6
		c0.2,0.9,0.3,1.8,0.5,2.7c-1.1,0.3-2.1,0.5-3,0.8c-0.1-0.6,0-1.8,0.4-3.1c-1.4,0.3-2.9,0.6-4.3,0.9c-0.2,1.2-0.3,2.5-0.3,3.8
		c-0.1-0.2-0.2-0.5-0.3-0.7c-0.3-0.9-0.6-1.8-1-2.7c-1.6,0.5-3.1,1-4.7,1.5c0.6,1.7,1.2,3.4,1.7,5.1c-1.4-1.4-2.4-2.8-3.8-3.9
		c-0.1-0.1-0.2-0.2-0.3-0.2c-2,0.9-4,1.8-5.8,2.9c0,0.4-0.1,0.8-0.1,1.2c-0.1-0.3-0.2-0.7-0.3-1c-2.5,1.4-4.8,3-7.1,4.7
		c0.9,3.4,1.7,6.6,2.5,10c-0.1,0-0.3,0.1-0.4,0.2c-1.7,0.5-2.5,1.6-2.4,3.4c0,3.5,0.1,7.1,0.2,10.6c-1.5-1.2-1-3-0.8-4.6
		c0.1-1.3,0.3-2.7,0.4-4c0.1-4.2,0.2-8.4,0.3-12.5c0-0.9,0.1-1.9,0.2-2.9c-1.8,1.4-3.6,3-5.3,4.6c1.3,0.8,0.5,2.3,0.9,3.3
		c-0.4-1-0.7-2-1.1-3.1c-1.2,1.2-2.4,2.5-3.5,3.8c0.3,0.9,0.6,1.8,0.9,2.8c-0.6-0.6-1.2-1.2-1.8-1.7c-0.8,0.9-1.5,1.9-2.2,2.9
		c0.2,0.2,0.4,0.5,0.5,0.7c1.9,3.1,3.8,6.1,5.6,9.3c1.9,3.6,3.6,7.2,5.4,10.9c0.7,1.5,1.4,3,3.1,3.8c0.2,0.1,0.3,0.3,0.3,0.5
		c0.8,2.7,1.6,5.4,2.5,8.1c-0.1,0.1-0.2,0.1-0.2,0.2c-2.3-3.1-4.6-6.2-6.8-9.4c-2.7-3.8-5.4-7.7-8-11.6c-2.2-3.5-3-7.4-3-11.5
		c-2.1,3.1-3.9,6.3-5.5,9.8c0.6,0.5,1.2,1,1.9,1.5c0.1,0.1,0.3,0.3,0.4,0.3c1.9,0.4,2.6,2,3.4,3.5c0.7,1.3,1.5,2.5,2.4,3.9
		c-2.9,0.4-3.6,1.1-4,3.9c-2.2-2.3-4.4-4.7-6.3-7.2c-0.6,1.7-1,3.4-1.4,5.2c0.8,1,1.5,1.9,2.3,2.9c-1.6,2.3-1.2,5-0.6,7.5
		c0.8,3.4,2.6,6.3,4.5,9.2c1.4,2.1,2.9,4.1,4.4,6.2c-1.7-0.2-3.4-0.3-5.1-0.6c-0.4-0.1-0.8-0.6-1.1-0.9c-1.2-1.3-2.3-2.6-3.5-3.9
		C9.3,73.4,9,73.2,8.7,73c-0.6-0.3-1.1-0.5-1.6-0.8v3.3c0.5,0.9,1.2,1.8,1.9,2.9c-0.6,0-1.3,0-1.9,0v9c2.3,0.1,4.5,0.2,6.8,0.3
		c7.1,0.5,14.1,1.3,21,2.7c4.7,0.9,9.4,1.8,13.9,3.3c5.2,1.7,10.2,3.9,15.3,6c0.3,0.1,0.5,0.7,0.5,1c0,1.9-0.1,3.7,0.7,5.5
		c1.3,3,2.6,5.9,3.9,8.8c0.8,1.6,1.6,3.3,2.3,4.8c-2,0-3.9-0.2-5.9,0c-2.2,0.2-2.9,2.5-4.4,3.5c0.3,0.4,0.4,0.6,0.6,0.8
		c0.4,0.5,0.6,1,1.1,1.3c2.1,1.3,4.2,2.6,6.3,3.9c0.2,0.1,0.3,0.4,0.6,0.7c-0.5,0-0.7,0-1,0c-2.4,0-4.7,0-7.1,0.7
		c-3.3,1-5.2,3.9-7.9,5.6c0,0-0.1,0-0.1,0.1c0,0.4-0.2,0.8,0,1c0.1,0.2,0.7,0.2,1,0.1c0.3-0.1,0.6-0.5,0.9-0.6
		c1.7-0.7,3.4-1.3,5.1-1.9c1.7-0.5,3.5-0.9,5.3-1.3c2.1-0.4,4.3-0.6,6.4-0.8c0.2,0,0.3,0,0.5,0c1,0.1,1.3-0.3,1.2-1.3
		c-0.2-2.1-1.3-3.8-3-5c-1.8-1.4-3.8-2.6-5.7-3.9c2.3-0.3,4.5,0.1,6.7,1.1c1.8,0.8,3.7,1.8,5.6,2.4c1.6,0.5,3.4,0.8,5.1,0.9
		c2.2,0.1,2.9-0.6,3-2.8c1.2,0.5,2.4,0.9,3.6,1.4c1.3,0.4,2.5,0.8,3.7-0.7c0.1,0.9,0.1,1.5,0.4,2c0.2,0.4,0.6,1,1,1.1
		c0.7,0.2,1.1-0.4,1.2-1c0.1-0.4,0-0.8,0-1.2c0.1-0.7,0.2-1.5,0.3-2.5c0.4,0.6,0.6,1,0.8,1.2c0.7,0.7,1.4,1.4,2.2,1.9
		c0.8,0.5,1.6,0.2,2-0.7c0.1-0.2,0.2-0.5,0.3-0.7c2.1,1.2,4.1,2.4,6.2,3.7c-1.5,0.2-2.9,0.4-4.3,0.7c-0.4,0.1-1,0.5-1,0.8
		c0,0.7,0.6,0.5,1.1,0.6c0.7,0,1.5,0.1,2.2,0.2c1.2,0,2.5,0.1,3.7,0c0.4,0,0.9-0.6,1.1-1c0.2-0.4,0.3-0.9,0.3-1.4
		c0-0.3,0.1-0.7-0.1-1c-0.3-0.5-0.7-1-1.2-1.3c-2.7-1.6-5.4-3.2-8.1-4.7c-0.7-0.4-1.1-0.7-1.2-1.5c-0.5-2.4-1.1-4.8-1.7-7.2
		c0.4,0.1,0.9,0.5,1.2,0.4c1.1-0.3,1.8,0.2,2.6,0.8c0.5,0.5,1.1,0.8,1.7,1.2c1.6,1.2,3.2,2.3,4.7,3.4c-0.4,0.4-1,0.6-1,1
		c0,0.4,0.4,0.8,0.7,1.2c0.3,0.4,0.7,0.6,1,1c1.5,1.8,2.9,3.6,4.5,5.2c0.4,0.5,1.3,0.8,1.9,0.7c0.9-0.2,1.1-1,1.1-1.9
		c0-0.1,0-0.2,0.1-0.5c0.5,0.5,0.9,0.9,1.3,1.3c0.7,0.7,1.4,1.6,2.2,2.2c1,0.8,2.1,0.3,2.1-1c0-0.7-0.2-1.4-0.4-2
		c-0.7-1.8-2-3.1-3.5-4.3c-1-0.8-1.9-1.6-3.1-2.6c1.4,0.3,1.9-0.4,2.2-1.3c0.3-1,0.7-1.9,1-2.9c1.8-5.6,3.5-11.3,6.5-16.4
		c0.9-1.6,1.9-3,2.9-4.6c0.1,0.1,0.3,0.1,0.4,0.2c-0.2,1-0.4,2-0.7,2.9c-0.8,2.7-1.9,5.4-2.6,8.1c-1.5,5.7-3.4,11.2-3.7,17.1
		c0,0.8-0.1,1.4,0.7,1.7c0.9,0.3,1.3-0.3,1.6-1c0.5-1.1,1.1-2.2,1.8-3.7c0.4,0.9,0.7,1.5,1,2.2c0.8,1.7,1.4,3.5,2.3,5.2
		c0.3,0.6,0.8,1.1,1.3,1.5c0.3,0.2,1,0.4,1.3,0.2c0.3-0.3,0.6-0.9,0.5-1.3c-0.1-0.7-0.5-1.5-0.8-2.1c-1.1-1.8-2.2-3.5-3.3-5.2
		c-0.4-0.6-1.1-1-1.8-1.7c1-3.7,2-7.6,3.1-11.8c0.7,2.2,1.2,4.3,1.9,6.3c0.7,2,1.5,3.9,3.2,5.2c0.4,0.3,0.7,1,0.6,1.4
		c-0.8,2.7-0.5,5.4-0.5,8.1c0,0.9,0.2,1.7,1.2,1.9c1,0.2,1.5-0.6,1.7-1.4c0.2-1,0.3-2,0.4-3c0.1-1.3,0-2.6,0-3.9
		c0.1,0,0.3,0,0.4-0.1c1.2,2.7,2.3,5.5,3.5,8.2c0.3,0.8,0.7,1.5,1.7,1.5c1-0.1,1.5-0.8,1.5-1.7c0-1.3-0.3-2.7-0.5-4
		c0-0.4-0.1-0.7-0.1-1.1c0.1-0.8,0.4-1.6,0.5-2.4c0.1-1,0-2,0-3.1c0.1,0,0.2-0.1,0.3-0.1c1.5,3,3,5.9,4.5,8.9c0.5,1,1.2,1.6,2,1.5
		c1-0.1,1.7-1,1.6-2.2c-0.1-0.8-0.3-1.6-0.6-2.3c-0.9-1.8-1.9-3.6-2.7-5.1c0.5-1,0.9-1.8,1.3-2.7c0.9,2.9,1.9,5.7,2.8,8.6
		c0.3,0.9,0.4,1.9,1.6,1.9c0.8,0,1.4-1.1,1.3-2.4c-0.1-0.7-0.2-1.3-0.4-2c-0.1-0.3-0.2-0.6-0.2-1c1.7,0.6,2.6,0,2.5-1.7
		c0-0.3,0-0.6-0.2-0.9c-0.6-1.6-1.2-3.2-2-4.8c-0.6-1.3-0.5-2.2,0.5-3.3c0.4-0.5,0.8-1,1-1.6c0.6-1.6,1-3.2,1.5-4.8
		c0.1-0.4,0.2-0.7,0.4-1.2c0.8,4.1,1.5,7.9,2.2,11.9c-0.1-0.2-0.2-0.3-0.3-0.3c-0.4-0.2-0.8-0.3-1.2-0.4c0,0.4,0,0.9,0.1,1.3
		c0.2,0.9,0.6,1.7,0.9,2.6c0.8,2,1.6,4,2.5,5.9c0.2,0.3,0.8,0.7,1.2,0.6c0.4-0.1,0.9-0.5,1-0.9c0.1-0.7,0.1-1.6-0.1-2.2
		c-0.4-1.2-1.1-2.3-1.7-3.4c1.2-0.3,1.5-1.2,1.6-2.3c0.2-1.3,0.6-2.5,1-4c0.3,0.6,0.5,0.9,0.6,1.2c0.2,0.6,0.4,1.1,0.5,1.7
		c1,4,2.7,7.7,5.2,11.1c0.7,1,1.6,1.8,3,1.7c0.2,0,0.4,0.1,0.5,0.2c1.1,0.9,2,0.8,2.6-0.4c1.3-2.6,2.4-5.3,3.6-7.9
		c0.2-0.4,0.2-0.8,0.3-1.3c0.7,1.7,1.4,3.3,2.1,4.9c0.5,1.2,0.8,2.5,0.2,3.8c-0.3,0.7-0.5,1.5-0.6,2.2c-0.1,0.9-0.2,1.7-0.1,2.6
		c0,0.4,0.6,0.9,0.9,1c0.4,0,1-0.3,1.3-0.6c0.3-0.4,0.5-0.9,0.7-1.4c1-3.9,2-7.7,3-11.6c0.4-1.6,0.7-3.2,1-4.8c0.1,0,0.2,0,0.3,0
		c0,0.8,0,1.7,0,2.5c0.2,3,0.4,6,0.6,8.9c0.1,1.5,0.9,2.6,2.4,3.3c0.4-0.4,0.7-1.1,1.2-1.2c1.5-0.3,1.6-1.4,1.7-2.5
		c0.1-1.4,0-2.8,0-4.2c1.5,0.2,2.1-0.2,2.6-1.5c0.1-0.3,0.2-0.7,0.3-1c0.9-5.2,1.7-10.5,2.6-15.7c0.3-1.8,0.4-3.6,0.5-5.5
		c0.8,2.9,2.2,5.8,0.4,8.9c-0.3,0.4-0.4,0.9-0.5,1.4c-1.1,4.9-2.3,9.7-3.4,14.6c-0.6,2.8-0.9,5.7-0.5,8.6c0.2,1.3,0.8,1.8,1.7,1.8
		c0.9,0,1.5-0.7,1.6-2c0.1-1.5,0.1-3,0.3-4.5c0.6-4.4,1.4-8.9,2.1-13.3c0.2-1.3,0.3-2.5,0.4-3.8c0.2,0.1,0.3,0.2,0.3,0.3
		c0.7,1.8,0.3,3.7,0.2,5.5c-0.3,4.1-0.7,8.2-1,12.3c-0.1,1.3-0.3,2.6-0.2,3.9c0,0.5,0.5,1,0.8,1.4c0.5-0.3,1.1-0.5,1.4-0.9
		c0.4-0.5,0.6-1.2,0.7-1.8c0.4-2.5,0.8-5.1,1.1-7.6c0.2-1.3,0.2-2.7,0.2-4c0.1,0,0.2,0,0.3,0c0.1,0.4,0.2,0.8,0.2,1.2
		c0.1,0.8,0,1.6,0.2,2.3c0.7,2.9,1.5,5.8,2.2,8.6c0,0.2,0.2,0.4,0.3,0.4c0.8,0,1.6,0.1,2.3-0.2c0.7-0.3,0.6-1.2,0.3-1.9
		c-0.1-0.4-0.2-0.7-0.4-1.1c0.7,0.5,1.3,1,1.9,1.4c0.1,0.1,0.2,0.2,0.2,0.3c0.5,1.6,1,3.1,0.3,4.8c-0.1,0.2,0.1,0.8,0.4,0.9
		c0.2,0.1,0.8,0,1-0.3c0.8-1.3,1.8-2.6,2.3-4.1c0.5-1.2,1-2.3,1.9-3.2c0.9-0.8,1.6-1.8,1.7-3.1c0-0.6,0.2-1.1,0.4-1.7
		c0.2-0.7,0.6-1.3,0.6-2c0.2-2.3,0.2-4.6,0.3-6.8c0-0.2-0.1-0.5-0.2-0.7c-0.2-0.5-0.4-0.9-0.5-1.4c-0.1-0.5-0.1-1.1-0.2-1.7
		c-0.9-3.6-0.9-7.2-0.9-10.9c0-0.3,0.1-0.6,0.1-1.1c0.4,0.6,0.6,0.9,0.9,1.2c3,4.2,4.7,9.1,6.7,13.8c0.1,0.3,0.2,0.8,0.2,1.1
		c0,2.5,0.1,5.1,0,7.6c0,0.6-0.2,1.3-0.5,1.9c-1.6,2.5-1.8,5.3-2.2,8c0,0.3-0.1,0.7,0.1,0.9c0.2,0.4,0.5,0.9,0.9,0.9
		c0.3,0.1,0.9-0.3,1.1-0.6c0.4-0.6,0.6-1.2,0.8-1.9c0.6,0.8,1,0.4,1.4-0.2c0.5-0.9,0.8-1.9,1.4-2.7c1.2-1.5,2.6-2.9,3.9-4.4
		c0.2-0.3,0.3-0.7,0.5-1c0.2,0.1,0.3,0.3,0.5,0.4c-0.4,1.9-0.7,3.9-1.1,5.9c-1.2-0.5-1.5-0.4-1.9,0.7c-0.2,0.7-0.6,1.3-0.8,1.9
		c-0.7,1.8-1.5,3.6-2.1,5.5c-0.2,0.7,0,1.6,0.8,1.7c0.4,0,1.1-0.5,1.4-1c0.6-1,1-2,1.5-3.1c0.1,0.4,0,0.7,0,1.1
		c-0.1,1.1-0.4,2.1-0.4,3.2c0,0.4,0.5,1.1,0.8,1.2c0.3,0.1,1-0.3,1.2-0.7c0.5-1.1,0.9-2.2,1.3-3.3c0.2-0.5,0.4-1,0.6-1.5
		c0.1,1.2,0.2,2.3,0.4,3.4c0.1,0.3,0.6,0.8,0.9,0.8c0.2,0,0.6-0.5,0.8-0.8c0.1-0.2,0.2-0.4,0.2-0.6c1.4-5.2,3.6-10,6.2-14.7
		c0.6-1,1.3-2,2.2-3.2c0.1,2.2,0.7,4.1-0.8,5.8c-0.7,0.8-0.5,2.1,0.2,2.3c0.9,0.4,1.5-0.2,1.9-0.9c0.7-0.9,1.3-1.9,2-2.8
		c1.4,0.2,1.9-0.2,2.2-1.9c0.9-4.5,2.6-8.6,5.2-12.3c0.2-0.3,0.5-0.6,0.7-0.9c0.1,0.7,0,1.2-0.1,1.8c-1,3.9-2,7.9-3,11.8
		c-0.1,0.4-0.4,0.8-0.8,1.1c-1.3,1.2-2.3,2.5-2.8,4.1c-0.2,0.8-0.2,1.7,0.8,2.1c0.9,0.4,1.4-0.2,1.9-0.8c0.3-0.4,0.7-0.7,1-1
		c0.3-0.3,0.6-0.5,0.9-0.8c0.3-0.3,0.5-0.7,0.8-0.9c2.8-2,5.6-4,8.4-6c0.9-0.7,1.7-0.9,2.9-0.4c0.9,0.4,2,0.4,3,0.6
		c0.6,0.1,1.3,0,2.2,0c-0.5,0.5-0.8,0.7-1.1,0.9c-1.2,1.3-2.4,2.6-3.4,4.1c-0.3,0.5-0.2,1.5,0.1,2.1c0.4,0.8,1.3,0.8,2.2,0.6
		c0.5-0.1,1-0.4,1.4-0.6c0.9-0.6,1.8-1.2,2.7-1.8c0.3-0.2,0.7-0.4,0.9-0.5c0.4,1,0.7,1.9,1,2.9c0.1,0.3,0,0.6,0.1,0.9
		c0.1,0.3,0.2,0.6,0.3,0.9c0.3-0.2,0.6-0.3,0.8-0.5c0.2-0.3,0.2-0.7,0.5-1c1.8-2.3,1.6-5.4-0.1-7.1c1-1.1,2-2.2,2.9-3.3
		c0.6-0.7,0.9-1.4,0.3-2.2c-0.6-0.8-1.4-0.7-2.2-0.4c-1.2,0.4-2.4,0.9-3.7,1.3c-1.7,0.5-3.5,0.7-5.4,0.4c0.3-0.2,0.4-0.4,0.5-0.5
		c1-0.6,2-1.2,3-1.7c0.7-0.4,1.5-0.9,1-1.8c-0.5-0.9-1.3-0.6-2-0.3c-0.3,0.2-0.6,0.3-0.9,0.5c-2.5,1.1-5.1,2.1-7.6,3.3
		c-1.6,0.8-3.2,1.9-4.9,2.9c0.2-0.6,0.3-1.1,0.5-1.6c1.1-3.6,2.1-7.2,1.6-11c-0.3-2.5-2-3.3-4.1-1.9c-0.5,0.4-1.1,0.8-1.5,1.4
		c-1,1.3-2,2.6-2.8,3.9c-0.9,1.5-1.6,3.1-2.4,4.6c0-0.9,0.1-1.7,0.4-2.5c0.5-1.3,1.1-2.6,1.6-3.9c0.4-0.9,0.6-1.8,1-2.6
		c1.2-2.4,3.1-4.1,5.1-5.8c1-0.8,2.1-1.8,3.3-2.2c3.9-1.4,7.8-2.6,11.7-3.7c6-1.6,12-2.6,18.2-2c3.5,0.3,6.9,0.6,10.4,0.9
		c5.4,0.5,10.5,2.2,15.4,4.5c0.4,0.2,0.8,0.6,1.1,1c0.1,0.1,0.2,0.2,0.2,0.3v-9.3c-0.2-0.1-0.3-0.1-0.5-0.2
		C323.1,88.2,321.8,87.6,320.4,86.9z M313.4,39.1c0.8-0.4,1.9-1,2.7,0.2c-1,0.7-2,1.3-3.1,1.9c-0.1,0-0.2-0.1-0.3-0.1
		C313,40.4,313,39.3,313.4,39.1z M92.7,23.8c0.1,0,0.2,0,0.3,0.1c-0.2,6.3-0.5,12.6-0.7,18.6c-1.1-0.2-2.2-0.5-3.5-0.8
		c0.1-0.7-0.1-1.6,0.6-2.7c0.6-0.8,0.6-2,0.7-3.1c0.4-3.9,1-7.7,2.2-11.4C92.5,24.3,92.6,24.1,92.7,23.8z M93.1,60
		c-1-0.4-1-0.4-0.3-2.6C93,58.4,93.1,59.2,93.1,60z M88.9,8.9c0.1,0,0.2-0.1,0.3-0.1c0.5,1.1,1,2.1,1.4,3.2c0.5,1.3,0.9,2.7,1.3,4.1
		c0.1,0.2,0.1,0.6,0,0.8c-0.7,1.3-1.4,2.5-2.2,3.9C88.1,16.7,87.7,12.8,88.9,8.9z M81.9,22.8c0-0.5,0.3-1,0.5-1.8
		c1.2,1.3,1.8,2.7,1.9,4.1c0.4,4,0.7,8,1,12c0.2,2.1,0.3,4.3,0.2,6.4c0,0.7-0.7,1.4-1.1,2.1c-0.1,0-0.2,0-0.3-0.1
		c-0.2-1.1-0.4-2.2-0.5-3.3c-0.5-3.5-1.2-7-1.6-10.5C81.8,28.7,81.9,25.7,81.9,22.8z M79.9,69.2c1.2-4.3,2.1-8.6,3.6-12.7
		c1.1-3,2.9-5.8,4.4-8.7c0.2-0.4,0.6-0.8,1-1.2c0.1,0,0.2,0.1,0.4,0.1c-0.1,2.6-0.2,5.1-0.5,7.7c-0.2,1.9-0.6,3.8-1,5.7
		c-0.4,1.7-0.9,3.3-1.4,4.9c-2.3,6.2-3,12.6-2.8,19.1c0,0.4,0,0.8,0,1.2c0,0.1,0,0.1-0.1,0.3c-0.6,0.1-0.9-0.1-1-0.7
		c-0.3-4.9-1.1-9.7-2.5-14.5C79.9,70,79.8,69.5,79.9,69.2z M70.9,16.6c0.8,1.1,1.8,2.2,2.4,3.4c1.8,3.2,3.5,6.4,5.2,9.6
		c0.1,0.2,0.1,0.5,0.2,0.7c0.2,2.3,0.4,4.7,0.7,7.3c-3.8-6.8-6.7-13.6-8.8-20.8C70.8,16.7,70.9,16.6,70.9,16.6z M70.4,29
		c0.1,0,0.2,0,0.4,0c0.7,1.6,1.5,3.3,2.2,5c-0.8-0.2-1.6-0.4-2.6-0.7C70.4,31.9,70.4,30.5,70.4,29z M71.3,39.3
		c0.6,0.3,1.3,0.8,1.6,1.4c2.7,4.9,4.6,10.2,6.2,15.6c0.1,0.3,0.1,0.6,0,0.8c-0.5,2.1-1,4.2-1.6,6.5c-0.4-0.8-0.7-1.4-1.1-2
		c-0.6-1.1-1.1-2.2-1.8-3.2c-3.4-5.6-4.4-11.9-4.6-18.3C70,39.2,70.5,38.9,71.3,39.3z M69.1,57.8c0.2,0.3,0.4,0.5,0.5,0.7
		c3.7,6.5,6,13.6,7,21c0.3,2.4,0.8,4.8,1,7.2c0.1,1.1-0.5,2.2-0.9,3.4C71.6,82.9,67.7,66.1,69.1,57.8z M64.6,11.2
		c0.4-0.7,1.1-1.2,1.7-1.9c-0.2,2.6-0.3,4.9-0.5,7.6c-0.7-1.4-1.5-2.6-1.9-3.8C63.8,12.6,64.2,11.8,64.6,11.2z M58.1,18.4
		c0-1.4,0.4-2.7,0.7-4.1c0.1,0,0.3,0,0.4,0c0.5,1,1,2,1.5,3c2.3,5.4,3.6,11.1,4.9,16.8c0.5,2.2,0.7,4.4,0.7,6.6
		c-0.1,3.8,0.9,7.5,2,11.1c0.1,0.4,0.2,0.9,0.4,1.3c-0.4,0.1-0.8,0.2-1.2,0.2c-0.4-1.3-0.8-2.6-1.3-3.9c-1.2-2.7-2.3-5.4-3.7-8
		c-1.3-2.4-2-5-2.6-7.6C58.6,28.8,57.9,23.6,58.1,18.4z M54.9,38.3c2.9,3.9,5.2,8.2,6.7,12.9c0.8,2.3,1.3,4.7,2.2,7
		c0.6,1.4,0.6,2.7,0.5,4.1c-3.1,0.2-4,2.6-4.9,5.1c-1.4-1.4-1.6-3.2-1.9-5c-0.7-4.2-1.7-8.3-2.3-12.5c-0.5-3.8-0.6-7.7-0.8-11.5
		C54.6,38.3,54.8,38.3,54.9,38.3z M52.4,32.8c-0.8,1.1-1.6,2-2.3,2.9c-2.3-3.3-7.4-14.6-7.5-20.3C44.2,16.8,48.5,24.4,52.4,32.8z
		 M39.1,20.4c0.3,0.9,0.5,1.8,0.8,2.7c-0.1,0-0.3,0.1-0.4,0.1c-0.3-0.9-0.5-1.8-0.8-2.7C38.8,20.4,38.9,20.4,39.1,20.4z M36.8,27
		c1.4,2.3,2.8,4.7,4.2,7c1.4,2.3,2.7,4.6,4.2,6.7c0.8,1.2,2,2.2,3.1,3.1c0.3,0.3,0.9,0.3,1.4,0.4c0.5,3.8,1,7.8,1.4,11.5
		c-1.1-0.3-2.4-0.7-3.6-1.1c-0.3-0.1-0.6-0.6-0.7-1c-1.6-4.6-3.1-9.2-4.9-13.8c-1.3-3.4-2.7-6.8-5.1-9.6c-0.1-0.2-0.2-0.4-0.2-0.7
		c0-0.8,0-1.6,0-2.4C36.6,27,36.7,27,36.8,27z M26.6,80.3c-0.1,0-0.2-0.1-0.3-0.2c-4.1-4.5-7.9-9.2-10.6-14.7
		c-0.4-0.8-0.7-1.7-1-2.5c0.1,0,0.1-0.1,0.2-0.1c2,1.7,3.9,3.5,5.9,5.2c1.2,1,2.5,1.7,3.7,2.6c0.3,0.2,0.7,0.5,0.9,0.8
		c2.3,3.3,4.6,6.7,7,10C30.4,81.1,28.5,80.7,26.6,80.3z M38.5,82.4c-0.8-2.4-2.4-4.2-3.7-6.1c-4.1-5.8-8.1-11.6-12.2-17.4
		c-0.7-1-1.2-2.2-1.8-3.3c0.1-0.1,0.2-0.2,0.2-0.2c0.4,0.3,0.8,0.5,1.2,0.9c3.3,3,6,6.5,8.5,10.1c2.8,3.9,5.4,7.9,8.2,11.8
		c1.4,2,3.1,3.8,5.2,5.2C42.3,83,40.4,82.7,38.5,82.4z M49.4,84.3c-0.3-0.1-0.5-0.5-0.7-0.9c-2.5-6-5.2-11.9-7.5-17.9
		c-2.8-7-4.8-14.2-5.9-21.7c-0.4-3-0.5-6.1-0.8-9.2c0.1,0,0.2-0.1,0.3-0.1c0.6,1.3,1.3,2.6,1.8,4c2.1,5.8,4,11.7,6,17.5
		c0.1,0.2,0.2,0.5,0.1,0.7c-1,3.9,0.2,7.6,1.3,11.2c1.8,5.7,4.3,11.1,7.7,16.1c0.1,0.2,0.2,0.4,0.5,0.8
		C51.3,84.6,50.3,84.5,49.4,84.3z M59,86.4c-0.2,0-0.3-0.3-0.4-0.4c-2.6-4.5-5.9-8.8-7.7-13.7c-1.2-3.3-2.2-6.6-3.2-10
		c-0.2-0.7,0.2-1.7,0.3-2.5c0.1,0,0.2-0.1,0.3-0.1c0.7,0.8,1.4,1.5,2,2.3c4.3,6,7.5,12.6,10.3,19.4c0.8,1.9,1.6,3.9,2.4,6.1
		C61.5,87,60.2,86.7,59,86.4z M67,83.8c-1-2.6-2.2-5.2-3.2-7.8c-0.3-0.7-0.5-1.4-0.4-2.1c0.1-2.1,0.4-4.2,0.6-6.3
		c0-0.4,0.3-0.8,0.4-1.2c0.7,8.2,3.2,15.8,6.8,23.3c-0.9-0.3-1.7-0.5-2.4-0.8c-0.2-0.1-0.3-0.3-0.4-0.5C68,87,67.6,85.3,67,83.8z
		 M76.9,120.5c1,0.8,1.8,1.6,2.7,2.4C77.9,122.9,77.2,122.3,76.9,120.5z M78.4,115.5c-1.1-0.6-2.1-1.3-3.2-1.6
		c-1.6-0.5-2.6-1.5-3.3-3.1c-1-2.5-2.1-4.9-3.1-7.3c-0.1-0.3-0.1-0.6-0.2-1.1c6.1,3.2,8.9,8.9,12,14.4
		C79.9,116.3,79.1,115.9,78.4,115.5z M90.2,121.7c-1.9-0.6-2.7-1.9-3.5-3.6c-2.9-6.1-4.1-12.6-5.7-19.1c-0.3-1.2-0.6-2.4-0.8-3.6
		c-0.1-0.8-0.2-1.6,0-2.4c0.1-0.5,0.7-1.1,1.2-1.3c0.7-0.2,1.3,0.3,1.5,1c1.2,3.4,2.6,6.7,3.5,10.1c1.4,5,2.4,10.2,3.6,15.3
		c0.3,1.4,0.8,2.7,1.2,4.2C90.9,122.1,90.6,121.8,90.2,121.7z M93.4,92.7c-0.4,3.3-0.4,6.6-0.6,9.9c0,0.5,0,1.1,0,1.8
		c-0.6-2.1-1.1-4-1.8-5.8c-1.1-2.8-2.4-5.5-3.5-8.2c-0.2-0.4-0.3-0.8-0.3-1.2c0.1-4,0.1-8,0.4-12c0.3-4.2,1.2-8.3,3-12.3
		c0.2,1.4,0.6,2.7,0.7,4.1c0.7,5.8,1.3,11.6,2,17.5c0,0.3,0.1,0.6,0.2,0.9C94.2,89.2,93.6,90.9,93.4,92.7z M113.9,15.1
		c0.1-1.6,0.6-3.1,1-4.6c0.2,0,0.3,0,0.5,0.1c0.1,6.9,0.2,13.8,0.3,20.6c-0.7-0.4-1.6-1-2.5-1.5C114,25,113.6,20,113.9,15.1z
		 M110.2,60c-0.2,1.2-0.6,2.3-0.7,3.5c-0.2,4.9,0.6,9.7,1.8,14.4c0.1,0.4,0.1,0.8,0.2,1.1c-0.9,0.2-1.7,0.3-2.6,0.5
		c-0.2-1.3-0.4-2.7-0.6-4.1c-0.6-4.3-1.1-8.6-2.6-12.8c-1.8-5.1-0.6-10,1.1-14.8c0.1,0,0.2,0,0.3,0c0.3,1.1,0.6,2.2,1,3.3
		c0.7,2.6,1.5,5.1,2.1,7.7C110.4,59.2,110.3,59.6,110.2,60z M105.1,19c0.3,0.6,0.5,1,0.7,1.4c1.4,4.1,2.7,8.3,4,12.4
		c0.1,0.2,0.1,0.5,0,0.7c-0.8,2.9-0.7,5.8-0.8,8.8c0,0.2,0,0.5-0.2,0.7C106.6,35.3,104.3,27.5,105.1,19z M100.1,20.5
		c0.1-0.2,0.2-0.4,0.2-0.6c0.1,0,0.3,0,0.4,0c0.2,2,0.6,3.9,0.7,5.9c0.4,6.1,2.1,11.8,4.1,17.4c0.2,0.7,0.3,1.1-0.2,1.7
		c-0.6,0.6-1,1.4-1.5,2.3c-0.2-1.9-0.3-3.7-0.5-5.5c-0.3-2.7-0.8-5.4-2.1-7.9c-0.5-1-1.4-1.8-2.1-2.7c-0.1-0.2-0.3-0.4-0.3-0.6
		C99.1,27.2,98.9,23.7,100.1,20.5z M96.7,58.8c-0.1-1.1-0.3-2.2-0.3-3.3c-0.2-5.4-0.4-10.8-0.4-16.2c0-1.8,0.4-3.7,1.9-5.5
		c0.4,1.4,1,2.6,1.1,3.8c0.4,3.6,0.8,7.2,1,10.9c0.2,2.4,0,4.9,0,7.5C98.5,56.2,97.6,57.5,96.7,58.8z M100.8,111.7
		c-1.1-0.1-2,0.2-2.4,1.3c-0.2-2.4-0.4-4.8-0.5-7.2c-0.2-4.2-0.3-8.5,0.5-12.7c0.1-0.4,0.2-0.8,0.5-1.3c0.1,0.4,0.3,0.7,0.3,1.1
		c0.8,4.2,1.6,8.5,2.3,12.7c0.3,1.7,0.5,3.5,1.6,4.9c0.2,0.3,0.2,0.7,0.3,1.2C102.5,111.7,101.6,111.7,100.8,111.7z M105.9,85.4
		c-1,2.7-1.5,5.5-1.6,8.4c-0.4-1.4-0.8-2.9-1.2-4.3c-0.6-1.8-1.2-3.7-2.7-5c-0.1-0.1-0.2-0.3-0.2-0.5c-0.6-3.2-1.5-6.4-1.8-9.6
		c-0.4-4.4-0.5-8.9,1.3-13.2c0.1-0.3,0.3-0.6,0.4-1c0-0.1,0.1-0.2,0.3-0.4c0.4,0.7,0.7,1.3,1,1.9c1.5,3.4,2,7,2.5,10.6
		c0.4,2.7,0.8,5.3,1.3,8c0.1,0.6,0.2,1.3,0.6,1.8C106.7,83.3,106.4,84.3,105.9,85.4z M110.1,114.9c-0.2-0.1-0.3-0.4-0.3-0.6
		c0.1-2.3,0.3-4.6,0.4-6.9c0-0.2,0.1-0.3,0.3-0.6c0.5,3.3,1,6.3,1.5,9.5C111.3,115.8,110.7,115.4,110.1,114.9z M113.1,101.4
		c-2.3-2-3.6-0.6-4.9,2.8c-1.4-3.6-0.2-16.7,1.9-20.3C110.9,85.4,113.2,99.1,113.1,101.4z M113,61.6c0.1,0,0.3-0.1,0.4-0.1
		c0.6,1.1,1.3,2.1,1.7,3.2c1.1,3.3,2,6.7,3.1,10c0.5,1.6,0.5,2.9-0.1,4.5c-0.6,1.6-0.6,3.5-0.8,5.3c0,0.3,0,0.7-0.1,1
		C114.5,77.8,112.1,70,113,61.6z M115.4,113.6c-0.3-1.9-0.6-3.9-0.8-5.8c0.1,0,0.2,0,0.3,0c0.1,0.4,0.2,0.8,0.4,1.3
		c0.2,0.7,0.7,1.4,0.7,2.1C116,112,115.8,112.8,115.4,113.6z M119.3,102.3c-0.6,1.7-1.3,3.4-1.9,4.9c-0.1-3-0.2-6-0.3-9.4
		c0.8,1.2,1.5,2.2,2.2,3.3C119.3,101.5,119.4,102,119.3,102.3z M113.3,57.7c-0.4-7.9-2-16-0.2-24c0.2,0,0.4-0.1,0.5-0.1
		c0.6,2,1.4,4,1.8,6.1c1,4.7,1.8,9.5,2.8,14.2c0.2,1.1,0.7,2.2,1.1,3.3c0.1,0.3,0.2,0.6,0.2,0.9c0.1,3.1,0.3,6.1,0.4,9.1
		C118.2,63.8,117.4,59.6,113.3,57.7z M120.5,37.3c0.9-4.6,1.5-9.2,2.3-13.8c0.1-0.4,0.2-0.7,0.3-1.1c0.1,0,0.2,0,0.3,0
		c0,3.3,0.1,6.5,0,9.8c-0.2,3.2-0.5,6.4-1,9.5c-0.2,1.3-0.8,2.6-1.3,4.1C119.8,42.9,120,40.1,120.5,37.3z M124,94
		c-0.6,0.7-1,1.5-1.6,2.3c-1.3-5.2-2-10.3-1.3-15.5c0.1-0.1,0.2-0.1,0.3-0.2c0.2,0.3,0.6,0.6,0.7,1c0.8,3.3,1.6,6.6,2.4,9.9
		C124.7,92.5,124.7,93.2,124,94z M126,80.9c-0.1,0-0.3,0-0.4,0c-0.5-1.6-1.2-3.2-1.3-5c-0.2-2.7-0.9-5.4-1.2-8.1c-0.6-6-1-12-0.1-18
		c0.2-1.4,0.7-2.8,1.2-4.1c0.1-0.3,0.3-0.6,0.7-0.8c0.2,2.1,0.5,4.3,0.6,6.4c0.2,6,0.3,11.9,0.5,17.9c0.1,1.8,0.4,3.6,0.4,5.4
		C126.2,76.7,126.1,78.8,126,80.9z M205.5,19.6c0,2.9,0.1,5.9,0,8.8c-0.1,2.1-0.3,4.3-0.6,6.4c-0.1,0.7-0.7,1.4-1.1,2.1
		C202.9,30.9,203.8,25.1,205.5,19.6z M198.1,34.2c0.2-2.9,0.1-5.8,0.1-8.6c0-0.5,0-1,0-1.4c2.1,3.9,0.6,8.1,1.3,12.4
		C198.5,35.9,198,35.4,198.1,34.2z M195,12.6c-0.5,0.2-1.1,0.5-1.8,0.8c0-0.6-0.1-1.2-0.1-1.7C193.8,12,194.4,12.3,195,12.6z
		 M194.4,51.7c0.1,1.6,0.4,3.2,0.4,4.8c0.2,4.5-0.1,8.9-0.9,13.3c-0.1,0.3-0.1,0.6-0.1,0.9c-0.1,1-0.1,2-0.1,2.9
		c0,0.2-0.1,0.4-0.2,0.5c-1,1.3-2,2.7-3,4c0.2-9,0.5-18,3.6-26.5C194.2,51.7,194.3,51.7,194.4,51.7z M189.8,37.6
		c0.2-1.5,0.5-3,0.6-4.6c0.5-4.3,1.4-8.5,3.1-12.5c0.1-0.2,0.2-0.4,0.4-0.9c0,5,0,9.8,0,14.6c-2.6,0.9-3.4,2.2-2.8,5
		c0.5,2.4,1.3,4.7,2,7c0.2,0.5,0.1,0.9-0.2,1.4c-1,1.7-1.8,3.5-2.7,5.3c-0.2,0.4-0.3,0.8-0.6,1.1c0.1-1,0.4-2.1,0.3-3.1
		c-0.1-3.8-0.3-7.6-0.4-11.4C189.5,38.9,189.7,38.2,189.8,37.6z M183.4,31.9c0.1,0,0.2,0,0.4,0c0.5,3.1,1.1,6.3,1.6,9.4
		c0.5,3.1,1,6.3,1.4,9.3c-1,0.7-2.1,1.4-3.3,2.3C182.9,45.9,182.9,38.9,183.4,31.9z M178,10.1c0.6,1.5,1.1,3,1.6,4.3
		c-1,1.4-2,2.7-2.9,3.9C176,15.5,177.7,12.9,178,10.1z M176.2,32.6c1.2-3.3,2-6.6,2.9-10c0.1-0.3,0.2-0.6,0.3-0.9c0,0,0.1,0,0.1,0
		c0,0.6,0.1,1.1,0,1.7c-0.7,4.4-1.5,8.9-2.3,13.5C176.6,35.4,175.6,34.4,176.2,32.6z M179.5,41.4c0,0.7,0,1.3,0,2
		c-0.1,0-0.2,0-0.3,0c-0.1-0.7-0.1-1.3-0.2-2C179.3,41.4,179.4,41.4,179.5,41.4z M173.3,36.7c0.2,0.5,0.5,1,0.6,1.6
		c1.6,4.7,2.4,9.7,3,14.6c0.3,2.7,0.8,5.4,1.1,8.1c0,0.2,0,0.4,0,0.6c-0.5,1.3-0.9,2.6-1.5,4.2c-2.3-9.8-3.7-19.3-3.5-29
		C173.1,36.7,173.2,36.7,173.3,36.7z M172,15.9c0.1,0,0.2-0.1,0.3-0.1c0.2,0.4,0.5,0.9,0.5,1.3c-0.1,3.1-0.3,6.2-0.5,9.2
		c-0.1,1.3-0.3,2.6,0.4,3.8c0.2,0.4,0,1,0.1,1.5c0.1,0.8-0.7,0.7-1,0.9c-0.7,0.5-1.3,0.9-1.8,1.2C168.2,28.6,169,22.4,172,15.9z
		 M164,27.1c0.2,0,0.4,0,0.6,0c0.6,3.3,1.3,6.6,1.9,9.9c0.3,1.8,0.4,3.6,0.7,5.4c0.1,0.8,0.4,1.6,0.8,2.3c0.4,0.6,0.5,1.2,0.3,1.9
		c-0.2,0.6-0.3,1.1-0.5,2c-0.1-0.3-0.1-0.4-0.1-0.4c-1.2-4.3-2.6-8.5-3.6-12.8c-0.5-2.3-0.4-4.7-0.5-7
		C163.5,27.9,163.8,27.5,164,27.1z M158.9,20.4c0.2-3.8,0.2-7.6,0.3-11.4c0-0.8,0.3-1.5,0.5-2.2c0.1,0,0.2-0.1,0.3-0.1
		c0.3,0.6,0.8,1.2,0.9,1.8c0.3,3.9,0.6,7.8,0.8,11.8c0.1,1.5,0.3,3.1-0.7,4.5c-0.3,0.4-0.3,1.1-0.5,1.9
		C159.7,24.3,158.8,22.5,158.9,20.4z M154.3,21.8c0.1,0,0.2,0,0.2,0c0.8,2.1,1.6,4.2,2.3,6.4c0.9,2.6,1.5,5.3,2.4,7.8
		c0.5,1.3,1.3,2.5,1.8,3.7c0.7,1.8,1.4,3.6,2,5.3c-1-0.3-1.8-0.9-2.7-0.9c-0.8,0-1.6,0.6-2.5,1c-0.2-0.6-0.6-1.3-0.2-2.2
		c0.2-0.6,0-1.4-0.2-2c-0.9-3-2.2-5.9-2.7-8.9c-0.6-3.2-0.4-6.5-0.6-9.7C154.1,22.1,154.2,21.9,154.3,21.8z M153,47.3
		c0.4-1.3,0.5-2.8,0.8-4.2c0.1,0,0.1,0,0.2-0.1c0.6,2.2,1.4,4.5,1.8,6.7c0.5,3,0.7,6.1,1.1,9.2c0.2,1.7,0.7,3.3,1,4.9
		c0.1,0.3,0.1,0.6,0,0.9c-0.6,1-1.2,2-1.9,3.1c-0.2-1.6-0.4-3.2-0.5-4.7c-0.5-4.3-1.2-8.5-2.5-12.7C152.5,49.4,152.6,48.4,153,47.3z
		 M150.2,42.8c-1.6-0.8-1.7-0.8-1.4-2.5c0.5-3.1,1.2-6.2,1.7-9.3c0.1,0,0.2,0,0.3,0c0.4,1.8,0.8,3.6,1.3,5.5
		C149.6,38.1,150.5,40.6,150.2,42.8z M148.6,7.1c0-0.3,0.2-0.5,0.5-0.8c0.6,2.6,1.2,5.2,1.8,7.9c0.1,0.3,0.1,0.7,0.2,1
		c0.9,2.1-0.2,4-0.4,6c-0.1,1.1-0.2,2.2-0.2,3.3c0,1.1-0.4,1.9-1.6,2.3c0-0.7-0.2-1.3-0.1-1.8c0.6-3.3-0.4-6.6-0.5-9.8
		C148.3,12.4,148.5,9.8,148.6,7.1z M148,44.7c0.5,2,1.1,3.9,1.4,5.8c1,5.7,1.8,11.5,2.8,17.2c0.4,2.3,1,4.5,1.5,6.8
		c0.1,0.5,0.2,1,0.2,1.5c-0.2,1.6-0.4,3.2-0.7,5c-0.2-0.4-0.3-0.6-0.3-0.9c-0.8-2.6-1.6-5.3-2.6-7.9c-0.4-1-1.2-1.9-1.8-2.8
		c-0.1-0.2-0.3-0.4-0.3-0.6c-0.5-3.6-1.2-7.1-1.5-10.7c-0.3-3.3-0.3-6.7-0.3-10C146.4,46.9,146.9,45.8,148,44.7z M136.5,31
		c0.1-0.8,0.8-1.6,0.9-2.4c0.3-1.2,0.3-2.4,0.5-3.7c0.5-2.9,1.1-5.8,1.7-8.7c0.1-0.7,0.5-1.3,0.8-1.9c0.1,0,0.2,0,0.3,0
		c0.2,0.8,0.5,1.6,0.5,2.5c0.2,2.8,0.4,5.6,0.3,8.3c-0.1,1.9-0.9,3.7-1.3,5.6c-0.3,1.4-0.5,2.7-0.8,3.9c-1.2,0.2-2.2,0.5-3.2,0.7
		C136.2,34,136.2,32.5,136.5,31z M141.5,45.9c1.9,2.4,2.1,5.2,1.7,8.2c-0.3-0.8-0.5-1.6-0.8-2.4c-0.2-0.6-0.4-1.1-0.7-1.6
		C140.9,48.3,140.9,48,141.5,45.9z M135.8,40.7c0.3-0.9,1.1-1.7,1.8-2.5c0.2,2.8,0.4,5.5-0.3,8.2c-1.1,3.9-2.3,7.6-3.5,11.5
		c-0.4,1.4-0.7,2.9-1,4.4c0,0.2,0,0.4-0.1,0.5c-0.8,1.2-1.7,2.4-2.6,3.8c0-2.3,0-4.3,0-6.4c0-0.2,0-0.4,0.1-0.5
		c1.6-2.9,1.5-6.2,2.5-9.3C133.6,47.1,134.7,43.8,135.8,40.7z M128.2,39.5c1.3-3.4,2.5-6.8,3.7-10.1c0.1-0.3,0.3-0.6,0.6-0.8
		c0,1.2,0.2,2.5,0,3.7c-1,6-2,11.9-3,17.9c-0.1,0-0.2,0-0.3,0c-0.3-1.7-0.6-3.3-1-5c0-0.2,0-0.5-0.2-0.7
		C127.2,42.7,127.6,41.1,128.2,39.5z M131.7,99.4c-0.5-1.3-0.5-2.4,0.4-3.6c0.7-0.9,1.1-2,1.6-3.1c0.2,4.7,0.4,9.3,0.6,13.9
		C133.5,104.2,132.7,101.8,131.7,99.4z M136.3,71.7c-1.8,6.1-3.8,12.2-5.6,18.3c-1-0.1-1.8-0.2-2.8-0.3c0.1-1.1,0.2-2.4,0.3-3.6
		c0.3-6.2,1.3-12.3,4.2-17.9c1-1.9,2.2-3.6,3.4-5.3c0.5-0.7,1.2-1.2,2-1.9C137.7,64.8,137.3,68.3,136.3,71.7z M137.3,59.4
		c0.7-1.9,1.5-3.7,2.2-5.7c0.9,2.9,1.7,5.7,2.6,8.5c-0.6,0.5-1.1,0.8-1.6,1.2C139.9,61.8,140.6,59,137.3,59.4z M142,115
		c-0.5,1-1,1.9-1.5,2.9c-0.9-0.7-1.6-1.5-1.5-3c0.1-3.2-0.1-6.4-0.1-9.6c-0.2-5.6-0.4-11.2-0.5-16.7c0-0.9,0.2-1.8,0.4-2.7
		c0.1,0,0.2,0,0.3,0c0.4,3.1,0.9,6.2,1.2,9.3c0.4,4,0.6,8,0.9,12c0,0.2,0.1,0.4,0,0.5c-1.2,1,0,1.5,0.3,2.2c0.5,1.1,0.9,2.3,1.2,3.5
		C142.7,113.8,142.3,114.4,142,115z M143.9,71.8c-0.9,1.8-1.3,3.6-1.3,5.6c0,1.9,0,3.8,0,6c-1-2.2-1-4.9-4.1-5.2
		c0.3-1.2,0.6-2.3,0.8-3.5c0.3-1.4,0.7-2.9,0.7-4.3c0.1-1.3,1.2-1.8,1.5-2.9c0.1-0.5,0.5-1,0.8-1.7c1.1,1.7,1.4,3.5,1.7,5.3
		C144.2,71.4,144,71.6,143.9,71.8z M144.7,44.5c-0.8-1-1.7-2.1-2.4-3.1c-0.2-0.2-0.2-0.6-0.1-0.9c0.4-4.8,1.2-9.5,2.7-14.1
		c0.1-0.2,0.1-0.3,0.4-0.5c0,0.5,0,1.1,0,1.6c0,2.4,0.1,4.8,0.1,7.3c0,1.9-0.1,3.9-0.2,5.8c0,0.7,0.1,1.4,0.1,2.1
		c0,0.6-0.2,1.3-0.3,1.9C144.9,44.5,144.8,44.5,144.7,44.5z M145.3,111.3c-0.1-0.1-0.1-0.3-0.1-0.5c0.1-1.3,0.3-2.6,0.4-3.7
		c0.7,2.3,1.4,4.9,2.2,7.7C146.8,113.5,146,112.4,145.3,111.3z M150.6,94.5c-0.8,2.1-1.2,4.4-1.8,6.6c0,0.2-0.1,0.4-0.1,0.5
		c-0.1,0-0.1,0-0.2,0c-0.3-2.2-0.7-4.4-1-6.6c-0.8-5.6-1.4-11.3-1.3-17c0-1.6,0.4-3.2,0.6-4.8c0.2,0,0.3,0,0.5,0
		c0.4,1.4,0.8,2.9,1.1,4.3c0.9,4,1.6,8.1,2.6,12C151.5,91.4,151.2,92.8,150.6,94.5z M157.4,95.8c-0.7,3.4-1.5,6.9-2.1,10.3
		c-0.3,1.6-0.4,3.1,0.5,4.6c0.2,0.3,0.1,0.8,0.1,1.3c-0.7-0.8-1.2-1.5-1.9-1.9c-0.4-0.3-1.2-0.4-1.6-0.2c-0.4,0.2-0.7,1-0.7,1.5
		c0.1,0.9,0.5,1.8,0.8,2.9c-0.8-0.6-1.4-1.2-1.3-2.2c0.4-7.1,1-14.2,4.4-20.6c0.8-1.5,1.7-2.8,2.6-4.2c0.2-0.2,0.4-0.4,0.6-0.7
		c0.1,0,0.2,0.1,0.3,0.1C158.6,89.8,158,92.8,157.4,95.8z M159.7,81.9c-1.1,0.7-2.1,1.4-3.3,2.2c0.7-5.8,1.3-11.6,3.8-17
		c0.1,0,0.3,0,0.4,0C160.3,72,160,77,159.7,81.9z M160.5,62.4c-0.6-4.4-0.9-8.7-0.4-13.1c0.1-0.5,0.3-0.9,0.6-1.4
		c0.4,1.1,0.8,2.1,1.2,3.2c1.9,5.4,2.8,11.1,3.6,16.7c0.6,4.7,1.3,9.3,1.9,14c0,0.2,0,0.4,0.1,0.9c-1.2-1.8-2.3-3.1-4.5-2.9
		c0.2-1.7,0.5-3.3,0.5-4.9c0-2.9-0.1-5.9-0.3-8.8c-0.1-1.4-0.5-2.8-2.3-3.1C160.7,62.9,160.5,62.6,160.5,62.4z M170.1,113.6
		c-0.4-0.7-0.8-1.4-1.3-2c-0.6-0.9-1.1-1.9-1.7-2.8c-0.4-0.6-1-0.6-1.5-0.1c-0.2,0.2-0.3,0.5-0.6,1c-0.4-2.7-0.8-5.3-1.2-7.9
		c-0.4-2.7-0.4-5.5-1.6-8.1c-0.1-0.3,0-0.6,0-0.9c0.1-2.4,0.3-4.9,0.5-7.3c0-0.6,0.2-1.1,0.3-1.7c0.1,0,0.2,0,0.3,0
		c0.2,0.4,0.5,0.8,0.6,1.2c0.9,3.2,1.8,6.5,2.6,9.7c1.3,5.3,2.5,10.6,3.7,15.9c0.2,1,0.2,2,0.4,3
		C170.5,113.5,170.3,113.6,170.1,113.6z M169.6,69.9c0.8-5.2-0.2-10.4,1.2-15.5c0.9,6.2,2.4,12.2,4.9,18
		C174.1,70.5,173,67.7,169.6,69.9z M172.7,75.5c0.5,2.1,1.2,4.2,1.6,6.4c0.8,4.3,1.6,8.6,2.3,12.8c0,0.2,0.1,0.3,0.1,0.5
		c0.2,0.7,0.5,1.5,0.7,2.2c0,0.1,0,0.1-0.1,0.2c-0.6,1-1.2,1.9-1.8,2.9C173.9,92.2,172,84,172.7,75.5z M183.1,102
		c-0.7,3.9-1.5,7.8-2.3,11.7c-0.1,0.6-0.1,1.2-0.1,1.8c0.1,2.1-0.6,3.9-1.4,5.9c-0.2-0.8-0.3-1.5-0.5-2.1c-0.3-1-1.1-1.5-2-1.4
		c-0.9,0.1-1.3,0.8-1.3,2c0,0.9,0,1.8-0.1,2.6c0,0.1-0.1,0.2-0.2,0.5c-0.9-1.8-1.8-3.4-2.6-4.9c0.7-0.3,1.5-0.4,1.8-0.8
		c0.4-0.6,0.8-1.5,0.7-2.2c-0.1-2,0.6-3.7,1.3-5.5c1.6-4.3,3.6-8.4,6.4-12c0.1-0.1,0.2-0.3,0.6-0.4
		C183.4,98.8,183.4,100.5,183.1,102z M182.1,76c0.5,5.7-0.3,11.3-1.1,16.9C180.2,87.2,180.1,81.5,182.1,76z M182.6,70.2
		c-0.1,0.3-0.2,0.6-0.4,0.8c-1,0.8-2,1.6-2.8,2.3c-0.8-4,3.3-14.8,6.7-17.5c0.1,0,0.2,0.1,0.3,0.1c-0.5,2.1-0.9,4.3-1.5,6.4
		C184.2,64.9,183.4,67.6,182.6,70.2z M187.9,115.4c-0.3,1-0.2,2.1-0.3,3.2c0,0.3-0.1,0.5-0.3,0.8c-0.8-2.2-2.5-4.1-1.6-6.9
		c0.9-2.9,1.3-5.8,2-8.8c0.1,0,0.1,0,0.2,0c0.1,1.1,0.3,2.3,0.4,3.4C188.5,109.9,188.8,112.7,187.9,115.4z M192.8,85.6
		c-0.7,2.9-1.1,5.9-1.7,8.9c-0.2,0.9-0.6,1.8-0.9,2.7c-0.1,0-0.2,0-0.3,0c-0.7-2.4-1.3-4.7-2-7.1c-0.1-0.2,0-0.6,0.1-0.8
		c2.5-4.4,4.7-9,7.9-12.9c0.5-0.6,1-1.2,1.6-1.9c0.1-0.1,0.2-0.1,0.5-0.2c-0.6,1.7-1,3.4-1.7,4.9c-0.3,0.7-1.4,1.2-1.7,1.9
		C193.8,82.4,193.1,84,192.8,85.6z M196.9,113.8c-0.5-0.1-0.8-0.3-1.2-0.4c-0.3-3-0.6-5.9-0.9-8.9c0-0.2,0-0.4,0-0.5
		c-1-1.8-0.4-3.6-0.1-5.4c0.7-4.2,1.4-8.3,2.1-12.4c0.1-0.5,0.4-1,0.7-1.5C200.3,94.4,198,104,196.9,113.8z M200.4,80.4
		c-1.3-0.9-0.3-1.7,0-2.5C200.4,78.7,200.4,79.5,200.4,80.4z M194.6,37.4c0.1-0.1,0.2-0.2,0.3-0.2c0.5,0.3,1,0.6,1.3,1
		c0.8,1,1.6,2.1,2.2,3.2c2,3.9,4.1,7.8,4.9,12.2c0.3,1.5,0.5,3,0.6,4.6c0,0.6-0.6,1.1-1,1.9C199.9,52.4,196.1,45.3,194.6,37.4z
		 M206.1,86.2c-0.4,1-0.9,1.9-1.3,2.8c-0.1,0-0.2,0-0.3,0c-1.6-9.2-1.8-18.4,0.7-27.6c0.2,0,0.3,0,0.5,0c0.2,2.1,0.5,4.1,0.5,6.2
		c0.1,5.9,0.1,11.7,0.1,17.6C206.3,85.6,206.2,85.9,206.1,86.2z M312,57.1c3.1-2.6,6.1-5.1,9.1-7.6c0.1,0.1,0.1,0.1,0.2,0.2
		c-2.8,5.2-7.4,9-11.3,13.3C311.1,61.1,312.5,59.2,312,57.1z M307.5,59.1c0,0.1,0.1,0.2,0.1,0.3c-2.9,4-7.2,6.5-10.8,10
		c-0.9-1.5-2.1-1.3-3.5-0.9c-3.3,1-6.2,2.9-8.9,4.9c-0.4,0.3-0.9,0.7-1.3,1c-0.1-0.1-0.2-0.1-0.3-0.2c0.5-0.7,1-1.6,1.6-2.2
		c1.9-1.8,3.9-3.5,6-5.1c4.7-3.6,10-6,15.7-7.8C306.5,59,307,59.1,307.5,59.1z M285.4,57.3c2.7-2.3,5.7-4.5,9.3-5.8
		c0.1,0.1,0.2,0.2,0.3,0.3c-2.4,2.7-4.9,5.4-7.2,8C286.9,58.9,286.2,58.2,285.4,57.3z M307,47c-1.3,1.6-2.6,3.2-3.7,5
		c-1,1.6-1.8,3.3-2.8,4.9c-0.2,0.3-0.4,0.6-0.7,0.7c-2.8,1.4-5.6,2.7-8.6,4.1c1-1.1,2-2.1,3-3.1c1.7-1.9,3.7-3.6,5-5.7
		c2.8-4.4,7.1-7.5,10.1-11.8C309,43.2,308.4,45.2,307,47z M303.8,39.7c0.5-0.7,0.9-1.5,1-2.4c0.1-1-0.1-2-0.1-3.3
		c1.7-1.2,3.6-2.7,5.6-4.1c0.1,0.1,0.2,0.2,0.3,0.2c-0.3,0.6-0.5,1.2-0.9,1.7c-2.8,4.8-6.2,9.2-9.7,13.5c-0.4,0.4-0.8,0.8-1.1,1.3
		c-0.6,0.9-1.4,1.1-2.5,0.8c0.9-0.8,1.9-1.5,2.6-2.3C300.7,43.4,302.3,41.6,303.8,39.7z M293.3,25.8c0.1,0.1,0.2,0.2,0.3,0.3
		c-2.3,3-4.6,6.1-7.1,9.4c-0.1-2-0.7-3.4-2.9-3.7C287,29.7,290.2,27.7,293.3,25.8z M293.5,32.7c-0.3,1.3-0.5,2.6-0.8,3.8
		c-0.1,0.3-0.3,0.5-0.6,0.7c-1.1,0.7-2.2,1.3-3.4,1.8C290.3,36.9,291.9,34.8,293.5,32.7z M284.4,45.3c0.2-0.4,0.9-0.5,1.4-0.7
		c0.1,0.1,0.1,0.2,0.2,0.3c-0.8,1.1-1.5,2.3-2.3,3.4c-0.1,0-0.1,0-0.2-0.1C283.8,47.3,284,46.2,284.4,45.3z M282.7,52.5
		c1-0.7,2.1-1.2,2.9-2c1.5-1.7,2.7-3.6,4.1-5.5c0.1-0.1,0.2-0.3,0.2-0.5c0-1.6,1.3-2.2,2.5-2.8c2.4-1.2,4.8-2.4,7.2-3.6
		c0.3-0.2,0.6-0.2,1.1-0.2c-0.7,0.8-1.2,1.7-2,2.4c-3.9,3.3-7.8,6.5-11.7,9.7c-0.9,0.7-1.8,1.4-2.6,2.2c-0.5,0.4-1.1,1-1.2,1.6
		c-0.3,1.5-1.6,2-2.7,2.8c0.4-1.1,0.9-2.2,1.4-3.3C282,52.9,282.4,52.7,282.7,52.5z M281.4,37.1c0.1-0.1,0.2-0.1,0.5-0.3
		c-0.5,1.8-0.9,3.4-1.4,5c-1.7,5.2-3.4,10.4-5,15.6c-0.5,1.8-0.6,3.6-0.9,5.5c0,0.2-0.1,0.4-0.2,0.6c-0.7,0.9-1.5,1.8-2.1,2.6
		c-0.4-1.5-0.7-3-1.1-4.6c0-0.2,0-0.4,0-0.6c1.3-4.8,2.4-9.7,3.8-14.4C276.2,42.7,278.4,39.5,281.4,37.1z M266.1,31.4
		c-1.6,2.2-3.2,4.3-4.9,6.6c0-1.6,0-3,0-4.4c0-0.1,0.1-0.3,0.2-0.4c2-1.9,3.9-3.8,5.9-5.7c0.1,0.1,0.1,0.1,0.2,0.2
		c-0.4,0.6-0.8,1.3-1.3,1.9C265.6,30.3,265.4,30.9,266.1,31.4z M272.8,29.9c-0.4,1.2-0.5,2.3-1,3.1c-1.6,2.7-3.4,5.4-5.1,8.1
		c-0.5,0.8-1.1,1.6-1.6,2.3c-0.5-0.7-0.9-1.4-1.4-2.1C264.6,38.5,270.2,31.4,272.8,29.9z M271.8,27c0.7-0.9,1.2-1.5,2.1-1.9
		c1.2-0.5,2.3-1.6,3.3-2.5c0.4-0.3,0.8-0.8,1.1-1.2c0.1,0,0.2,0.1,0.3,0.1c-0.9,2.4-1.8,4.8-2.7,7.3c-0.1,0.1-0.2,0.1-0.3,0.2
		C275.2,26.7,273.8,26.5,271.8,27z M265.3,55.7c0-0.2,0.1-0.4,0.2-0.6c1.3-1.8,2.5-3.5,4-5.2c-0.4,1.6-0.7,3.1-1.1,4.7
		c-0.4,1.8-0.7,3.7-1.1,5.5c-0.1,0.4-0.5,0.9-0.8,1.2c-0.5,0.4-1.2,0.7-1.8,1.1C264.9,60.1,265.1,57.9,265.3,55.7z M265.7,49.2
		c-0.1,0.1-0.1,0.2-0.4,0.2c2.7-4.2,5.3-8.5,9.3-11.5c-1.1,2.1-2.2,4.3-3.3,6.5c-0.1,0.1-0.2,0.3-0.3,0.4
		C268.6,45.5,267.3,47.5,265.7,49.2z M270.5,16.4c1.6-0.8,3.2-1.5,4.8-2.1c0.6-0.2,1.3-0.1,2-0.3c0.4-0.1,0.7-0.3,1.1-0.5
		c0.5-0.2,1-0.4,1.5-0.7c0.1,0.1,0.2,0.2,0.3,0.4c-0.4,0.5-0.8,1.1-1.3,1.6c-1.1,1.1-2.1,2.2-3.3,3.3c-0.5,0.5-1.2,0.8-1.9,1.1
		c-3.3,1.2-6,3.2-8.6,5.4c-1.5,1.3-3,2.7-4.5,4.1c-0.4-1.8-0.8-3.5-1.2-5.3C263,20.9,266.5,18.3,270.5,16.4z M244.7,35.9
		c0.2-2.9-0.1-5.9,0-8.8c0-1.4,0.3-2.7,0.5-4c0.2,0,0.4,0,0.6,0c0.3,2,0.6,4.1,0.7,6.1c0.2,4.7,0.3,9.3,0.5,14
		c0,1.2,0.2,2.4,0.2,3.7c-0.3-0.8-0.5-1.7-0.9-2.4C244.9,41.8,244.5,39,244.7,35.9z M227.9,21.4c0.1,0,0.3,0,0.4,0
		c0.4,0.7,0.8,1.4,1.2,2c2.7,4.9,4.6,10.1,6.5,15.4c0.5,1.3,1.3,2.6,1.9,3.9c0.1,0.2,0.2,0.5,0.2,0.8c-0.1,1.6-0.1,3.2-0.2,5
		c-0.7-1.2-1.4-2.2-2-3.2c-2-3.3-3.8-6.7-4.3-10.5c-0.3-2-0.2-4-0.3-6c0-0.1,0-0.2,0-0.3c-0.3-2.4-1.2-3.1-3.7-3
		C227.6,24,227.8,22.7,227.9,21.4z M226.7,33.7c0.2-1,0.6-1.9,1.1-2.8c0,5.8,0,11.6,0,17c-1.1,0.8-2,1.4-2.9,2
		c-0.2-0.7-0.5-1.7-0.9-2.6c1.1-0.9,1.1-2.2,1.3-3.4C225.7,40.5,226.2,37.1,226.7,33.7z M221,15.1c0-0.1,0.1-0.1,0.4-0.4
		c0.7,2.1,1.5,3.9,1.9,5.9c0.4,2.2,0.5,4.5,0.7,6.7c0,0.2,0,0.5,0.1,0.7c0.7,1.5,0.1,2.8-0.3,4.2c-1.3,3.9-1.6,7.9-1.6,12
		c0,0.4,0,0.8,0,1.2c-0.5,0-0.9-0.1-1.4-0.1c1.6-6.7,1.3-13.3,0.3-20c-0.1-0.9-0.8-1.8-1.2-2.7c-0.1-0.2-0.3-0.4-0.2-0.5
		C220,19.7,220.5,17.4,221,15.1z M209.3,36.2c1.2-4.6,2.2-9.3,3.5-13.8c0.7-2.5,1.9-4.9,2.9-7.3c0.1-0.3,0.4-0.7,0.6-1
		c0.1,0,0.2,0,0.3,0.1c-0.2,1.1-0.2,2.3-0.5,3.4c-1.7,6.8-3.5,13.6-5.3,20.5c0,0.2-0.1,0.3-0.2,0.5c-0.5-0.6-0.9-1.2-1.2-1.8
		C209.2,36.6,209.2,36.3,209.3,36.2z M207.5,42.2c0.1,0,0.2,0,0.3-0.1c0.4,2.1,0.9,4.2,1.2,6.2c0.7,4.6,1.4,9.2,2.1,13.8
		c0.1,0.7,0.5,1.4,0.7,2.1c0.1,0.3-0.1,0.6-0.3,0.9C209.3,57.7,208.2,50,207.5,42.2z M213.8,114.4c-1.9-1.9-3.5-3.6-3.9-6.3
		c-0.7-5.6-1.8-11.1-1.5-16.8c0-0.8,0.3-1.7,0.4-2.5c0.1,0,0.2,0,0.3,0c0.3,0.7,0.7,1.4,1,2.1c1.4,3.4,1.8,7,2.3,10.7
		c0.5,3.8,1,7.6,1.4,11.4C213.8,113.4,213.8,113.9,213.8,114.4z M214.6,89.6c0,0.1,0,0.3,0,0.6c-0.8-1.2-1.5-2.3-2.2-3.3
		c-0.5-0.6-1-1.3-1.7-1.7c-0.8-0.4-0.9-0.9-0.9-1.7c0.1-2.4,0.1-4.8,0.3-7.2c0-0.4,0.3-0.7,0.5-1.1c0.2-0.4,0.4-0.7,0.6-1.1
		c0.8-1.7,1.5-3.5,2.3-5.3c0.2,0,0.3,0,0.5,0c0.3,1.4,0.8,2.7,0.8,4.1c0,2-0.2,4-0.4,6C214.1,82.6,214,86.1,214.6,89.6z M215.1,64.6
		c-0.1,0.1-0.2,0.1-0.3,0.2c-0.1-0.3-0.4-0.6-0.4-0.9c-0.2-2.7-0.3-5.4-0.4-8.1c0-0.6,0.2-1.1,0.3-1.7c0.2-1,0.5-1.9,0.5-2.9
		c0.1-3,0.1-6,0.2-9.1c0.2-4.5,1.1-8.9,2.4-13.2c0.1-0.2,0.2-0.4,0.3-0.6c0.1,0.2,0.2,0.3,0.2,0.4c-0.1,4.1-0.1,8.2-0.2,12.3
		c0,2,0,4-0.2,6c-0.2,1.9-0.5,3.7-0.8,5.6C216.2,56.5,215.7,60.6,215.1,64.6z M220.4,94.4c0,0.3,0,0.6-0.1,0.8c-1,2-1.2,4.1-1.2,6.3
		c0,4.4,0.1,8.7,0.2,13.1c0,0.5,0.1,1,0.2,1.4c-0.1,0-0.2,0-0.2,0.1c-0.2-1.7-0.5-3.4-0.7-5.1c-0.3-2.3-0.6-4.6-0.8-6.9
		c-0.1-1.3,0.1-2.7,0.1-4c0-3.1,0.1-6.2-0.1-9.4c-0.1-1.5-0.8-3-0.8-4.5c0-2.2-0.6-4.4,0.7-6.5c0.2-0.3,0.2-0.7,0.4-1.4
		c1,2,2.3,3.8,2.3,5.9C220.5,87.6,220.4,91,220.4,94.4z M221.4,76.1c-0.1,0.2-0.1,0.5-0.2,0.7c0,0.1-0.1,0.2-0.1,0.1
		c-1-1-2-2-2.9-3.1c-0.2-0.2-0.1-0.6,0-0.9c0.6-4.1,1.2-8.3,1.8-12.4c0.4-2.7,0.7-5.5,1.3-8.2c0.5,2,1,4.1,1.5,6.1
		c0.8,3.3,1.6,6.6,2.5,9.9c0.3,1.2-0.6,2.1-1.3,2.5C222,72.1,221.9,74.1,221.4,76.1z M230.7,99.4c-0.2-0.3-0.4-0.6-0.6-0.8
		c-1-1.4-2-2.8-3-4.2c-0.4-0.5-0.9-1.1-1.4-1.2c-1.3-0.4-1.3-1.2-1.3-2.2c0-4.6,0-9.2,0.1-13.8c0-0.8,0-1.7,0.2-2.5
		c0.1-0.4,0.6-0.7,1-1.1c0.3,0.4,0.8,0.7,1,1.1c0.2,0.7,0.2,1.5,0.4,2.2c1,6.1,2.1,12.3,3.1,18.4c0.2,1.4,0.5,2.8,0.7,4.1
		C230.8,99.4,230.8,99.4,230.7,99.4z M228.7,53.9c0.2,0.3,0.3,0.6,0.5,0.8c3.3,6.4,5.4,13.2,6.7,20.2c0.4,2,0.8,4,2.2,5.6
		c0.2,0.2,0.2,0.8,0.1,1.1c-0.8,1.8-1.7,3.5-2.8,5.5C233,76,228.8,65.4,228.7,53.9z M239,112.1c0,1.3-0.5,2.1-1.4,2.9
		c-0.4-1.3-0.9-2.4-0.8-3.8c0.3-3.8,0.1-7.6-0.3-11.4c-0.1-1.4,0.2-2.9,0.6-4.2c0.8-2.9,1.8-5.7,2.8-8.6c0.1,0,0.2,0.1,0.3,0.1
		C239.3,95.5,238.7,103.8,239,112.1z M240.6,78.2c-0.6-3-1-6.1-1.7-9.1c-1.4-6.7-4.3-12.7-8-18.4c-0.2-0.2-0.3-0.6-0.3-0.8
		c0.2-1.6,0.4-3.2,0.6-5.2c1.1,2.1,2.2,4,3.2,5.9c1.1,2,2.2,4,3.3,6.1c0.1,0.3,0.3,0.6,0.3,0.9c0.5,6.5,1.5,12.8,3.2,19.1
		C241.4,77.1,241,77.7,240.6,78.2z M241.4,36.7c0,0.2-0.1,0.4-0.1,0.6c-3.2-3.5-6-21.8-3.9-26.4c0.9,4,1.7,7.8,2.6,11.6
		c0.3,1.3,0.9,2.5,1.3,3.8c0.1,0.3,0.2,0.5,0.2,0.8C241.5,30.3,241.4,33.5,241.4,36.7z M241.8,43.3c1.7,5,3.1,10,4.2,15.1
		c1.1,5.1,2,10.3,2.9,15.3c-1.3,0.7-2.7,1.4-4.1,2.2C242.1,65.3,241.1,54.4,241.8,43.3z M249,118.4c-2.2,2.6-4.1,5.4-6.2,8.2
		c-0.1-0.1-0.2-0.1-0.4-0.2c0.4-1.9,0.8-3.8,1.1-5.7c0.3-1.8,1.1-3.3,2.6-4.4c1.3-0.9,2.4-2,3.8-3.1
		C250,115.1,250.4,116.7,249,118.4z M250.1,102.6c0,0.4-0.2,0.8-0.5,1.1c-1.9,1.6-3.8,3.1-5.8,4.6c-0.1,0.1-0.2,0.1-0.6,0.3
		c0.2-4.3,0.3-8.4,0.6-12.4c0.2-2.9,0.4-5.7,0.9-8.5c0.6-3,1.4-6,3.6-8.4c0.2-0.2,0.3-0.3,0.5-0.5c0.1-0.1,0.2-0.1,0.4-0.2
		c1,1.3,1.2,2.8,1.3,4.3C251.1,89.3,250.8,95.9,250.1,102.6z M251.1,37.4c-0.3-3.5-0.5-6.9-0.8-10.2c0-0.4,0-0.8,0.1-1.1
		c1.5-4,3-7.9,4.5-11.9c0.6-1.4,1.2-2.8,2-4.2c0.2-0.4,0.8-0.5,1.2-0.8c0.2,0.5,0.6,1,0.6,1.4c0,0.9-0.3,1.9-0.5,2.8
		c-1.9,6.6-3.9,13.2-5.8,19.8C252,34.5,251.6,35.9,251.1,37.4z M253.1,57.1c-0.1,0.3-0.2,0.7-0.3,1c-0.1,0-0.1,0-0.2,0
		c1.3-9.1,2.6-18.2,4-27.3c0.1,0,0.3,0,0.4,0c0.1,1.2,0.2,2.5,0.3,3.7c0,2.9-0.1,5.9,0.1,8.8c0.2,1.9-0.4,3.3-1.1,5
		C255,51.2,254.1,54.1,253.1,57.1z M255.1,78c-0.3-1.4,0.1-12.7,0.7-15.6c1.2-6.4,3.5-12.9,5.3-14.8c0,1.9,0.1,3.7,0,5.5
		c-0.5,5.1-1,10.2-1.6,15.3c0,0.2-0.1,0.5-0.2,0.7C257.9,72.1,256.4,75.1,255.1,78z M260.6,84.3c-0.6,1.1-1.2,2.2-1.5,3.3
		c-0.5,1.7-1.6,2.3-3.3,2.8c0.2-0.6,0.3-1.2,0.5-1.8c1.3-3.9,2.4-7.9,3.9-11.7c1.5-4,3.5-7.9,6.7-11c0.2-0.2,0.5-0.4,0.7-0.7
		c0.1-0.1,0.2-0.1,0.3-0.1c0.1,0,0.2,0.1,0.3,0.1c-0.5,1.9-1,3.8-1.5,5.6C265,75.6,262.8,79.9,260.6,84.3z M272.1,85.3
		c-0.1,0.3-0.4,0.6-0.6,0.6c-1.6,0.3-3.1,0.6-4.8,0.9c0.1-0.3,0.1-0.4,0.2-0.6c1.6-3.8,3.1-7.6,4.7-11.4c1.9-4.3,4.3-8.3,8.1-11.2
		c1-0.8,2.2-1.5,3.3-2.2c0.1,0.1,0.2,0.1,0.3,0.2c-0.2,0.8-0.5,1.6-0.7,2.4c-2,5.4-4.5,10.5-7.3,15.5
		C274.1,81.5,273.1,83.4,272.1,85.3z M288.3,75.9c-1.9,2.5-3.8,5-5.8,7.5c-1,1.3-3.8,1.9-5.1,1.2c0.6-1,1.1-2,1.7-2.9
		c0.1-0.2,0.2-0.3,0.3-0.4c3.1-2.4,6.2-4.9,9.3-7.3c0.5-0.4,1-0.6,1.6-1c0,0.1,0.1,0.1,0.1,0.2C289.7,74.1,289,75,288.3,75.9z
		 M293.5,84.6c0-0.1,0-0.2-0.1-0.3c1.2-0.3,2.4-0.5,3.8-0.8C296.8,84.8,296.2,84.9,293.5,84.6z M298.8,82.5c-2.2-0.2-4-0.4-6-0.6
		c4-2.4,7.9-4.5,12.2-5.7c0.1,0.1,0.1,0.2,0.2,0.3C303,78.6,300.7,80.7,298.8,82.5z M299.3,74.4c3.7-3.5,7.7-6.2,13.1-7
		c-1,1.8-1.8,3.4-2.7,4.9C305.9,71.6,302.7,73.3,299.3,74.4z M313.1,84.5c-0.2,0.3-0.8,0.5-1.2,0.5c-0.9,0-1.7-0.1-2.9-0.1
		c3.8-4.4,7.7-8.5,12.3-11.8c-0.5,0.8-0.9,1.7-1.5,2.5C317.5,78.6,315.3,81.6,313.1,84.5z"/>
	<path d="M13.5,206.4c0.8,0.3,1.6,0.3,2.2-0.4c0.2-0.2,0.6-0.1,0.9-0.1c0.7,0.2,1.4,0.5,2.1,0.6c0.6,0,1.3-0.2,1.6-0.6
		c0.2-0.3,0-1.2-0.3-1.6c-0.4-0.6-1-1.2-1.6-1.5c-2.1-1-4.2-1.9-6.4-2.7c-1.6-0.6-3.4-0.6-4.9,0.2c0,0-0.1,0-0.1,0.1v4.1
		C9.2,205,11.3,205.7,13.5,206.4z"/>
	<path d="M162.2,247.2c1.7-0.8,3.5-1.4,5.2-2.2c0.3-0.1,0.5-0.6,0.5-1c0.3-2.6,0.4-5.2,0.7-7.8c0.1-0.7,0.2-1.5,0.4-2.2
		c0.1-0.3,0.4-0.6,0.6-0.9c0.2,0.3,0.5,0.6,0.6,0.9c0.2,0.6,0.3,1.2,0.3,1.8c0.2,3,0.3,6,0.4,9.1c1.4,0.7,2.9,1.4,4.3,2.1
		c3.1,1.5,6.2,2.5,9.7,2.4c5.5-0.2,9.2-3.1,10.4-8.5c1-4.5-0.4-8.6-2.6-12.4c-1.2-2.2-2.5-4.5-4.7-5.8c-5.9-3.6-11.9-6.2-19.1-5.7
		c-5.2,0.4-10.2,1.2-14.9,3.3c-3.1,1.3-6.2,2.9-8.1,5.8c-2.8,4.2-4.5,8.8-4.4,13.9c0.1,3.7,1.8,6.3,5,7.5
		C151.7,249.4,157,249.8,162.2,247.2z"/>
	<path d="M121.8,238.3c-0.2,0-0.3,0-0.4,0.1c-4.3,2-8.6,3.8-13.3,4.7c-0.2,0-0.5,0.4-0.6,0.6c-0.5,1.8-0.9,3.7-1.4,5.5
		c3.3,1.2,6.4,0.9,9.2-0.6c1.2,2,2.2,4,3.4,5.8c2.9,4.3,6.6,7.7,11.4,9.9c1.9,0.9,3.7,1.9,5.4,2.8c-0.4,1.1-0.9,2-1.1,3
		c-0.1,0.5,0.2,1.3,0.6,1.5c0.4,0.2,1.2-0.1,1.6-0.4c0.4-0.3,0.7-0.9,1-1.3c0.3-0.5,0.6-1,0.8-1.5c3,0.9,5.9,1.9,8.9,2.5
		c3,0.6,6.1,0.7,9.1,1c0.6,0.6,1,1.3,1.6,1.5c1.1,0.4,2.3,0.5,3.4,0.7c0.2,0,0.3,0.1,0.5,0.2c0.7,0.5,1.4,0.4,2.2,0.2
		c0.4-0.1,1-0.2,1.4-0.1c2.1,0.7,4.1,0.7,6.2,0.3c0.7-0.1,1.4-0.2,2.1-0.3c-0.1,0.1-0.2,0.2-0.3,0.2c0.3,0.5,0.6,1,0.9,1.5
		c0.6-0.5,1.2-0.9,1.7-1.3c0.2,1,0.9,1.7,1.7,1.4c0.8-0.3,1.5-1.1,2.2-1.6c1.3,1.3,2.5,1.4,3.5-0.1c0.4-0.7,0.9-0.8,1.5-0.9
		c1.2-0.3,2.3-0.8,3.5-1.2c0.5-0.2,1.1-0.5,1.6-0.5c2.8,0.1,5.5-0.3,8.2-1.1c1.6-0.4,3.2-0.9,5.1-1.4c-1.3,1.8-1.5,3.9-3.4,4.9
		c-0.2,0.1-0.4,0.3-0.5,0.6c-0.6,1.3-1.2,2.7-1.8,4c-0.3,0.7-0.2,1.3,0.8,1.5c0.6,0.1,1,0.5,1.6,0.9c1.9-1.1,2.4-3.2,3.2-5.1
		c1.6,0.9,3.2,0.1,3.5-1.8c0.2-1.2,0-2.4-0.1-3.6c-0.1-0.8,0.5-2.8,1.1-3.2c2-1,3.9-2.1,5.9-3c4-1.8,7.3-4.5,10-7.9
		c1.9-2.4,3.4-5.1,5.1-7.7c1.3,0.4,2.8,1,4.4,1.2c1.6,0.1,3.1-0.3,4.8-0.5c-0.5-1.9-0.9-3.6-1.3-5.3c-0.2-0.7-0.5-1-1.2-1.1
		c-3.7-0.8-7.3-2-10.7-3.7c-0.8-0.4-1.6-0.7-2.4-1c-0.1,0.1-0.1,0.2-0.1,0.2c0.2,0.4,0.3,0.7,0.5,1.1c1.3,3,1.6,6.2,0.4,9.1
		c-0.9,2.1-2.3,4.1-3.9,5.7c-7.8,7.5-17.4,11.3-28.2,12c-5.6,0.4-11-1.1-15.6-4.5c-1.3-0.9-2.4-2.1-3.6-3.1c0,0-0.1,0.1-0.2,0.1
		c-6,6.2-13.5,8.2-21.7,7.2c-6.4-0.8-12.5-3.1-18.2-6.3c-2.8-1.6-5.5-3.4-7.5-5.9c-1.4-1.7-2.8-3.5-3.5-5.4c-1.1-3-0.9-6.1,0.5-9
		C121.5,239.1,121.6,238.7,121.8,238.3z M178.4,269.5c-0.6,0.7-0.9,1.6-2.2,1.1C176.9,270.2,177.2,269.2,178.4,269.5z M172.1,264.4
		c0.1,0.1,0.3,0.4,0.5,0.7c-1,0.8-2.1,1.6-3.2,2.4C170.4,266.4,171.3,265.4,172.1,264.4z M166.8,269.9c0,0,0.1,0.1,0.1,0.1
		c0,0.5-0.1,1-0.1,1.4c0.5,0,1,0,1.5-0.1c0.6-0.2,1.1-0.6,1.9-1c-0.3,0.5-0.5,0.7-0.6,1c-0.1,0.3-0.1,0.7-0.1,1c0.3,0,0.7,0.1,1,0
		c1-0.6,1.9-1.1,2.8-1.8c0.8-0.6,1.6-1.4,2.3-2.1c0.1-0.1,0.3-0.2,0.6-0.2c-1.1,1.6-3.6,2.4-2.7,5c-2.6-0.2-5.1-0.3-7.6-0.4
		C165.3,271,165.3,271,166.8,269.9z"/>
	<path d="M218.6,198.5c0.1,2.7,1.1,5,2.9,7c2.7,3,6,4.6,10,4.9c4.9,0.4,9.6-0.3,14-2.4c4.2-2,6.6-5.3,6.4-10.1
		c-0.1-1.6-0.3-3.2-0.5-4.8c-0.1-1.8-0.7-3.4-1.8-4.7c-4-4.8-8.9-7.9-15.5-7.3c-0.8,0-1.7,0-2.5,0c-3.5,0-6.3,1.5-8.5,4.1
		C219.6,189,218.4,193.5,218.6,198.5z"/>
	<path d="M87.6,191.5c-0.5,4.4,0.2,8.7,2.8,12.5c2,3,4.6,5.3,8.4,5.8c1.6,0.2,3.2,0,4.7,0c3.5,0.3,7,0.1,10.1-1.8
		c3.3-2,5.7-4.7,6.4-8.5c0.5-2.6,0.3-5.3-0.4-7.8c-1.9-7.1-6.6-10.9-13.9-11.1c-0.1,0-0.3,0-0.4,0c-5.5-0.6-10.1,1.4-14,5.1
		C89.5,187.3,87.9,189,87.6,191.5z"/>
	<path d="M32.4,187.8c-1.2-0.7-2.3-1.4-3.7-1.8c-3.3-0.7-6-2.5-8-5.2c-0.4-0.6-0.9-1.1-1.4-1.6c-6.8-7.8-10.8-16.8-11.8-27.1
		c-0.2-2-0.3-3.9-0.5-5.9v32.6c0,0,0.1,0.1,0.1,0.1c0.7,0.9,1.4,1.8,1.3,3.1c0,0.5,0.3,1.1,0.6,1.5c0.6,0.7,1.2,1.5,1.9,2.1
		c5.2,4.7,11.1,8.5,17.1,12c0.4,0.2,0.7,0.5,0.9,0.9c0.7,1.2,1.3,2.4,2,3.7c0.2-1,0.4-1.9,0.6-2.9c2,0.7,3.7,0.9,5.4-0.5
		c0.3,0.6,0.5,1.1,0.8,1.5c0.4,0.3,1,0.7,1.4,0.5c0.4-0.1,0.8-0.9,0.7-1.3c-0.5-2-1.1-3.9-1.6-5.8c-0.1-0.3-0.2-0.5-0.3-0.9
		c0.6,0,1,0,1.5,0c2.1-0.2,4.3-0.3,6.4-0.7c1.1-0.2,2.1-0.8,3-1.5c0.4-0.3,0.7-1.2,0.6-1.8c-0.1-0.8-0.9-1.1-1.7-1.2
		c-0.2,0-0.5,0-0.7,0c-1.7,0.2-3.4,0.3-5.1,0.6c-0.8,0.1-1.1-0.1-1.3-0.8c0-0.2-0.1-0.4-0.2-0.5c-0.2-0.2-0.5-0.5-0.8-0.5
		c-0.3,0-0.5,0.4-0.7,0.6c-0.2,0.3-0.2,0.7-0.2,1.1c-0.3-0.1-0.6-0.2-0.9-0.3c-1.2-0.6-2.4-0.9-3.7,0
		C33.8,188.2,32.9,188.1,32.4,187.8z"/>
	<path d="M324.8,128.2c-0.2,1.2-0.8,2.3-0.8,3.4c-0.2,3.9,0,7.9-0.3,11.8c-0.2,2.5-0.5,5.1-1.2,7.6c-1.6,5.2-4.3,9.9-7.6,14.2
		c-4.3,5.5-8.3,11.2-13.9,15.6c-1,0.8-1.9,1.6-2.9,2.4c1.6-3.1,3.3-6,5-8.9c0.3-0.5,0.6-1,0-1.3c-0.3-0.1-0.8,0.2-1.2,0.4
		c-0.1,0-0.2,0.2-0.3,0.3c-1.1,1.3-2.1,2.6-3.2,3.9c-2.7,3.3-5.3,6.6-7.9,10c-0.3,0.4-0.5,0.8-0.7,1.2c-0.5,1.2-0.3,1.9,0.8,2.5
		c-0.3,2.2,0,2.7,2.4,3.8c-0.4,0.2-0.7,0.4-0.9,0.6c-1.2,1.3-0.9,2.6,0.8,3.2c0.3,0.1,0.7,0.7,0.7,1.2c0.1,0.7-0.3,1.5-0.2,2.2
		c0.1,0.5,0.4,1.2,0.8,1.4c0.4,0.2,1.2,0,1.6-0.3c0.6-0.5,1.1-1.2,1.6-1.9c0.1-0.2,0.1-0.5,0.1-0.7c-0.3,0-0.5-0.2-0.8-0.1
		c-0.5,0.1-0.9,0.2-1.4,0.4c-0.3-0.8,0-0.9,0.6-1.2c0.6-0.3,1.3-0.9,1.5-1.4c0.1-0.3-0.6-1-1-1.6c0.1-0.1,0.4-0.3,0.7-0.6
		c0.9-1.1,1.8-2.1,2.6-3.3c0.3-0.4,0.2-1.1,0.3-1.6c-0.1-0.1-0.1-0.1-0.2-0.2c0.1-0.1,0.3-0.2,0.4-0.3c4.2-2.4,8.1-5.3,11.3-8.9
		c5.2-5.7,9.3-12.1,13-18.7c0.1-0.1,0.1-0.2,0.2-0.3v-36.8C324.8,126.9,324.9,127.6,324.8,128.2z"/>
	<path d="M42.1,171.8c-1.1,1.9-2.4,2.1-4.4,1.2c-0.7-0.3-1.4-0.5-2,0.3c-0.5,0.8,0,1.3,0.5,1.8c0.9,0.9,1.8,1.9,2.7,2.9
		c-1.8,0.1-2.6,1-2.1,2.4c0.1,0.4,0.4,0.9,0.8,1.2c1.7,1.5,3.3,2.9,5.1,4.3c0.4,0.3,1.1,0.6,1.6,0.6c1.2,0.1,2-1,1.6-2.1
		c-0.2-0.6-0.6-1.2-1.1-1.7c-0.5-0.7-1.1-1.3-1.6-1.9c1.1,0.6,2.3,1.3,3.5,1.9c0.8,0.4,1.6,0.4,2.2-0.4c0.6-0.7,0.4-1.6-0.2-2.2
		c-0.4-0.4-0.8-0.8-1.3-1c-1.4-0.8-2.8-1.5-4.5-2.4c0.9-0.5,1.6-0.8,2.3-1.2c0.7-0.3,1.4-0.6,2-1c1.4-1,1.5-2.2,0.1-3.4
		c1.3-3.1,2.5-6.2,3.8-9.2c1.3-3.1,2.5-6.3,5.2-8.7c0.4-0.3,0.5-1.2,0.3-1.7c-0.2-0.5-0.9-1-1.4-1c-0.8,0.1-1.8,0.3-2.3,0.9
		c-1.1,1-2.1,2.2-2.8,3.5c-1.4,2.6-2.5,5.4-3.8,8.1C44.9,166,43.6,169,42.1,171.8z"/>
	<path d="M19.2,301c0.3-0.5,0.6-1,0.9-1.5c-0.7,0-1.3,0.1-1.8,0.2C18.6,300.1,18.9,300.6,19.2,301z"/>
	<path d="M19.8,296.1c1.3-1.3,2.8-2.5,4.2-3.6c0.6-0.5,1.1-0.9,0.6-1.6c-0.4-0.7-1.2-0.6-1.8-0.3c-2.2,1.4-4.5,2.7-6.6,4.4
		c-0.2,0.2-0.5,0.4-0.7,0.6c0.6,1,1.2,2,1.9,3C18.2,297.7,18.9,296.9,19.8,296.1z"/>
	<path d="M290.4,241.4c-3.4,2.8-6.5,5.8-10.7,7.3c-0.9,0.3-1.4,1-1.3,2c0.1,1,0.7,1.5,1.6,1.8c2,0.7,3.8,0.1,5.5-0.9
		c6.1-3.8,11.2-8.7,15.6-14.4c0.9-1.2,1.8-2.6,0.4-4.3c-1.5,1-3,2-4.5,3.1C294.9,237.7,292.7,239.6,290.4,241.4z"/>
	<path d="M310.4,187c-0.4,0.3-0.7,0.7-1.2,1.1c1.6,0.5,2.8-0.1,3.9-0.7c1.9-1,3.8-2,5.7-3c-1.1,1.3-2.3,2.4-3.5,3.5
		c-0.8,0.8-1.6,1.5-2.3,2.3c-0.3,0.4-0.4,1.2-0.2,1.5c0.2,0.4,0.9,0.7,1.4,0.8c0.6,0.1,1.3-0.1,1.8-0.3c2.9-1.1,5.9-2.2,8.8-3.3
		v-3.2c-1.6,0.4-3.2,0.9-5,1.5c0.5-0.4,0.8-0.6,1.1-0.9c1.3-1.2,2.7-2.3,4-3.6v-3.9c-0.4,0.1-0.7,0.3-1.1,0.5
		C319.2,181.7,314.6,184,310.4,187z"/>
	<path d="M164.4,290.4c0.4,0,1-0.6,1-1c0-0.7-0.7-0.9-1.3-0.9c-4-0.1-7.6-1.6-11.1-3.3c-0.6-0.3-1.1-1-1.5-1.7
		c-0.5-0.9-0.8-1.9-1.3-2.9c-0.8-1.5-1.5-1.9-3.2-1.4c0-0.8,0-1.5,0.1-2.2c0.2-1.5-0.3-2.5-1.3-2.9c-0.9-0.3-1.7,0.2-2.5,1.5
		c-0.6-0.1-1.1-0.2-1.6-0.3c0,0.5-0.1,1.1-0.1,1.6c0,0.1,0.1,0.3,0.1,0.4c0.3,1.2,0.6,2.4,1.1,3.6c0.3,0.6,0.9,1.2,1.4,1.7
		c0.3,0.3,0.8,0.5,1,0.8c3,3.6,6.6,6.3,11.3,6.9C159.3,290.7,161.9,290.5,164.4,290.4z"/>
	<path d="M296.6,311.7c-0.7-1.8-1.6-3.5-2.6-5.2c-2.5-4.2-5.3-8.2-8.9-11.5c-0.4-0.4-1-0.7-1.5-0.9c-1-0.3-1.4,0-1.2,1.1
		c0.1,0.6,0.4,1.1,0.7,1.6c1.6,2.6,3.3,5.1,4.9,7.7c1.7,2.9,3.3,5.8,4.9,8.7c0.6,1.1,1.2,2.1,2,3c0.1,0.2,0.4,0.3,0.6,0.4
		c0.7-0.4,1.4-0.9,2-1.3C297.2,314,297.1,312.8,296.6,311.7z"/>
	<path d="M281.9,133c-0.9-1.1-1.6-2.4-2.4-3.6c-0.3-0.4-0.7-0.7-1.1-1c-0.3,0.4-0.7,0.8-1,1.2c-0.1,0.2-0.1,0.5-0.1,0.8
		c-0.5,3,1.3,5.1,2.8,7.2c-0.4,0.3-1,0.6-1.3,1.1c-0.6,0.9,0,2,1.3,2.3c0.7,0.2,1.5,0.2,2.3,0.3c-0.6,0.5-1.1,0.8-1.5,1.2
		c-0.5,0.5-0.9,1.1-0.4,1.8c0.4,0.7,1.1,0.9,1.8,0.6c0.4-0.1,0.8-0.3,1.2-0.5c3.2-1.6,4.7-4.8,6.3-7.7c0.6-1.1-0.2-2-1.5-1.8
		c-0.8,0.1-1.6,0.6-2.3,0.9c-1.1,0.5-2.1,1-3.2,1.5C283.1,135.6,282.9,134.3,281.9,133z"/>
	<path d="M57.4,224.3c0.1-0.2,0-0.5-0.1-0.7c-0.2-0.3-0.7-0.6-0.8-0.9c-0.7-2-2-3.7-3.5-5.2c-3.4-3.7-6.9-7.3-11-10.3
		c-0.6-0.4-1.4-0.7-2.2-1.1c-0.5,0.4-1.2,0.7-1.4,1.2c-0.2,0.5,0.1,1.3,0.4,1.8c0.7,0.9,1.6,1.6,2.5,2.4c3.5,3.4,6.9,6.7,10.3,10.1
		c1.5,1.5,3.5,1.8,5.2,2.8C56.9,224.5,57.3,224.4,57.4,224.3z"/>
	<path d="M135,285.8c-0.3-0.7-0.5-1.5-0.8-2.1c-0.4-0.7-0.8-1.5-1.4-1.8c-0.5-0.3-1.4,0.1-2.1,0.2c0-0.4-0.1-0.9-0.2-1.5
		c-0.2-1-0.9-1.5-1.9-1.5c-0.9,0.1-1.9,0.9-1.9,1.8c-0.1,1.6-0.1,3.3-0.1,4.9c0,0.9,1,1.9,1.8,2.1c1,0.2,1.3-0.7,1.6-1.3
		c0.3-0.6,0.4-1.3,0.6-2c0.3,0.7,0.4,1.4,0.7,2c0.3,0.6,0.6,1.3,1.1,1.8c1.2,1.4,2.5,1.3,3.2-0.3c3,5.6,5.2,7.3,9.2,6.9
		c-4.4-2.9-6.3-7.3-8.3-11.8C135.3,283.6,135.1,284.6,135,285.8z"/>
	<path d="M185.9,293c0.6,0.2,1.2,0.3,1.9,0.2c3.4-0.2,6.9-0.5,10.3-0.8c1.6-0.2,3.3-0.4,4.7-1c4.3-1.8,6.8-5.7,10-8.9
		c-0.8,0.1-1.5,0.3-2.2,0.7c-2.4,1.5-4.8,3.1-7.2,4.6c-0.6,0.3-1.3,0.4-1.9,0.6c0-0.1-0.1-0.2-0.1-0.3c0.3-0.3,0.6-0.7,0.9-1.1
		c-0.7,0.1-1.3,0.4-1.8,0.3c-1.2-0.2-2,0.4-2.8,1.2c-0.2,0.2-0.7,0.4-1,0.4c-2.4,0.3-4.8,0.4-7.1,0.9c-1.4,0.3-2.7,1-4,1.8
		C184.8,292.1,184.9,292.7,185.9,293z"/>
	<path d="M290.7,182.1c0.6,0.6,1.4,0.5,2,0.1c0.7-0.5,1.4-1.1,1.9-1.8c1.6-2.2,3.2-4.3,4.6-6.7c1.3-2.2,2.2-4.6,3.2-7
		c0.3-0.6,0.2-1.3-0.5-1.6c-0.7-0.3-1,0.2-1.4,0.8c-0.6,1-1.4,2-2.1,3c-1.2-0.9-1.7-0.9-2.5,0c-1.7,2-3.5,4-5.1,6
		c-0.3,0.4-0.5,1-0.3,1.4c0.1,0.4,0.7,0.6,1.2,0.9c0.2,0.1,0.5,0,0.9,0c-0.8,1-1.5,1.9-2.1,2.8C290.1,180.8,290,181.5,290.7,182.1z"
		/>
	<path d="M242.4,268.1c-1.4,0.2-2.7,0.6-4.1,0.8c-2.2,0.3-4.4,0.6-6.6,0.6c-1.3,0-2,0.3-2.3,1.6c-0.3,1.3-0.9,2.6-1.3,3.8
		c-0.4,1.1-0.9,2.1-1.2,3.2c-0.2,1,0.3,1.4,1.4,1.1c0.3-0.1,0.6-0.3,0.9-0.5c1.6-1.1,2.6-2.6,3.4-4.3c0.3-0.7,0.6-0.9,1.2-0.8
		c0.3,0,0.6,0,0.8,0c2.7,0,5.3-0.7,7.7-1.8c1-0.5,2-1.3,2.9-2.1c0.7-0.7,0.5-1.3-0.5-1.5C243.9,268.1,243.2,268,242.4,268.1z"/>
	<path d="M176.8,288.9c-0.3,0.1-0.6,0.4-0.8,0.6c0.3,0.2,0.5,0.6,0.8,0.7c1,0.2,1.9,0.3,2.9,0.2c2.4-0.1,4.4-1.2,6.5-2.2
		c0.3-0.2,0.7-0.4,1.1-0.3c1.1,0.2,1.9-0.3,2.6-1c0.9-0.9,1.7-1.8,2.6-2.6c0.6-0.6,0.5-1-0.4-1.3c-0.1-0.1-0.3-0.1-0.4-0.3
		c-1.1-1.3-2.1-1.5-3.5-0.4c-0.4,0.3-0.8,0.7-1.3,1.1c-0.4-1.7-1.1-2.5-2.2-2.7c-1.1-0.1-2.1,0.7-2.8,2.1c-0.4,0.8-0.7,1.6-1.1,2.4
		c-0.5,0.9-0.6,1.9,0.2,2.9c-0.4,0.1-0.6,0.2-0.8,0.3C179.1,288.4,177.9,288.6,176.8,288.9z"/>
	<path d="M115,285.7c0.8,0.7,1.7,0.6,2.4,0c1.1-1,2.1-2,3-3.2c0.6-0.8,0.6-1.7-0.2-2.5c-0.7-0.7-1.3-1.5-2.1-2
		c-0.8-0.6-1.7-1.3-2.6-1.4c-3.2-0.2-6.3-0.1-9.1,1.5c0.2,1.7,1.2,2.7,2.7,2.8c1.9,0.2,3.9,0.1,5.9,0.2c0.4,0,0.9,0.1,1.5,0.1
		c-0.6,0.9-1.1,1.5-1.5,2.2C114.4,284.1,114.2,284.9,115,285.7z"/>
	<path d="M323.2,245.9c-1.1,1.3-2.4,2.4-3.6,3.7c-3.5,3.9-6.9,7.7-10.4,11.6c-0.5,0.6-1,1.3-1.3,2c-0.4,0.7,0.1,1.4,1,1.4
		c0.3-0.2,0.8-0.4,1.2-0.7c6.1-5.1,11.5-10.8,14.8-18.1v-2.5C324.3,244.2,323.9,245.1,323.2,245.9z"/>
	<path d="M52.5,146c0.3,0,0.7,0.1,0.8,0c0.8-1.1,2.2-1.2,3.3-1.8c1.6-0.8,3.2-1.5,4.9-2.2c0.8-0.4,1.7-0.6,2.4-1
		c1.1-0.5,1.5-1.6,1.3-2.5c-0.3-1-1-1.4-2.3-1.4c-4.5,0-8.1,2.4-12,4.1c-0.4,0.2-0.7,1.1-0.5,1.5c0.2,0.4,0.9,0.7,1.4,0.9
		c0.5,0.1,1-0.1,1.5-0.2c0.1,0.1,0.2,0.2,0.3,0.3c-0.3,0.5-0.7,1-1,1.5C52.5,145.4,52.6,145.7,52.5,146z"/>
	<path d="M21.7,229.7c1,0.6,2.1,1.1,3.2,1.6c0.3,0.1,0.6,0.1,0.9,0.2c-0.1-0.3-0.2-0.7-0.4-0.9c-0.6-0.6-1.2-1-1.8-1.6
		c-1.2-1.2-2.3-2.6-3.5-3.7c-2.3-2.1-4.6-4.1-6.9-6.2c-1.1-1-2.1-1.9-3.2-2.8c-0.4-0.3-0.9-0.5-1.5-0.8c-0.4,0.3-0.8,0.5-0.9,0.8
		c-0.1,0.4,0,1,0.2,1.3c2.7,3.4,5.6,6.5,9.1,9.1C18.3,227.8,20,228.7,21.7,229.7z"/>
	<path d="M290.2,170.1c0,0.4,0.4,0.8,0.7,1.2c0.3-0.4,0.7-0.8,0.8-1.2c0.7-3.1,1.4-6.1,2.1-9.2c0.2-1-0.3-1.6-1.3-1.4
		c-0.5,0.1-0.9,0.4-1.4,0.6c0-0.3,0-0.6,0.1-0.9c0.2-1.4,0.5-2.8,0.7-4.1c0-0.4-0.4-0.8-0.6-1.2c-0.3,0.2-0.8,0.4-0.9,0.7
		c-0.6,1.3-1.1,2.7-1.6,4c-0.9,2-1.8,4-2.7,5.9c-0.3,0.8-0.5,1.6,0.3,2.2c0.8,0.6,1.5,0.2,2.2-0.4c0.4-0.3,0.7-0.7,1.1-1
		c0.4-0.4,0.9-0.8,1.4-1.2c0,0.8-0.3,1.4-0.4,2.1C290.4,167.5,290.2,168.8,290.2,170.1z"/>
	<path d="M295.8,145.1c-0.7-0.4-1.4-0.3-2,0.2c-3.6,2.7-6.7,5.9-9.1,9.7c-0.6,0.9-1,2-1.4,3c0.2,0.9,0.3,1.7,1.2,1.9
		c0.5,0.1,1.2-0.3,1.5-0.6c1.2-1.5,2.3-3.1,3.5-4.6c2.1-2.6,4.3-5.1,6.5-7.7C296.5,146.3,296.5,145.5,295.8,145.1z"/>
	<path d="M324.9,253.6c-0.4-0.3-0.8-0.3-1.3-0.1c-0.3,0.2-0.6,0.5-0.8,0.8c-1.2,1.4-2.3,2.8-3.4,4.2c-1.6,2.1-3.3,4.1-4.9,6.2
		c-0.7,0.9-0.6,2,0,2.4c0.9,0.7,1.7,0.2,2.4-0.4c0.7-0.6,1.4-1.2,1.9-2c2.1-3,4.2-5.9,6.2-8.9V253.6z"/>
	<path d="M48.1,224.6c0.6,0.5,1.4,0.7,1.9,1.2c0.6,0.6,1.2,0.9,1.9,0.4c0.6-0.5,0.6-1.4,0-2.2c-0.4-0.5-0.8-1-1.3-1.4
		c-2.7-2.3-5.3-4.5-8.1-6.7c-0.6-0.5-1.5-0.7-2-0.9c-1.4,0-1.8,0.6-1.4,1.5c0.2,0.3,0.3,0.7,0.6,1C42.6,219.9,45.4,222.2,48.1,224.6
		z"/>
	<path d="M218.5,284.7c0.1,0.3,0.3,0.6,0.5,0.7c0.7,0,1.5,0.2,2.1-0.1c2.5-1.3,4.2-3.4,5-6.1c0.3-1.2-0.4-2.3-1.4-2.6
		c-1-0.4-1.9,0.1-2.6,1.1c-0.5,0.8-1,1.5-1.5,2.4c-0.7-0.3-1.3-1-1.9-0.1c-1,1.7-2,3.4-3.2,5.3c1.1-0.6,2-1.1,3-1.6
		C218.5,284.1,218.4,284.4,218.5,284.7z"/>
	<path d="M16.9,200c0.6,0,1.3,0.1,1.9-0.1c0.4-0.1,0.9-0.5,1-0.9c0.1-0.4-0.2-1-0.5-1.2c-0.5-0.4-1.2-0.7-1.9-0.9
		c-1.8-0.3-3.5-0.4-5.1-0.6c-1.8,0.2-3.6,0.4-5.3,0.5v2.2c1.6,0.2,3.2,0.5,4.8,0.6C13.6,199.8,15.3,199.9,16.9,200z"/>
	<path d="M224.5,133.4c0.5,0.2,1.3,0.1,1.7-0.3c0.5-0.4,0.9-1.1,1.2-1.7c1.8-3.2,2.4-6.7,2.7-10.3c0.1-0.7-0.3-1.3-1-1.5
		c-0.8-0.1-1.2,0.3-1.5,1c-0.2,0.7-0.5,1.4-0.7,2.1c-1.1,2.9-2.2,5.7-3.2,8.6c-0.1,0.2-0.1,0.3-0.1,0.5c-0.1,0-0.1,0.1-0.2,0.1
		C223.8,132.5,224.1,133.2,224.5,133.4z"/>
	<path d="M39.1,228.5c0.3,0.5,0.6,1.1,1,1.5c2,2.2,4.5,3.7,7.3,4.5c1,0.3,2.1,0.4,3-0.3c0.3-0.2,0.6-0.3,0.9-0.5
		c-0.5-0.7-0.9-1.5-1.6-1.9c-1.1-0.8-2.4-1.4-3.6-2.1c-1.7-1-3.3-2.1-4.9-3c-0.5-0.2-1.3-0.3-1.7,0C38.8,227,38.7,227.8,39.1,228.5z
		"/>
	<path d="M51.6,233.7c-0.1,0-0.2,0.1-0.3,0.1c0,0,0.1,0.1,0.1,0.1C51.5,233.8,51.5,233.8,51.6,233.7z"/>
	<path d="M246.2,266.4c2.6,0.2,5-0.7,7.5-1.5c1.1-0.3,1.6-0.9,1.5-1.7c-0.1-0.8-0.8-1.1-2-1c-3.5,0.3-6.9,0.6-10.4,0.8
		c-0.8,0.1-1.7,0.1-1.8,1c-0.2,1,0.5,1.5,1.3,1.8c1.3,0.4,2.6,0.6,3.9,0.9C246.2,266.6,246.2,266.5,246.2,266.4z"/>
	<path d="M303.1,306.7c-1.3-2-2.8-3.9-4.3-5.8c-0.4-0.6-1.1-1-1.7-1.4c-0.9-0.5-1.7,0-1.7,1.4c0.3,0.5,0.6,1.4,1.2,2.1
		c1.9,2.8,3.9,5.6,5.9,8.3c0.1,0.1,0.2,0.2,0.3,0.3c0.5-0.4,1.1-0.9,1.6-1.4C304,309,303.7,307.7,303.1,306.7z"/>
	<path d="M288.2,236.9c-0.3,0.3-0.6,0.9-0.5,1.2c0.1,0.4,0.7,0.8,1.1,0.8c0.6,0.1,1.4,0,1.9-0.3c3.5-2.1,6.1-5,7.8-8.7
		c0.2-0.4,0-1,0-1.5c-0.1,0-0.2-0.1-0.4-0.1c-1,0.7-2,1.4-2.9,2.2c-1.7,1.6-3.4,3.3-5.1,4.8C289.6,236,288.8,236.3,288.2,236.9z"/>
	<path d="M24.8,303.5c-0.3-0.4-1-0.6-1.6-0.6c-0.4,0-1,0.2-1.4,0.4c-0.2,0.1-0.4,0.2-0.6,0.3c0.7,0.9,1.4,1.7,2.2,2.5
		c0.4-0.3,0.8-0.6,1.1-1C24.8,304.6,25,303.8,24.8,303.5z"/>
	<path d="M10.2,208c-1,0-1.8,0.3-2.1,1.3c-0.2,0.8,0,1.6,0.8,2c2.1,1.1,4.3,2.1,6.4,3.1c0.1,0.1,0.3,0.1,0.4,0.1
		c0.8,0.2,1.6,0.2,2-0.6c0.5-0.8,0.2-1.5-0.4-2.1c-1.7-1.8-3.9-2.8-6.2-3.6C10.9,208,10.5,208,10.2,208z"/>
	<path d="M49,152c0.2,0.2,0.9,0.3,1.3,0.1c0.7-0.3,1.3-0.8,2-1.2c2.1-1.2,4.3-2.4,6.4-3.6c0.3-0.2,0.7-0.5,0.8-0.8
		c0.2-0.4,0.4-1.1,0.3-1.4c-0.2-0.4-0.8-0.6-1.3-1c-1,0.4-1.8,0.7-2.6,1c-2.8,1.2-4.6,3.6-6.8,5.6C48.9,150.9,48.8,151.7,49,152z"/>
	<path d="M317.6,195.7c-0.9,0.3-1.8,0.3-2,1.3c-0.2,1,0.3,1.6,1.1,1.9c1.9,0.7,3.9,1.4,5.8,2c0.6,0.2,1.3,0,2,0c0.2,0,0.3,0,0.5,0
		v-2.2c-0.2-0.1-0.3-0.3-0.5-0.4C322.2,197.2,319.8,196.5,317.6,195.7z"/>
	<path d="M47.1,244.5c2.1,1.2,4.1,2.7,6.8,2.5c0.4,0,0.9-0.3,1.1-0.6c0.1-0.3-0.1-0.8-0.3-1.1c-0.3-0.4-0.7-0.7-1.1-0.9
		c-1.6-1.2-3.4-2.2-5.7-2.9c-0.4,0.3-1.1,0.6-1.4,1.2C46,243.3,46.4,244.1,47.1,244.5z"/>
	<path d="M309.4,305.2c-0.3-1.7-1-3.2-2-4.6c-0.2-0.3-0.5-0.5-0.8-0.6c-0.8-0.4-1.5,0-1.6,0.9c0,0.5,0,1.1,0.1,1.6
		c0.5,1.8,1.1,3.5,2.1,5.1C307.9,306.8,308.6,306,309.4,305.2z"/>
	<path d="M298,219.3c-2.5,0.9-4.3,2.8-6.1,4.6c-0.3,0.3-0.3,1.2-0.1,1.6c0.2,0.4,0.9,0.7,1.2,0.9c0.5-0.1,0.8-0.2,1-0.3
		c2.2-1.4,4-3.2,5-5.8c0.1-0.3,0.1-0.8-0.1-1.1C298.9,219.2,298.3,219.2,298,219.3z"/>
	<path d="M320.8,204.1c-0.5-0.4-1.2-0.6-1.8-0.9c-0.3,0.2-0.8,0.3-0.9,0.5c-0.1,0.3,0,0.9,0.2,1.1c1.8,2.1,4,3.8,6.7,4.7V207
		C323.6,205.9,322.2,205,320.8,204.1z"/>
	<path d="M95.6,265.2c-1-0.1-1.9-0.1-2.9,0c-1.8,0.1-2.3,1.4-1.4,2.9c0.8,1.2,2,1.1,3.6,1.3c0.5-0.2,1.4-0.3,2.2-0.8
		c1.1-0.7,1.1-2,0.1-2.7C96.7,265.5,96.1,265.3,95.6,265.2z"/>
	<path d="M139.7,276.7c1-1.6,1.9-3.3,2.7-5c0.1-0.3-0.3-1.2-0.7-1.4c-0.4-0.2-1.2-0.2-1.5,0.1c-1.4,1.4-2.4,3.1-2.8,5.4
		c0.3,0.4,0.5,1.1,1,1.4C138.6,277.3,139.5,277,139.7,276.7z"/>
	<path d="M148.2,294.3c0.2-0.4,0.1-1-0.2-1.3c-0.4-0.6-1-0.9-1.5-1.4c-0.6-0.6-1.1-1.2-1.7-1.7c-0.4-0.4-0.9-0.7-1.3-1
		c-0.3,0.5-0.9,1-1,1.6c-0.3,2,2.4,4.8,4.7,4.7C147.5,295,148,294.8,148.2,294.3z"/>
	<path d="M97.6,134.8c1-0.1,1.8-0.2,2-1.1c0.3-0.9-0.4-1.3-1.1-1.7c-1.4-0.7-2.8-1.5-4.3-2.2c-0.3-0.2-1-0.1-1.2,0.1
		c-0.2,0.2-0.1,0.8,0,1.2c0.1,0.3,0.3,0.6,0.5,0.9C94.5,133.5,95.9,134.6,97.6,134.8z"/>
	<path d="M257.6,257.9c-0.1-0.2-0.5-0.4-0.8-0.4c-0.5,0-1,0.1-1.4,0.2c0-0.1,0-0.1,0-0.2c-1.3,0.2-2.7,0.3-4,0.7
		c-0.5,0.1-1,0.8-1.1,1.3c0,0.5,0.5,1.1,1,1.4c0.4,0.3,1.1,0.2,1.6,0.2c1.9,0,3.2-1.3,4.6-2.3C257.6,258.7,257.7,258.1,257.6,257.9z
		"/>
	<path d="M107.9,271.2c-0.2-0.8-0.9-1.1-1.6-1.1c-1.4,0.1-2.8,0.4-4.2,0.6c-0.2,0-0.6,0.3-0.6,0.5c-0.3,0.7,0.6,2,1.4,2.2
		c0.4,0.1,0.8,0.1,1.3,0.1c0,0,0,0.1,0,0.1c0.9-0.3,1.9-0.5,2.8-0.8C107.6,272.5,108.1,272,107.9,271.2z"/>
	<path d="M194.9,283c0.9-0.8,1.1-3.7,0.4-4.6c-0.1-0.2-0.6-0.3-0.7-0.2c-1.1,0.8-1.8,1.8-1.9,3.7c0.2,0.3,0.5,0.9,1,1.4
		C193.9,283.5,194.6,283.3,194.9,283z"/>
</g>
<path fill="none" stroke="#000000" stroke-width="5" stroke-miterlimit="10" d="M324.9,264.3c0,33.8-27.2,61.2-60.9,61.2H67.9
	C34.3,325.5,7,298.1,7,264.3V67.2C7,33.4,34.3,6.1,67.9,6.1h196.1c33.6,0,60.9,27.4,60.9,61.2V264.3z"/>
</svg>
