<?xml version="1.0" encoding="utf-8"?>
<!-- Generator: Adobe Illustrator 24.2.0, SVG Export Plug-In . SVG Version: 6.00 Build 0)  -->
<svg version="1.1" id="Layer_1" xmlns="http://www.w3.org/2000/svg" xmlns:xlink="http://www.w3.org/1999/xlink" x="0px" y="0px"
	 viewBox="0 0 332 331.6" enable-background="new 0 0 332 331.6" xml:space="preserve">
<g>
	<path fill="none" d="M108.2,34.8c-0.1,1.5,1,2.4,1.5,3.4C109.5,37,109.9,35.6,108.2,34.8z"/>
	<path fill="none" d="M225,35.9c-0.7-7,0.2-13.5,4.6-19.2c-0.1-0.1-0.2-0.1-0.3-0.2c-0.8,1-1.7,2-2.4,3.1c-1.7,2.4-3.4,4.8-3.6,7.9
		c-0.1,2.8,0,5.7,0,8.6C223.9,36,224.4,35.9,225,35.9z"/>
	<path fill="none" d="M179.2,250.2c-1,1.1-2,2.1-3.1,3.3c2.4-0.4,4.6-0.8,6.8-1.1c0-0.1,0-0.2,0-0.2
		C181.6,251.5,180.4,250.9,179.2,250.2z"/>
	<path fill="none" d="M171.7,254.2c1.5-1.2,3-2.5,4.6-3.8C175.3,250.2,173.5,251.8,171.7,254.2z"/>
	<path d="M265.5,269.1c-2-2.9-4-5.9-6.1-8.7c-6.5-8.5-14.1-15.9-23-21.9c-0.2-0.2-0.5-0.4-0.7-0.5c0.1-0.1,0.1-0.2,0.1-0.2
		c2-1.6,4-3.3,6-4.8c0.2-0.1,0.7,0,1,0.2c2.2,1.4,4.5,2.8,6.7,4.1c8.9,5.5,17.4,11.5,25.3,18.3c1.4,1.2,2.8,2.3,4.4,3.7
		c0-2,0.5-3.5-0.9-5.1c-3.8-4-7.9-7.6-12.4-10.9c-6.6-4.9-13.7-9.1-20.9-13.1c-0.2-0.1-0.4-0.3-0.6-0.4c1.3-4,0.8-7.8,0-11.8
		c1.8,0.4,3.5,0.8,5.2,1.2c0.8,0.2,1.6,0.3,2.3-0.4c-0.9-1.4-1.8-2.8-2.7-4.2c-0.1-0.2-0.3-0.3-0.5-0.4c-3-1.5-6-3-9-4.4
		c-0.6-0.3-1.4-0.2-2.1-0.2c-0.1,0-0.4,0.3-0.4,0.5c-0.2,1.6,0.1,3.1,0.6,4.6c0.8,2.2,1.6,4.5,1,6.9c-0.4,1.6-0.9,3.1-1.2,4.5
		c-3.2-1-6.6-2.1-10-3.2c-0.1,0.2-0.2,0.3-0.2,0.5c3,2,6,3.9,9.3,6c-2,1.9-3.9,3.7-5.9,5.5c-4.2-2.6-8.3-5.5-13.6-4
		c4.3,0.9,7.7,3.4,11,6c-0.9,1.4-1.6,1.8-2.8,0.8c-0.4-0.4-1-0.6-1.4-0.8c-0.1,0.1-0.1,0.2-0.2,0.3c0.5,0.6,1,1.3,1.6,2
		c-0.2,0.1-0.3,0.3-0.5,0.3c-2.8,1.5-5.6,3-8.4,4.4c-7.9,3.9-16.2,6.3-25.2,5.8c-4.1-0.2-7.9-1.6-11.7-2.7c-0.8-0.2-1.1-0.7-1-1.5
		c0-0.6,0-1.2-0.3-1.7c-1.2-1.7-1.4-3.7-1.3-5.6c0-1,0-2,0-3c-1.3,0.3-2.2,1.4-2.2,2.6c0,0.3-0.2,0.7-0.3,1
		c-0.3,0.7-0.8,1.4-0.9,2.1c-0.3,1.2-0.3,2.4-0.5,3.6c-0.1,0.3-0.3,0.8-0.6,0.9c-2.7,1.2-5.3,2.6-8.1,3.4
		c-7.8,2.2-15.8,1.9-23.7,1.1c-1.4-0.1-2.7-0.6-4.2-0.9c0.3-0.3,0.3-0.4,0.4-0.5c3.1-2.6,6.3-5.3,9.9-7.2c0.7-0.3,1.4-0.8,1.3-1.7
		c-0.1-0.6-1.3-1.2-2.2-1.2c-0.2,0-0.4,0-0.6,0.1c-1.4,0.6-2.8,1-4,1.8c-2.9,2.1-5.7,4.4-8.6,6.6c-0.3,0.2-0.7,0.5-0.9,0.4
		c-1.9-0.7-3.8-1.5-5.9-2.4c2.6-2.2,5-4.2,8.2-5c0.5-0.1,1.1-0.3,1.5-0.6c0.3-0.3,0.7-0.9,0.6-1.3c-0.1-0.4-0.6-0.8-1-1
		c-0.4-0.2-1-0.1-1.4,0c-2.4,0.3-4.6,1.1-6.5,2.5c-1.2,0.8-2.2,1.7-3.4,2.6c-1.3,1-1.6,1-2.9-0.4c2.2-1.2,4.3-2.4,6.5-3.5
		c2.9-1.5,5.8-2.6,9.1-2.8c0.3,0,0.6-0.1,0.9-0.2c1.3-0.6,1.6-2,0.4-2.9c-0.7-0.4-1.5-0.7-2.3-0.8c-3.4-0.4-6.5,0.6-9.5,2
		c-3,1.4-6,3-9.1,4.5c-2.4-3-3.9-6.5-5.3-10.5c2.3,0,4.3,0.1,6.3,0c1.5-0.1,3-0.3,4.5-0.5c0.7-0.1,1.5-0.4,1.5-1.3
		c0-0.9-0.8-1.1-1.5-1.3c-0.1,0-0.3,0-0.4,0c-3.3-0.2-6.6-0.4-9.9-0.6c-0.4,0-0.8,0-1.5,0c0.4-3.9,0.7-7.7,1.2-11.4
		c0.1-0.9-0.2-1-0.8-1.2c-0.8-0.3-1.6-0.4-2.3-0.9c-0.5-0.3-0.8-0.3-1.3-0.1c-3.1,1.4-6.2,2.8-9.2,4.2c-0.9,0.4-1.9,0.8-3,1.2
		c0.7,1.5,1.3,3,2,4.3c0.1,0.3,0.6,0.5,1,0.5c1.5,0,3,0,4.5-0.1c0.5,0,1-0.2,1.5-0.2c-0.1,1.1-0.2,2-0.2,2.9c0,0.7-0.3,0.9-1,1
		c-2.7,0.3-5.5,0.6-8.2,1.1c-6.7,1.1-13.5,2.2-20.2,3.4c-8.6,1.6-17.3,3.3-25.9,4.9c-0.8,0.1-1.5,0.4-2.3,0.6c0,0.1,0,0.2,0,0.3
		c1.6,0.3,3.1,0.9,4.7,0.5c1.9-0.4,3.8-0.8,5.7-1c6.2-0.7,12.4-1.1,18.6-1.9c7-0.9,13.9-2,20.9-3c2.5-0.4,5-0.7,7.6-1
		c0.1,0.5,0.1,0.8,0.2,1.1c0.3,0.8,0.5,1.8,1.1,2.4c0.8,0.7,1.3,1.6,1.8,2.5c0.4,0.8,0.9,1.6,1.5,2.4c1.2,1.5,2.6,3,3.9,4.6
		c-0.1,0.1-0.4,0.3-0.6,0.5c-8.3,5.4-15.6,12-22.4,19c-8.6,8.7-16.9,17.7-25.3,26.7c-2.1,2.2-4.4,4.3-5.8,7.1
		c-0.5,0.9-0.3,1.5,0.4,2.2c0.3-0.3,0.6-0.5,0.8-0.7c8.8-7.5,17.1-15.5,25.3-23.6c6.5-6.5,13-13,20.1-18.9c3.4-2.8,7.1-5.4,10.7-8
		c0.3-0.2,0.9-0.3,1.1-0.1c0.7,0.4,1.3,1,2,1.5c-1.5,1.8-3.1,3.5-4.6,5.3c1.9,1.1,1.9,1.1,3.4-0.1c1.2-1,2.4-2,3.7-2.9
		c0.3-0.2,0.8-0.3,1.1-0.2c2,0.9,3.9,1.9,5.9,2.9c-6.7,7.3-12.1,15.5-14.7,25.3c0.3,0,0.4-0.1,0.6-0.3c1.5-1.9,3.1-3.7,4.4-5.6
		c4.1-5.9,8-12,13.1-17.2c0.8-0.8,1.5-1,2.4-0.4c0.1,1.5,0.1,3,0.3,4.4c0.3,1.9,1.5,2.7,2.9,2.4c1.5,1.2,2.7,2.3,4,3.2
		c0.6,0.5,1.3,0.4,1.9-0.1c0.6-0.5,0.4-1.1,0.1-1.8c-0.6-1.3-1.2-2.7-1.6-4.1c-0.4-1.7-0.9-2.2-2.7-2.4c-0.2,0-0.3-0.2-0.5-0.4
		c0.1-0.1,0.1-0.2,0.2-0.2c0.6,0.1,1.1,0.2,1.7,0.2c5.1,0.1,10.1,0.2,15.2,0.3c1.7,0,3.4,0.1,5,0.4c1.8,0.4,3.5,1.1,5.2-0.4
		c0.1-0.1,0.3,0,0.5-0.1c0.2-0.1,0.3-0.2,0.5-0.3c-0.1-0.1-0.2-0.3-0.4-0.4c-0.3-0.2-0.6-0.3-1-0.4c1.8-0.8,3.4-1.4,5.2-2.2
		c-1.2,1.1-2.2,2-3.1,2.9c0.1,0.1,0.1,0.1,0.2,0.2c0.2,0,0.5-0.1,0.8-0.1c-0.3,0.5-0.6,0.8-0.8,1.2c-0.1,0.3-0.1,0.8,0,0.9
		c0.2,0.2,0.7,0.2,1,0.1c0.5-0.2,0.9-0.6,1.3-0.9c0.5-0.4,0.9-0.8,1.4-1.2c-0.2,0.5-0.6,0.8-0.8,1.2c-0.1,0.3-0.2,0.8-0.1,0.9
		c0.3,0.2,0.7,0.3,1,0.2c0.6-0.2,1.2-0.6,1.8-0.9c0,0.1,0,0.2,0.1,0.3c0.7,0.1,1.4,0.3,2.1,0.2c1.6-0.2,3.2-0.8,4.8-0.8
		c2.6,0,5.1-0.3,7.5-1.4c1.1-0.5,2.1-0.6,3.2-0.5c5.9,0.4,11.7,0.4,17.4-1.3c7.2-2.2,14-5.5,20.5-9.3c0.3-0.2,1-0.4,1.1-0.2
		c2.4,2.5,5.5,4.3,7.4,7.2c0.2,0.2,0.4,0.4,0.6,0.6c0.1-0.1,0.2-0.2,0.3-0.3c-2.3-3-4.6-6-6.9-9c0.6-0.4,1.3-0.9,2.2-1.5
		c3.2,2.6,6.5,5.2,9.7,7.9c6.9,6,12.8,13,18.9,19.9c1,1.1,2.2,2,3.4,3.1C265.1,270.2,266.1,270,265.5,269.1z M171.7,254.2
		c1.8-2.4,3.6-4,4.6-3.8C174.6,251.7,173.1,253,171.7,254.2z M176,253.5c1.1-1.2,2.1-2.2,3.1-3.3c1.2,0.7,2.4,1.3,3.6,2
		c0,0.1,0,0.2,0,0.2C180.6,252.8,178.4,253.1,176,253.5z"/>
	<path d="M96.1,15.5c2.8,3,5.3,6.3,6.1,10.4c0.6,2.9,0.5,5.9,0.6,8.9c0,0.8-0.2,1.6-0.3,2.2c-0.8,0-1.3,0-1.9,0
		c0.1,0.8,0,1.6,0.3,2.2c0.9,1.9,1.5,3.9,1.5,6.1c0,0.3,0,0.7,0.2,0.9c0.3,0.4,0.7,1,1,1c0.4,0,1-0.5,1.1-0.9
		c0.6-2.2,0.7-4.4-0.5-6.4c-0.1-0.2-0.2-0.5-0.4-0.9c0.4,0,0.6,0.1,0.8,0c1-0.3,1.5,0.1,1.9,1c0.6,1.5,1.2,3,1.9,4.4
		c0.3,0.5,0.9,0.9,1.3,1.3c0.4-0.4,0.9-0.8,1.2-1.3c0.2-0.3,0.2-0.7,0.2-1.1c-0.1-1-0.3-2-0.5-3.1c1.9-0.5,1.4-2.5,2-3.8
		c0.1,0,0.2-0.1,0.3-0.1c8.7,0.2,17.4-0.9,26-1.8c9.6-1,19.2-2,28.9-2.1c5.9-0.1,11.8-0.4,17.7,0c7.8,0.6,15.6,1.8,23.4,2.8
		c1.6,0.2,3.1,0.6,4.9,0.9c-0.5,0.5-1,0.8-1.2,1.1c-0.3,0.5-0.6,1.2-0.4,1.7c0.2,0.5,0.9,0.8,1.4,1c0.5,0.1,1.1-0.1,1.6-0.3
		c0.9-0.5,1.7-1.1,2.5-1.6c0.2-0.2,0.6-0.2,0.9-0.3c-0.1,0.4-0.3,0.5-0.3,0.7c-0.1,0.6-0.5,1.4-0.3,1.9c0.2,0.4,1,0.8,1.6,0.8
		c0.6,0,1.3-0.3,1.8-0.6c1.1-0.6,2.2-1.3,3.3-2c0.4,0.6,0.3,1.1-0.3,1.6c-0.8,0.6-1.5,1.4-2.1,2.2c-0.5,0.6-0.6,1.4,0.1,2.1
		c0.7,0.6,1.5,0.5,2.2,0c0.5-0.4,1-1,1.6-1.3c0.4-0.2,1-0.3,1.4-0.1c0.5,0.2,0.9,0.7,1.5,1c-0.6,0.5-1.2,0.9-1.6,1.4
		c-0.2,0.3-0.4,0.9-0.3,1.1c0.2,0.3,0.7,0.3,1.1,0.4c0.1,0,0.3-0.1,0.5-0.1c1.1-0.6,2.3-1.1,3.4-1.8c0.4-0.3,0.6-1,0.8-1.6
		c-0.4-0.2-0.7-0.3-1.1-0.5c-0.1-0.1-0.3-0.1-0.4-0.2c-0.7-0.8-1.4-1.6-2.1-2.3c0.9-0.9,1.8-2,2.9-3.1c-1.1,0-2.3,0-3.4,0
		c-0.4-1.6-0.4-8.2,0-10.2c1.4-5.7,4.1-10.9,7.1-15.9c0.2-0.4,0.7-0.8,0.6-1c-0.2-0.9,0.4-1.4,0.9-1.8c1-0.7,2-1.4,3-2.1
		c0.1,0,0.1-0.1,0.2-0.2h-2.1c-0.3,0.1-0.5,0.2-0.8,0.3c-5.2,1.1-9.3,4-12.9,7.7c-4.9,5-8.2,10.7-7.1,18.1c0.2,1.3-1.4,2.5-2.7,2.2
		c-1.3-0.4-2.6-0.7-3.9-1.1c-10.3-3-20.8-5.1-31.6-5.3c-5.9-0.1-11.8-0.4-17.6-0.1c-8.1,0.4-16.1,1.1-24.1,2
		c-7.4,0.8-14.7,1.9-22.1,2.8c-1.6,0.2-3.2,0.2-4.7-0.4c-0.8-0.4-1.7-0.6-2.7-1c0-0.2,0-0.6,0-0.9c0.6-5.5-1.4-10.2-4.6-14.4
		c-2.9-3.8-6.2-7-9.9-9.8h-8.5C89.5,9,92.9,12.1,96.1,15.5z M223.3,27.4c0.1-3.1,1.9-5.5,3.6-7.9c0.8-1.1,1.6-2,2.4-3.1
		c0.1,0.1,0.2,0.1,0.3,0.2c-4.4,5.7-5.3,12.2-4.6,19.2c-0.6,0-1,0.1-1.7,0.1C223.3,33.1,223.2,30.3,223.3,27.4z M109.8,38.2
		c-0.6-1.1-1.7-1.9-1.5-3.4C109.9,35.6,109.5,37,109.8,38.2z"/>
	<path d="M312.2,168.8c-9.8,1.4-19.5,3.1-29.2,4.9c-7.2,1.3-14.3,2.9-21.4,4.6c-7.5,1.8-14.9,4.2-22.1,6.8c-0.3,0.1-0.7,0.2-0.8,0
		c-0.6-0.7-1.1-1.5-1.5-2.2c0.8-0.4,1.4-0.5,1.7-0.9c0.6-0.8,0.3-1.7-0.5-2.2c-0.9-0.6-2-1-3-1.6c-0.3-0.2-0.8-0.4-1-0.7
		c-0.5-0.7-0.9-1.5-1.4-2.4c1.4-0.8,2.8-1.7,4.2-2.5c8-4.8,16.1-9.4,24.6-13.3c8.6-4,17.5-7.4,26.4-10.6c2.2-0.8,3.7-2.5,5.4-3.9
		c-0.2-0.1-0.4-0.1-0.5,0c-8.2,1.8-16.1,4.4-23.8,7.5c-6.7,2.7-13.4,5.6-19.7,9.1c-6.3,3.4-12.5,7.1-18.7,10.7
		c-0.6,0.4-1,0.4-1.6-0.1c-0.8-0.7-1.8-1.4-2.8-1.9c-0.9-0.5-1.8-0.2-2.2,0.5c-0.4,0.7-0.1,1.4,0.9,2c0.7,0.5,1.4,1,2.1,1.6
		c-2.6,1.7-5,3.2-7.4,4.8c-5.4,3.5-10.8,7.1-15.6,11.4c-0.5,0.5-1,1.1-1.4,1.7c-0.2,0.4-0.3,1.1-0.1,1.3c0.3,0.2,1,0.3,1.4,0.2
		c0.9-0.3,1.7-0.8,2.5-1.3c7.5-4.9,14.9-9.8,22.4-14.7c1.3-0.9,1.5-0.8,2.5,0.5c-0.2,0.1-0.4,0.1-0.5,0.2c-0.4,0.5-0.9,1-1,1.5
		c-0.1,0.8,0.5,1.2,1.3,1.4c0.4,0.1,0.9,0.1,1.3,0.2c0.8,0.1,1.5,0.3,2.2,0.4c-0.1,0.9-0.3,1.7-0.1,2.5c0.2,0.8,0.7,1.5,1.1,2.3
		c-0.4,0.2-0.7,0.3-1,0.5c-5.3,2.4-10.7,4.8-16,7.4c-2.4,1.2-4.5,2.9-6.7,4.4c-0.3,0.2-0.4,0.9-0.6,1.4c0.5,0.1,1.1,0.3,1.5,0.2
		c1.2-0.3,2.4-0.8,3.5-1.3c5.3-2.3,10.6-4.7,15.9-7c0.7-0.3,1.5-0.6,2.3-0.8c0.4,1.2,1.2,1.6,2.2,1.5c1.4,0,2.6,0.6,3.8,1.2
		c1.3,0.7,2.6,1.3,3.9,2c1-2.3,0.3-3.3-4.1-6.4c0.5-0.4,1-0.8,1.5-1c15.5-5.2,31.3-8.8,47.4-11.6c10.2-1.8,20.5-3.4,30.8-4.9
		c1.6-0.2,3.2-0.4,4.8-0.6v-4.2C320.7,167.6,316.4,168.1,312.2,168.8z"/>
	<path d="M89,121.7c-1.8,3.1-2.5,6.4-2.6,10c0.1,1.2,0.1,2.5,0.5,3.5c0.8,1.8,1.8,3.6,2.8,5.3c0.2,0.4,0.6,0.8,1,1.1
		c4,2.7,8.2,4.8,13.1,5.1c6,0.4,11.3-1,15.6-5.4c1.4-1.4,2.6-3.1,2.9-5.1c0.7-4,0.5-7.9-1.3-11.6c-2.8-5.7-7.6-8.8-13.5-10.4
		c-2.3-0.6-4.7-0.4-6.9,0.4c-2.1,0.7-4.2,1.6-6.3,2.4C91.9,117.8,90.2,119.5,89,121.7z"/>
	<path d="M225.4,121.7c-3,3.5-3.6,7.9-3.4,12.4c0.1,2.5,0.9,4.7,2.6,6.6c1.6,1.8,3.4,3.3,5.6,4.3c6.6,2.9,13,2.5,19.4-0.7
		c1.7-0.9,3.8-1.7,4.9-3.2c1.9-2.7,4.2-5.5,3.6-9.1c0-0.7,0-1.3,0-1.9c-0.2-3.5-1.3-6.7-3.2-9.6c-1.6-2.5-4.2-3.4-6.7-4.3
		c-1.9-0.7-3.8-1.7-5.9-1.9C235.1,113.1,229.7,116.5,225.4,121.7z"/>
	<path d="M38,184.6c7.6,1.1,15.3,2.2,22.9,3.6c12.9,2.4,25.7,5.5,38.2,9.6c2.4,0.8,4.7,1.6,7,2.5c0.6,0.2,1.2,0.7,0.7,1.4
		c-1,1.6-0.4,3,1.6,3.1c1.5,0.1,2.9-0.4,4-1.5c0.3,0.1,0.5,0.2,0.8,0.3c2.7,1.2,5.4,1.9,8.3,1.7c0.9-0.1,1.6-0.4,1.7-1.3
		c0.1-1-0.5-1.4-1.3-1.7c-1-0.3-2.1-0.6-3.2-1c-1.4-0.5-2.8-1.1-4.2-1.6c0.1-0.8,0.4-1.5,0.1-2c-0.6-1.4,0.4-2.2,0.9-3.2
		c2.6,1,5.2,1.9,7.8,2.8c2.3,0.8,4.6,1.7,6.9,2.6c0.8,0.3,1.6,0.3,2.1-0.5c0.5-0.9-0.2-1.4-0.9-1.8c-1.3-0.8-2.7-1.5-4.1-2.2
		c-0.5-0.3-1-0.4-1.5-0.7c-0.8-0.5-1.5-1.3-2.4-1.7c-1.7-0.9-3.5-1.7-4.9-2.3c-0.1-0.8,0.1-1.5-0.2-1.8c-0.6-0.6-1.3-0.1-1.7,0.4
		c0,0,0,0.1-0.1,0.1c-0.4,0.1-0.8,0.4-1.1,0.3c-8-2.7-16.2-5-24.6-6.5c-1.9-0.3-3.9-0.5-5.9-0.7c0,0.1-0.1,0.3-0.1,0.4
		c0.5,0.3,1,0.8,1.6,1c5.9,2.1,11.7,4.2,17.6,6.3c2.8,1,5.6,2.2,8.4,3.3c0,0.1,0.1,0.2,0.1,0.4c-0.5,0.4-0.9,0.9-1.4,1.1
		c-0.8,0.4-1.6,0.7-1.7,1.8c0,0.1-0.5,0.3-0.8,0.2c-0.7-0.2-1.2-0.6-1.9-0.8c-7.6-2.4-15-5-22.7-7c-8.5-2.2-17-4-25.6-5.6
		c-6.8-1.3-13.8-2.1-20.7-3c-4.1-0.5-8.2-0.8-12.3-1.1c-6-0.3-11.9-0.7-17.9-0.8c-0.3,0-0.7,0-1,0v3.4c1.8,0.1,3.6,0.1,5.4,0.2
		C21,182.6,29.5,183.4,38,184.6z"/>
	<path d="M158.6,206.9c0.9-1.1,2-2.1,2.6-3.3c0.5-1.1,0.5-2.5,0.8-3.8c0.4-1.8,0.9-3.6,1.3-5.4c-0.1-0.1-0.2-0.2-0.3-0.4
		c-0.7,0.4-1.5,0.6-2,1.1c-0.9,0.9-1.6,2-2.5,3c-0.2,0.2-0.4,0.5-0.7,0.5c-1.9,0.1-2.8,1.4-3.5,2.9c-1.8,4.4-2.7,8.9-2.2,13.6
		c0.1,1.5,0.4,3.1,1,4.4c2.4,5.1,6.7,8.3,11.4,10.9c0.9,0.5,2,0.7,3,1c0.3,0.1,0.6,0.2,0.8,0.4c1,0.6,2,1.5,3.1,1.7
		c2.2,0.3,4.5,0.5,6.7,0.3c1.8-0.1,3.7-0.6,5.4-1.4c2.1-1,4.1-2.4,6.1-3.7c1.8-1.2,3.5-2.7,4.2-4.8c0-0.1,0.1-0.2,0.2-0.3
		c2.3-2.5,3.8-5.4,4-8.8c0.1-1.8,0.6-3.6,0.3-5.2c-0.7-4.4-3.1-7.7-6.8-10.2c-0.9-0.6-1.7-1-1.5-2.2c0-0.2-0.2-0.4-0.3-0.6
		c-1,1-1.9,2-2.8,2.9c0.5,2.2,2,3.7,3.2,5.4c1.9,2.7,3.4,5.5,2.7,8.9c-2,1.1-4.1,2.2-6.1,3.3c-1.7,1-2.2,2.5-1.3,4.3
		c0.4,0.7,0.9,1.2,1.8,1.2c0.8,0,1.5-0.4,1.7-1.2c0.3-1.5,1.6-1.7,2.7-2.1c-1.1,1.9-2.4,3.7-4.2,5c-2.4,1.7-4.8,3.3-7.3,4.9
		c-0.5,0.3-1.2,0.5-2,0.8c-0.2-2.4-0.3-4.6-0.5-6.8c-0.2-1.9-0.4-3.8-0.7-5.7c-0.1-0.4-0.7-0.8-1.2-1c-0.1-0.1-0.8,0.5-0.8,0.8
		c-0.2,2.1-0.4,4.2-0.4,6.4c0,2,0.2,4,0.4,6.1c-5.7-1.3-11-3.6-15.8-7.7c1.1,0.2,2,0.3,2.8,0.6c0.8,0.2,1.5,0.6,2.3,0.8
		c1.2,0.3,2.2-0.1,2.6-0.9c0.4-0.8,0.2-1.6-0.7-2.6c-2.3-2.4-5.7-3-8.8-1.5c-0.1-0.4-0.2-0.7-0.2-1.1c-0.1-3.1-0.1-6.1,0.6-9.2
		C157.9,207.6,158.3,207.3,158.6,206.9z"/>
	<path d="M7,87.6c1.7,2.1,3.8,3.9,6.3,5.5c6.6,4.1,14,6.3,21.6,7.6c1.9,0.3,3.8,0.4,5.6,0.6c-0.1,0.1-0.1,0.1-0.2,0.2
		c0.4,0.4,0.6,1,1.1,1.3c1.8,1.1,3.6,2.1,5.5,3.1c1.3,0.6,2.6,1.1,3.9,1.5c0.4,0.1,1.2-0.3,1.4-0.7c0.2-0.4,0-1.2-0.3-1.5
		c-0.5-0.5-1.2-0.9-1.8-1.2c-1.6-0.9-3.1-1.8-4.8-2.7c0.5-0.3,0.8-0.4,1.1-0.6c0,0.1-0.1,0.2-0.1,0.3c2.1,0.9,4.1,1.9,6.2,2.8
		c0.9,0.3,1.9,0.4,2.8,0.5c0.8,0,1.6-0.2,1.8-1.1c0.2-0.9-0.6-1.2-1.3-1.5c-1.8-0.8-3.5-1.5-5.3-2.3c-1.2-0.5-2.4-0.8-3.7-0.2
		c-0.8-1.7-2.4-2-4-2.3c-3.3-0.6-6.6-1-9.9-1.7c-5.6-1.2-11-3-16-5.8c-4.3-2.5-7.5-6.1-9.4-10.8c1.6,1.8,3.2,3.7,4.8,5.5
		c3.1,3.4,6.7,6.3,11.2,7.7c0.8,0.3,1.9,0.6,2.3-0.4c0.5-1-0.5-1.5-1.3-1.9c-2.9-1.7-5.6-3.7-7.8-6.2c-1.8-2-3.6-4.1-5.3-6.2
		C10.2,74.9,8.6,73,7,71.1V87.6z"/>
	<path d="M312.9,205.7c-11.8-3.6-23.9-5.2-36.2-5.5c-8.3-0.2-16.7,0.2-25,0.5c-6.5,0.2-13.1,0.9-19.5,2.1c-1,0.2-2,0.3-2.9,0.6
		c-0.3,0.1-0.8,0.6-0.7,0.8c0.1,0.3,0.5,0.7,0.8,0.9c0.2,0.2,0.6,0.1,0.9,0.1c2,0.1,4.1,0.2,6.1,0.1c1.3,0,2.6-0.3,3.6,0.5
		c0.6-0.4,0.9-0.7,1.2-0.8c1.6-0.2,3.2-0.4,4.7-0.4c9.4-0.2,18.8-0.6,28.1-0.6c10-0.1,20,1,29.8,3c7.4,1.5,14.5,3.8,21.2,7.4v-3.7
		C321.2,208.6,317.1,207,312.9,205.7z"/>
	<path d="M324.1,60.8c-1.3,2.1-3.2,3.6-4.9,5.3c-5.6,5.5-11.8,10.3-18.6,14.2c-4.6,2.6-9.4,4.9-14.8,5.2c-0.8,0-1.5,0.1-2.3,0.3
		c-1.4,0.3-2.2,0.9-2.3,1.7c-0.1,0.9,0.7,1.6,2.2,2c0.3,0.1,0.7,0.2,0.9,0.4c0.8,1,1.6,2,2.3,3c0.2,0.2,0.3,0.5,0.3,0.8
		c0,1.6,0,3.2-1.8,4c-0.1,0.1-0.2,0.2-0.3,0.3c-0.5,0.5-0.9,1.3-0.3,1.8c0.4,0.4,1.3,0.7,1.9,0.7c0.7-0.1,1.5-0.5,2.1-1
		c1.7-1.2,3.3-2.6,5-3.6c3.2-2,6.6-3.7,9.9-5.6c1-0.6,2-1.3,3-2c-0.1-0.1-0.1-0.3-0.2-0.4c-5.6-0.6-10.2,2.2-14.8,4.8
		c-0.6-0.9-1.2-1.9-1.7-2.8c1.6-0.4,3.2-0.8,4.8-1.3c6.6-2.2,12.5-5.8,18.1-9.9c4.9-3.6,9.1-7.9,12.2-13.1c0-1.8-0.2-3.5-0.3-5.2
		C324.3,60.5,324.2,60.7,324.1,60.8z"/>
	<path d="M70.7,170.1c-0.1,0.1-0.1,0.2-0.2,0.3c1,0.7,1.9,1.6,3,2c1.5,0.6,3.2,1,4.8,1.3c1.5,0.3,3,0.8,4.4,1.2
		c14.8,3.9,29.6,8.1,43.9,13.9c2.1,0.9,4.3,1.8,6.4,2.6c0.5,0.2,1.4,0,1.6-0.3c0.3-0.3,0.1-1.2-0.2-1.6c-1-1.6-2.5-2.7-4.2-3.5
		c-2.5-1.2-5-2.3-7.6-3.4c1.7-0.9,1.8-1.4,0.5-2.5c1.9-0.7,3.7-1.4,5.4-2.2c0.3-0.2,0.8-0.8,0.7-1.1c-0.2-0.4-0.7-0.8-1.1-0.8
		c-2.1-0.1-4.1,0-6.1,0.7c-1.4,0.5-2.7,0.9-2.8,2.4c-1,0.3-2,0.3-2.7,0.7c-0.5,0.3-0.7,0.4-1.2,0.2c-3.3-1.1-6.6-2.2-10-3.1
		c-8.5-2.4-17.1-4.1-25.7-5.6C76.8,170.8,73.7,170.5,70.7,170.1z"/>
	<path d="M230.3,300.4c-0.9-4.6-2-9.2-4.1-13.5c-0.2-0.4-0.7-0.7-1-1.1c-0.1,0.5-0.2,1-0.1,1.4c0.3,1.8,0.7,3.6,1,5.4
		c1.9,8.7,2.7,17.6,2.9,26.5c0.1,2.1,0.1,4.3,0.1,6.4h3.5C232.5,317.1,231.9,308.7,230.3,300.4z"/>
	<path d="M68.9,89.6c0.8,0.5,1.6,0.1,2.5-1.2c1.2-1.7,2.5-3.4,3.9-5.2c0.2,0.7,0.2,1.1,0.4,1.5c0.1,0.3,0.3,0.7,0.6,0.9
		c0.9,0.7,2.3,0.2,2.5-1c0.3-1.5,0.4-3.1,0.4-4.6c-0.1-2.3,1.9-3.2,2.9-4.7c0.1,0.6,0,1.2,0.1,1.7c0.1,0.4,0.3,1,0.6,1.1
		c0.4,0.1,1-0.1,1.4-0.4c0.3-0.2,0.5-0.8,0.6-1.2c0.3-1.8,0.5-3.6,0.8-5.4c0.1-0.3,0.2-0.7,0.3-1c0.1,0,0.2,0.1,0.3,0.1
		c0,0.2,0,0.3-0.1,0.5c-0.1,0.7,0,1.3,0.7,1.3c0.5,0,1.3-0.3,1.4-0.6c0.5-1.2,0.9-2.4,1.2-3.7c0.5-2.3,1.2-4.6,0.8-7
		c-0.1-0.7-0.2-1.4-1.1-1.5c-0.9,0-1.1,0.7-1.3,1.4c-0.4,1.7-0.7,3.4-1,5.2c-0.1,0.8-0.4,1.3-1.2,1.6c-0.3-1.1-0.5-2.2-0.8-3.3
		c-0.1-0.3-0.6-0.5-0.9-0.6c-0.2,0-0.6,0.3-0.6,0.5c-0.2,1.4-0.7,2.9-0.6,4.3c0.3,2.9-1.8,4-3.4,5.5c-0.2-2.7-0.4-5.2-0.6-7.8
		c-0.1-1.4-0.6-2.7-1.8-3.8C76.6,63,76,64,75.9,65c-0.3,3.2-0.4,6.5-0.7,9.7c0,0.4,0,0.8-0.1,1.1c-0.9,1.7-1.9,3.3-2.9,5
		c-0.2,0.3-0.3,0.7-0.4,1c-0.1,0.3-0.2,0.7-0.3,1c-0.9,1.3-1.9,2.6-2.7,4C68,88.1,68.1,89.1,68.9,89.6z"/>
	<path d="M310.6,119.8c0.3,0.3,0.6,0.5,1,0.5c2.5-0.1,5.1-0.2,7.6-0.3c1.9-0.1,3.8-0.4,5.8-0.6v-1.9
		C320.3,118.3,315.4,119,310.6,119.8z"/>
	<path d="M305.8,112.6c-0.4,0.2-0.8,1-0.8,1.6c0,0.7,0.7,1.1,1.4,1c0.8,0,1.5-0.1,2.3-0.2c0.5,0,1-0.2,1.5-0.1
		c2.3,0.4,4.7,0.9,7,1.3c2.6,0.4,5.3,0.8,7.7,1.1v-2.6c-1-0.2-2.1-0.4-3.1-0.6c-1.6-0.3-3.2-0.5-4.8-0.7c0.4-0.3,0.7-0.4,1.1-0.5
		c2-0.6,4-1.2,6-1.9c0.3-0.1,0.6-0.2,0.9-0.3v-0.9c-0.3-0.1-0.6-0.1-0.9-0.2c-1-0.1-2-0.3-3.1-0.3c-1.5,0-2.9,0.2-4.3-0.6
		c-0.8-0.4-1.8-0.7-2.7-0.8c-4.2-0.2-8.5-0.3-12.7-0.4c-0.4,0-0.8,0-1.1,0.2c-0.5,0.4-1.2,0.9-1.2,1.4c0,0.5,0.6,1.1,1.2,1.5
		c0.3,0.3,0.9,0.3,1.4,0.3c2.6,0,5.2,0,7.8,0c0.3,0,0.7,0,1,0c-0.3,0.2-0.7,0.3-1,0.4C308.2,111.8,306.9,112.1,305.8,112.6z"/>
	<path d="M127.5,325.2c0.3-0.8,0.7-1.6,1-2.4c1.1-2.8,2.3-5.5,3.2-8.4c0.8-2.6,1.3-5.3,2-8.2c0,4.7-0.9,9.1-1.7,13.5
		c-0.1,0.8-0.3,1.5,0.5,1.9c0.8,0.4,1.4,0,1.7-0.7c0.7-1.3,1.4-2.6,2-4c1.6-3.5,2.1-7.1,2-10.9c0-1.6-0.1-3.2-0.4-4.7
		c-0.4-2.2-1.9-2.7-3.7-1.4c-0.1-2.6-0.2-5.1-0.4-7.8c-0.2,0.3-0.3,0.3-0.3,0.4c-0.9,5.3-3,10.4-3.6,15.8c-0.5,4.2-1.7,8.2-2.4,12.4
		c-0.3,1.6-0.4,3.3-1.1,4.8h1.1C127.4,325.4,127.5,325.3,127.5,325.2z"/>
	<path d="M185.3,267.2c-0.4,0.3-0.8,0.8-1.1,1.2c-1,1.3-2,2.6-2.9,4c-0.2,0.3-0.4,0.6-0.4,0.9c0,0.5-0.1,1.1,0.2,1.4
		c0.3,0.3,0.9,0.5,1.4,0.4c1.3-0.2,2.6-0.6,3.9-1c6.7-1.8,12.5-5.1,18-9.3c0.8-0.7,1.4-1.6,2.1-2.5c0.6-0.7,1.1-1.4,1.7-2.1
		c0.9,0.7,1.7,1.2,2.6,0.7c1.4-0.8,0.5-2.1,0.3-3c0.7,0.2,1.4,0.4,2.1,0.4c1,0,1.6-0.8,1.4-1.8c-0.2-1-1.3-2-2.3-2.1
		c-1.1-0.1-1.8,0.4-2.2,1.5c-0.1-0.1-0.2-0.2-0.3-0.3c-1-1-1.8-1.3-2.6-0.7c-0.7,0.5-0.8,1.5-0.3,2.6c0.2,0.5,0.4,0.9,0.7,1.5
		c-0.8,0.6-1.5,1.2-2.3,1.7c-1.7,0.9-3.4,1.7-5,2.6c-1.6,0.9-3.1,1.8-4.4,2.6c-0.8-0.4-1.2-0.8-1.8-0.9c-0.8-0.1-0.8,0.7-1,1.2
		c-0.3,0.7-0.8,1.3-1.2,1.9c-0.1-0.1-0.2-0.1-0.3-0.2c0.1-0.5,0.3-1,0.3-1.5c0-0.3-0.3-0.7-0.5-1c-0.1-0.1-0.6,0.1-0.8,0.3
		c-0.6,0.9-1.2,1.8-1.6,2.8c-0.5,1-1.1,1.5-2.2,1.7c0.2-0.8,0.4-1.5,0.4-2.2C186.9,266.9,186.1,266.6,185.3,267.2z"/>
	<path d="M306.4,306.1c-0.7-6.9-2.1-13.6-4.7-20.1c-0.7-1.8-1.6-3.5-2.4-5.3c-0.2-0.4-0.7-0.8-1-0.8c-0.3,0-0.7,0.6-0.8,1
		c-0.2,0.4-0.2,1-0.1,1.4c0.2,0.9,0.4,1.8,0.7,2.7c1.2,4.7,2.7,9.4,3.7,14.2c0.8,3.9,1.2,7.9,1.6,11.9c1.2-1,2.3-2,3.4-3.1
		C306.5,307.5,306.4,306.8,306.4,306.1z"/>
	<path d="M252.7,64.5c-0.8,0.2-1.2,0.3-1.8-0.3c-0.8-0.7-1.9-0.6-2.5,0.2c-0.6,0.7-0.5,1.7,0.4,2.4c0.8,0.6,1.6,1.1,2.5,1.5
		c1.5,0.6,3.1,1,4.8,0.9c0.2,0,0.5,0.1,0.8,0.3c0.6,0.3,1.3,0.7,1.9,1.1c2.4,1.2,4.8,2.5,7.7,2.5c0.3,0,0.7,0.2,1.2,0.4
		c-0.3,0.2-0.4,0.3-0.5,0.4c-2.6,1.7-4.4,4-5.8,6.6c-0.3,0.7-0.6,1.4-0.7,2.1c-0.1,1.1,0.4,1.9,1.3,2.2c1,0.3,1.8-0.2,2.4-1.2
		c1.6-2.8,3.6-5.1,6.2-7c0.5-0.3,1-0.8,1.4-0.8c1.2,0,1.7-1,2.5-1.6c0.2-0.2,0.2-1.1-0.1-1.3c-0.4-0.4-1.1-0.8-1.6-0.7
		c-1.3,0.1-2.7,0.4-3.9,0.8c-1,0.3-1.6,0.2-2.1-0.6c-0.3-0.5-0.7-1.1-1.2-1.4c-3.4-2.1-6.8-4.2-10.2-6.1
		C254.6,64.3,253.5,64.3,252.7,64.5z"/>
	<path d="M129.3,299.2c-0.1,0-0.2-0.1-0.3-0.1c-0.2,0.2-0.4,0.4-0.5,0.7c-0.4,1-0.8,2-1.2,3.1c-2.8,6.9-5.6,13.7-9.4,20.1
		c-0.5,0.9-1,1.7-1.6,2.6h3.4c1.7-2.9,3.3-5.8,4.7-8.9c1.8-4.1,3.2-8.3,4.7-12.6C129.8,302.5,129.8,300.8,129.3,299.2z"/>
	<path d="M19.3,278.2c4.4-4.9,8.6-10,13.4-14.5c0.3-0.3,0.5-1,0.3-1.3c-0.3-0.6-1-0.5-1.5-0.1c-2.1,1.5-4.2,2.9-6.2,4.5
		c-5.8,4.7-10.8,10.3-15.3,16.2c0.5,1.5,1,3,1.6,4.5C14.1,284.3,16.6,281.1,19.3,278.2z"/>
	<path d="M24.8,259.7c3.9-3.2,7.9-6.4,11.7-9.7c1.4-1.2,2.7-2.6,4.1-3.9c-0.1-0.1-0.1-0.1-0.2-0.2c-0.1,0-0.2,0.1-0.4,0.1
		C34.3,248.6,29,252,24,256c-5,4-9.5,8.4-13.7,13.2c-0.6,0.6-1.1,1.4-1.3,2.2c-0.1,0.5,0.2,1.3,0.6,1.7c0.5,0.5,1,0.1,1.5-0.2
		c2.2-1.6,3.8-3.8,6.1-5.3c2.3-1.5,4.1-3.6,6.1-5.4c0.2-0.2,0.6-0.6,0.6-0.8C23.7,260.4,24.3,260.1,24.8,259.7z"/>
	<path d="M34.7,120c0.2-1-0.4-2.1-1.6-2.5c-1-0.3-2-0.6-3-0.7c-6.2-0.7-12.2-1.8-18.3-3.3c-1.6-0.4-3.2-0.6-4.8-0.7v2.5
		c1.4,0.6,2.7,1.2,4.1,1.8c6.8,2.7,13.8,4.1,21.1,4.4C33.5,121.6,34.5,121,34.7,120z"/>
	<path d="M307.9,94c0.4-0.2,0.5-0.8,0.7-1.2c-0.5-0.2-1-0.5-1.5-0.5c-0.9,0.1-1.8,0.3-2.6,0.6c-3.9,1.8-7.8,3.6-11.6,5.4
		c-0.7,0.3-1.5,0.7-2.1,1.2c-0.4,0.3-0.8,1.1-0.6,1.5c0.1,0.5,0.8,1,1.3,1.1c0.5,0.2,1.2,0,1.7-0.2c1-0.3,2-0.8,3-1.2
		c0,1.3,0.8,1.9,1.9,2.1c1.1,0.1,2.3,0.3,3.3,0.1c3.4-1,6.8-2.1,10.1-3.2c0.5-0.2,1.1-0.2,1.6-0.4c0.4-0.2,0.8-0.6,1.1-0.8
		c-0.3-0.3-0.6-1-0.9-1c-1.3-0.1-2.7-0.3-4-0.1c-2.3,0.3-4.7,0.9-7,1.4c-0.9,0.2-1.8,0.3-2.7,0.5c0.8-0.7,1.7-1.1,2.6-1.6
		C304.1,96.4,306,95.2,307.9,94z"/>
	<path d="M307.1,245c-0.9-0.5-1.9-0.6-2.9-1c0,0.1,0,0.1-0.1,0.2c-0.1,0-0.3,0-0.4,0c-0.5,0.2-1,0.4-1.4,0.5c0.3,0.4,0.6,0.8,1,1
		c3,2.3,6.2,4.3,9.1,6.9c4.1,3.6,6.7,8.4,8.8,13.3c0.7,1.7,1.4,3.4,2.8,4.6c0.2,0.2,0.4,0.7,0.4,1c0,0.2,0,0.3,0,0.5
		c0.3-2.2,0.4-4.4,0.5-6.6C321.6,256.5,315.8,249.5,307.1,245z"/>
	<path d="M324.3,253c0.1-0.2-0.1-0.7-0.2-1c-0.2-0.5-0.4-0.9-0.6-1.4c0.3,0,0.4,0.2,0.5,0.3c0.3,0.3,0.6,0.5,0.9,0.5v-3.2
		c0,0,0-0.1,0-0.1c0,0,0,0,0,0v-4.5c-1-0.9-2-1.7-3-2.5c-0.4-0.3-1.2-0.5-1.7-0.4c-0.6,0.1-1.4,0.5-1.6,1c-0.2,0.5,0.1,1.3,0.4,1.9
		c0.2,0.5,0.8,0.8,1.2,1.1c0.9,0.8,1.8,1.5,2.8,2.3c-0.5,0.3-0.9,0.5-1.2,0.7c-0.6-0.4-1.1-0.7-1.7-0.9c-0.3-0.1-0.9-0.1-1.1,0.1
		c-0.2,0.2-0.1,0.8,0,1.1c0.2,0.6,0.6,1.1,1,1.8c-0.4-0.2-0.6-0.3-0.8-0.3c-0.5,0-1.1,0.1-1.6,0.2c0.1,0.5,0,1.2,0.3,1.6
		c2.5,3,4.2,6.5,7.2,9.1v-5.2c-0.1-0.1-0.2-0.3-0.3-0.4C324.3,254.2,323.7,253.8,324.3,253z"/>
	<path d="M86.8,288.8c-0.7-0.5-1.2,0-1.6,0.6c-0.6,0.9-1.1,1.8-1.7,2.6c-3.5,4.2-5.7,9-7.5,14.1c-1.3,3.7-2.7,7.5-2.8,11.5
		c0.1,0.7,0.1,1.4,0.2,2.1c0.2,0.8,0.5,1.6,1.5,1.6c1,0.1,1.3-0.7,1.6-1.5c0.1-0.2,0.1-0.5,0.1-0.7c0.2-1.6,0.3-3.3,0.7-4.9
		c2.2-8.3,5.3-16.2,9.6-23.7C87.3,289.9,87.5,289.3,86.8,288.8z"/>
	<path d="M29,133.5c0,0,0.1-0.1,0.1-0.2c-6.3-2.9-12.4-6.2-18.1-9.9c3.4,0.2,6.8,0.4,10.3,0.6c0.6,0,1.3,0,1.8-0.2
		c0.4-0.1,0.9-0.6,0.9-0.9c0-0.3-0.4-0.9-0.7-1.1c-0.9-0.3-1.8-0.6-2.7-0.7c-4.5-0.6-9,0-13.6,0.2v1.4c0.4,0,0.7,0.1,0.9,0.2
		c0.9,0.7,1.6,1.8,2.3,2.7c-0.8,0.1-1.6,0.2-2.4,0.4c-0.3,0.1-0.5,0.4-0.8,0.7c0.2,0.3,0.5,0.6,0.7,0.7c0.4,0.2,0.9,0.3,1.4,0.4
		c2.7,0.5,5.4,0.9,7.8,2.5c1.9,1.3,4.1,2.3,6.5,2.5C25.3,132.9,27.2,132.9,29,133.5z"/>
	<path d="M140.6,304.6c-0.1,0.3-0.1,0.7-0.2,1c-0.2,1.1-0.3,2.3-0.6,3.4c-1.1,3.9-2.2,7.9-3.4,11.8c-0.4,1.4-0.3,2.7,0.1,4.2
		c1.4-0.7,2.5-1.6,3.2-2.9c1.6-3.2,2.8-6.5,3.7-9.9c0.6-2.4,1-4.9,0.5-7.5c-0.2-0.9-0.6-1.7-1.6-1.7
		C141.2,302.9,140.8,303.8,140.6,304.6z"/>
	<path d="M100.6,37C100.6,37,100.6,37,100.6,37C100.6,37,100.6,37,100.6,37C100.6,37,100.6,37,100.6,37C100.6,37,100.6,37,100.6,37
		C100.6,37,100.6,37,100.6,37z"/>
	<path d="M98.8,26.8c-1.9-5.2-5.6-9.2-9.1-13.3c-0.2-0.2-0.7-0.2-1-0.2c0.1,0.3,0.1,0.7,0.2,0.9c0.9,1.1,1.5,2.3,1.9,3.7
		c0.2,0.9,0.6,1.7,1,2.6c1.8,4.7,3.7,9.5,5.6,14.2c0.2,0.6,0.5,1.2,0.8,1.8c0.7,1.2,1.4,1.4,2.5,0.5c0.1-0.7,0.2-1.4,0.2-2
		C100.8,32.1,99.7,29.5,98.8,26.8z"/>
	<path d="M300,74.6c-5.9,3-11.9,5.8-18.7,6c-0.6,0-1.1,0.3-1.9,0.5c0.7,0.9,1.5,1.1,2.3,1.3c2.7,0.4,5.3,0.3,7.9-0.5
		c7.8-2.4,14.6-6.6,20.5-12.2c0.2-0.2,0.2-0.5,0.3-0.8c-0.3,0-0.6,0-0.8,0.2c-1.4,0.9-2.7,2-4.1,2.8C303.7,72.9,301.8,73.7,300,74.6
		z"/>
	<path d="M165.3,273.4c0,0.1,0,0.3,0,0.4c0.3-0.3,0.9-0.5,1-0.9c0.1-0.3-0.2-0.9-0.5-1.2c-0.3-0.3-0.9-0.4-1.3-0.4
		c-5.2-0.5-10.2-1.9-14.8-4.2c-1.7-0.8-3.5-1.6-4.8-3.2c-0.2-0.3-0.8-0.4-1.1-0.3c-0.3,0.1-0.8,0.7-0.7,1c0,0.6,0.2,1.3,0.6,1.8
		c0.9,0.9,1.8,1.7,2.9,2.3C152.2,272.4,158.5,273.9,165.3,273.4z"/>
	<path d="M238.9,314.8c-0.5-3.1-1.4-6.1-2.9-8.9c-0.2-0.3-0.8-0.5-1.2-0.7c-0.1,0.4-0.3,0.9-0.2,1.3c0.3,1.3,0.9,2.6,1.1,3.9
		c0.8,5,1.6,10.1,2.2,15.1h2.6C240.1,322.8,239.6,318.8,238.9,314.8z"/>
	<path d="M316.2,281.3c-0.1,0.4-0.5,0.9-0.4,1.3c0.3,1.1,0.6,2.1,1.1,3.1c0.8,1.6,1.5,3.3,2.1,5c0.5-1,0.9-2.1,1.4-3.1
		c-0.9-1.9-1.9-3.8-3-5.6C317.1,281.6,316.6,281.5,316.2,281.3z"/>
	<path d="M93.4,63.2c0.5-0.6,0.8-1.3,1.2-1.9c0.1-0.2,0.3-0.6,0.5-0.6c1.3,0,1.9-0.9,2.3-1.9c0.7-1.9,1.4-3.9,2-5.9
		c0.2-0.8,0.2-1.7,0.1-2.4c-0.1-0.4-0.6-0.9-1.1-1c-0.3-0.1-0.9,0.2-1.1,0.5c-0.8,1.7-1.5,3.4-2.4,5.3c-0.3-0.7-0.3-1.2-0.6-1.6
		c-0.3-0.3-0.7-0.6-1.2-0.6c-0.3,0-0.7,0.3-0.8,0.6c-0.3,0.9-0.4,1.9-0.5,2.9c-0.2,1.5-0.3,3-0.4,4.5c0,0.6,0,1.3,0.2,1.8
		C92.1,63.7,92.8,63.9,93.4,63.2z"/>
	<path d="M200.2,186.2c3.8-4.2,7.5-8.4,11.3-12.6c0.9-1,1.6-2.1,2.4-3.2c-0.1-0.1-0.2-0.2-0.3-0.4c-1.6,0.9-3.3,1.7-4.8,2.8
		c-3.2,2.2-5.7,5.1-8,8.2c-1,1.3-1.8,2.7-2.5,4.1c-0.3,0.6-0.6,1.6,0.3,2C199.4,187.5,199.8,186.7,200.2,186.2z"/>
	<path d="M274.4,93.1c0.6,0.1,1.2,0.1,1.8-0.1c2.1-0.5,4-1.4,5.5-3c0.1-0.2,0.3-0.5,0.2-0.6c-0.2-0.2-0.5-0.5-0.7-0.5
		c-1.2,0-2.3,0.1-3.5,0.3c-1.3,0.2-2.6,0.6-3.9,0.9c0.9-1.1,1.9-2.2,2.8-3.4c0.1-0.2,0.2-0.4,0.3-0.6c-0.2-0.1-0.5-0.3-0.7-0.3
		c-1.5-0.1-2.9,0.3-4.1,1.1c-1.2,0.7-2.5,1.4-3.7,2.2c-0.4,0.3-0.8,0.9-0.8,1.4c0,0.5,0.6,1.2,1,1.2c0.8,0.1,1.8,0,2.6-0.2
		c0.6-0.1,1.1-0.5,1.7-0.8C272.6,92.1,273.1,92.9,274.4,93.1z"/>
	<path d="M309,290.2c0.1-0.2,0.4-0.4,0.4-0.6c-0.1-1.3-0.2-2.5-0.5-3.7c-0.4-1.5-1-3-1.5-4.5c-0.2-0.6-0.7-1.2,0.1-1.8
		c0.1-0.1,0.1-0.6,0-0.8c-0.8-1.7-1.4-3.5-2.3-5.2c-1.2-2.1-2.5-4.1-3.8-6.2c-0.8-1.3-1.7-2.7-2.6-4.3c0,0.4-0.1,0.4,0,0.5
		c3.5,8.6,6,17.6,9.8,26.1C308.6,289.9,308.9,290,309,290.2z"/>
	<path d="M40.3,112.8c0.4-1-0.6-1.3-1.2-1.9c0.6-1.7,0.3-2.8-1.4-3.4c-1.7-0.7-3.4-1.1-5.1-1.6c-0.6-0.2-1.3-0.2-1.9-0.1
		c-0.5,0.1-1.2,0.4-1.3,0.8c-0.1,0.4,0.2,1.2,0.6,1.5c0.8,0.7,1.7,1.2,2.6,1.7c0.6,0.3,1.3,0.6,1.9,0.9c-0.3,0.2-0.5,0.2-0.8,0.2
		c-0.7-0.1-1.3,0-1.5,0.8c-0.1,0.8,0.5,1.1,1.2,1.1c1.6,0.2,3.3,0.4,4.9,0.6C38.9,113.4,39.9,113.8,40.3,112.8z"/>
	<path d="M310,274.5c0.1,0.8,0.5,1.2,1.3,1.3c1.1,0.1,1.9-0.9,1.7-2.2c-0.7-4.4-2.9-8.1-5.9-11.4c-0.4-0.4-0.9-0.6-1.2-0.7
		c-1.5,0-2,1.4-1.3,2.7c1.5,2.7,3.1,5.4,4.6,8.2C309.7,273,309.9,273.8,310,274.5z"/>
	<path d="M23.7,279.3c-0.7,0.1-1.6,0.4-2.1,0.9c-1.2,1.3-2.4,2.7-3.3,4.2c-1.6,2.5-3.1,5.1-4.7,7.7c0.3,0.6,0.6,1.2,0.9,1.8
		c0.4-0.5,0.7-1.1,1.1-1.6c2.7-3.5,5.5-6.9,8.3-10.3c0.4-0.4,0.6-1,1-1.8C24.5,279.9,24.1,279.3,23.7,279.3z"/>
	<path d="M86.7,302.8c-1.8,3.2-3.5,6.5-5.1,9.8c-0.8,1.7-1,3.6-0.6,5.5c0.1,0.7,0.4,1.6,1.3,1.5c0.9,0,1.1-0.9,1.1-1.6
		c0.2-2.8,1.2-5.3,2.3-7.8c0.7-1.4,1.3-2.7,1.9-4.1c0.6-1.5,1.4-3,1-5.1C87.9,301.7,87,302.1,86.7,302.8z"/>
	<path d="M10.7,253.8c0.5-0.5,1-1.2,1.6-1.6c2.8-1.7,5.6-3.3,8.3-4.9c0.3-0.2,0.7-0.6,0.7-0.9c0-0.3-0.5-0.7-0.8-0.7
		c-0.8,0-1.7,0-2.5,0.2c-3.5,0.7-6.4,2.5-9.1,4.6c-0.6,0.4-1,1.2-1.2,1.9c-0.4,1.2,0.5,2.5,2,2.5C9.8,254.6,10.3,254.2,10.7,253.8z"
		/>
	<path d="M7,258.5v2.2c0.2,0.1,0.4,0.1,0.6,0.1c0.8,0,1.8-0.2,2.4-0.6c2.8-2.1,5.5-4.3,8.2-6.6c0.7-0.6,1-1.7,1.5-2.7
		c-1.6-0.1-2.8,0.2-3.8,0.9c-2.9,2.1-5.7,4.2-8.6,6.3C7.3,258.2,7.2,258.3,7,258.5z"/>
	<path d="M249.6,56.5c0.3-0.2,0.5-0.6,0.8-0.8c-0.4-0.3-0.7-0.8-1.1-0.8c-1.2,0-2.5,0-3.6,0.4c-1.9,0.7-3.8,1.6-5.7,2.5
		c-1,0.5-2,0.9-3,1.5c-1.1,0.7-1,1.8,0.2,2.4c1,0.5,2,0.4,3,0c0.9-0.3,1.8-0.7,2.7-1.1c-0.9,1.4-0.5,2.4,1.2,2.7
		c3,0.6,5.6-0.5,8.2-1.9c0.7-0.4,0.5-1.2-0.2-1.4c-1-0.3-2-0.5-3-0.4c-1.8,0.1-3.5,0.4-5.3,0.7c0.3-0.2,0.5-0.5,0.8-0.6
		C246.2,58.5,247.9,57.5,249.6,56.5z"/>
	<path d="M49.6,109.6c-2-1.3-4.2-2.5-6.3-3.6c-1-0.5-1.9-0.3-2.5,0.4c1.3,1.8,2.6,3.6,3.8,5.4c0.8,1.3,1.5,2.5,3.2,2.5
		c0.2,0,0.4,0.2,0.6,0.3c0.8,0.4,1.6,0.5,2.1-0.3c0.5-0.9-0.2-1.3-0.8-1.8C51,111.4,51,110.5,49.6,109.6z"/>
	<path d="M152.5,307.8c-0.1,0.3-0.2,0.7-0.3,1.1c-0.4,2.1-0.7,4.1-1,6.2c-0.2,0.9-0.5,1.8-0.7,2.7c-0.3,1.1,0,1.8,0.9,2.1
		c0.8,0.3,1.5-0.1,2-1.1c0.1-0.2,0.2-0.4,0.2-0.6c0.5-1.5,1.1-3,1.6-4.6c0.5-1.7,0.8-3.4,1.1-4.7c0-1.4-0.7-2.4-1.5-2.5
		C153.8,306.2,152.9,306.8,152.5,307.8z"/>
	<path d="M181.6,185c-0.6,0.2-1.3,0.5-1.6,1c-1.6,2.5-3.2,5.1-4.7,7.8c-0.5,1,0.3,2,1.9,2.1c0.3-0.2,1-0.5,1.3-1.1
		c1.5-2.5,2.8-5,4.2-7.6c0.1-0.3,0.2-0.6,0.3-0.9C183.1,185.4,182.5,184.8,181.6,185z"/>
	<path d="M274,81.2c0.2-0.4,0.5-1.1,0.3-1.5c-0.2-0.4-0.9-0.6-1.4-0.6c-0.6,0-1.2,0.2-1.6,0.6c-2.1,1.5-4.1,3.1-6.2,4.6
		c-0.3,0.2-0.5,0.5-0.7,0.9c-0.6,1,0,2.1,1.5,2.1c0.3-0.1,0.9-0.3,1.4-0.7c1.9-1.4,3.8-2.9,5.7-4.3C273.3,82,273.8,81.7,274,81.2z"
		/>
	<path d="M20.8,146.7c0.9,0.1,1.6-0.9,1.1-1.7c-0.3-0.6-1-1.2-1.6-1.4c-1.1-0.3-2.3-0.3-3.5-0.2c-2.6,0.1-4.8,1.1-6.8,2.8
		c-0.8,0.7-1.8,1.2-2.7,1.8c-0.1,0-0.1,0.1-0.2,0.1v0.1c1.3-0.2,2.8-0.6,4.2-0.8C14.4,146.8,17.6,146.2,20.8,146.7z"/>
	<path d="M238,52.7c-2.4,1.3-4.4,2.9-6.1,5c-0.3,0.3-0.4,1.2-0.2,1.3c0.4,0.3,1,0.3,1.5,0.4c0.2,0,0.5-0.2,0.7-0.4
		c3-2.3,6.1-4.6,9.1-7c0.5-0.4,0.9-0.7,1.6-1.2c-0.4-0.1-0.7-0.2-1-0.2C241.5,50.7,239.8,51.7,238,52.7z"/>
	<path d="M185.7,190.9c-0.4,0-1-0.2-1.2,0.1c-1.5,1.6-3,3.2-4.3,5c-1,1.4-0.3,2.4,1.1,2.3c0.6,0.5,1.1,1.2,1.5,1.2
		c0.5,0,0.9-0.7,1.3-1.1c1-1.1,2-2.2,2.9-3.3c0.2-0.3,0.4-0.6,0.6-0.9c-0.3-0.2-0.7-0.5-1-0.4c-0.9,0.2-1.7,0.5-2.7,0.8
		c0.5-0.9,1.1-1.7,1.5-2.5C185.7,191.6,185.7,191.2,185.7,190.9z"/>
	<path d="M85.4,317.2c0,0.4,0,0.9,0.1,1.3c0.1,0.8,0.2,1.9,1.2,2c1,0.1,1.1-1,1.3-1.7c1-3.2,2-6.4,3-9.6c0.1-0.2,0-0.5-0.1-0.7
		c0-0.1-0.4-0.1-0.5,0c-0.9,0.7-2,1.4-2.7,2.3C86.2,312.6,85.4,314.8,85.4,317.2z"/>
	<path d="M16.2,135c1,0.6,2,1.1,3,1.6c0.3,0.1,1,0.1,1.2-0.1c0.2-0.2,0.3-0.9,0.1-1.2c-0.2-0.4-0.7-0.7-1.1-1
		c-2.4-1.6-4.9-3.2-7.3-4.8c-0.8-0.5-1.7-0.9-2.6-1.4c-0.6,0.3-1.1,0.6-1.6,0.9c0.3,0.3,0.6,0.7,0.9,1c0.8,0.7,1.7,1.4,2.6,2
		C13,133,14.6,134,16.2,135z"/>
	<path d="M239.8,46.5c-0.3-0.1-0.7-0.2-1-0.1c-3.2,0.7-6.3,1.9-9.1,3.7c-0.4,0.2-0.5,0.8-0.8,1.2c0.4,0.2,0.9,0.5,1.2,0.7
		c0.8-0.2,1.5-0.3,2.1-0.5c2.3-0.9,4.5-1.8,6.8-2.7c0.4-0.2,0.8-0.4,1.1-0.7C240.8,47.5,240.7,46.8,239.8,46.5z"/>
	<path d="M297.1,310.9c-0.1-1.3-0.1-2.5-0.3-3.7c-0.3-1.5-0.8-3-1.3-4.5c-0.1-0.2-0.5-0.3-0.7-0.5c-0.1,0.2-0.4,0.5-0.4,0.7
		c-0.1,0.6-0.1,1.3,0,2c0.3,3.9,1.2,7.8,1,11.8c0,0,0,0.1,0,0.1c0.5-0.3,0.9-0.6,1.4-0.9C296.9,314.2,297,312.5,297.1,310.9z"/>
	<path d="M321.7,273.2c0,0,0.1,0,0.4,0.1c-0.5-1.9-0.6-3.8-1.4-5.5c-1-2.2-2.5-4.1-3.9-6.1c-0.4-0.6-1-1-1.5-0.5
		c-0.3,0.3-0.5,1.1-0.3,1.5c0.5,1.1,1.1,2.1,1.7,3.2C318,268.6,320.8,270.2,321.7,273.2z"/>
	<path d="M51.7,94.8c-0.5,0.2-1,0.8-1.1,1.3c-0.1,0.4,0.5,1.1,0.9,1.3c1.5,0.6,3,1,4.5,1.4c0-0.1,0-0.2,0.1-0.3c0.3,0,0.6,0.1,0.8,0
		c0.4-0.2,1-0.4,1.2-0.8c0.2-0.3-0.1-0.9-0.3-1.3C56.8,95.1,53.3,94.1,51.7,94.8z"/>
	<path d="M319.4,122.9C319.4,123,319.4,123,319.4,122.9c-0.8,0-1.6-0.1-2.4,0.1c-0.5,0.1-1,0.5-1.5,0.8c0.4,0.4,0.8,0.8,1.2,1.2
		c0.1,0.1,0.3,0.1,0.4,0.1c1.5,0.1,3.1,0.2,4.6,0.3c1,0,2,0.1,3,0c0.1,0,0.2,0,0.2,0v-1.8c-0.2-0.1-0.3-0.1-0.5-0.1
		C322.7,123.2,321.1,123.1,319.4,122.9z"/>
	<path d="M242.6,197.3c-0.3-1.5-1.2-2.5-2.7-2.8c-0.9-0.2-1.9-0.3-2.9-0.1c-0.5,0.1-1.1,0.8-1.2,1.3c-0.2,0.7,0.4,1.4,1.2,1.4
		C238.8,197.2,240.7,198.4,242.6,197.3z"/>
	<path d="M143.7,230.2c0,1,1.2,2,2.5,2c1.4,0,2.6-0.9,2.7-1.9c0-1.1-1.2-2-2.6-2C144.9,228.3,143.7,229.2,143.7,230.2z"/>
	<path d="M218.9,208.6c0-1.1-1-1.9-2.3-1.9c-1.2,0-1.9,0.7-1.9,1.6c0,1.1,1.3,2.4,2.3,2.4C218.1,210.7,218.9,209.8,218.9,208.6z"/>
	<path d="M123,218.6c0,1.2,0.8,2.2,1.9,2.2c1,0,1.6-0.8,1.6-2c0-1.4-0.8-2.5-1.9-2.5C123.9,216.4,123,217.6,123,218.6z"/>
	<path d="M135.3,225.7c1,0,1.7-0.6,1.7-1.7c0-1.5-0.7-2.5-1.9-2.5c-1.1,0-1.8,0.8-1.8,2C133.3,224.8,134.1,225.7,135.3,225.7z"/>
	<path d="M209,228.1c0-0.9-0.7-1.5-1.8-1.5c-1.2,0-2.1,0.8-2.1,1.8c0,0.9,0.9,1.7,2,1.7C208.2,230,209,229.2,209,228.1z"/>
	<path d="M134.3,216.8c-0.2-0.9-0.5-1.9-1-2.7c-0.4-0.7-1.5-0.5-1.7,0.2c-0.2,0.6-0.2,1.2-0.3,2c0.1,0.3,0.1,0.8,0.4,1
		c0.5,0.3,1.1,0.6,1.6,0.6C133.7,217.8,134.4,217.1,134.3,216.8z"/>
	<path d="M212.1,219.6c0,0.8,0.8,1.6,1.7,1.6c1,0,1.8-0.7,1.8-1.6c0-0.9-0.7-1.6-1.6-1.6C213.1,217.9,212.1,218.7,212.1,219.6z"/>
	<path d="M130.2,229c0.2,0.2,0.6,0.1,0.8,0.2c0.3,0,0.4,0,0.6-0.1c0.8-0.2,1.5-0.5,1.5-1.4c0-0.9-0.8-1.1-1.4-1.2
		c-0.5-0.1-1-0.1-1.4,0.1c-0.5,0.2-1.2,0.8-1.2,1C129.2,228.1,129.7,228.6,130.2,229z"/>
	<path d="M11.5,150.6c-0.4,0.2-0.7,0.5-1.2,0.8c0.3,0.1,0.3,0.2,0.4,0.2c0.1,0,0.3-0.1,0.4-0.1c1.2-0.7,2.5-1,3.8-0.9
		c0.7,0,1.5-0.1,2.2-0.2c0.3-0.1,0.5-0.4,0.8-0.6c-0.3-0.2-0.5-0.5-0.8-0.5c-0.9,0-1.9,0-2.7,0.2C13.4,149.7,12.5,150.2,11.5,150.6z
		"/>
	<path d="M223.5,218.9c-0.1-0.8-0.7-1-1.4-1.1c-0.7,0.1-1.3,0.4-1.3,1.2c0,0.8,0.7,1,1.4,1.1C222.9,220.2,223.5,219.6,223.5,218.9z"
		/>
	<path d="M130.8,204.1c0.4-0.1,1.1-0.7,1.1-1.1c0-0.4-0.6-0.8-1.1-1.5c-0.5,0.7-1.1,1-1.1,1.5C129.5,203.9,130.2,204.3,130.8,204.1z
		"/>
	<path d="M217.4,227.5c0.1,0.1,0.6-0.4,0.9-0.6c-0.3-0.3-0.5-0.7-0.9-1.2c-0.4,0.3-0.7,0.6-1,0.8C216.7,226.8,217,227.3,217.4,227.5
		z"/>
	<path d="M19,300.7c0.1,0.1,0.2,0.2,0.3,0.4c0.3-0.6,0.6-1.3,0.8-1.9c-0.1-0.1-0.3-0.1-0.4-0.2C19.4,299.5,19.2,300.1,19,300.7z"/>
	<path d="M129.6,223.4c-0.4,0.5-0.7,1-1.2,1.6C129.7,224.9,130,224.5,129.6,223.4z"/>
</g>
<path fill="none" stroke="#000000" stroke-width="5" stroke-miterlimit="10" d="M324.9,264.3c0,33.8-27.2,61.2-60.9,61.2H67.9
	C34.3,325.5,7,298.1,7,264.3V67.2C7,33.4,34.3,6.1,67.9,6.1h196.1c33.6,0,60.9,27.4,60.9,61.2V264.3z"/>
</svg>
